<?xml version="1.0" encoding="utf-8"?>
<!-- Generator: Adobe Illustrator 27.0.0, SVG Export Plug-In . SVG Version: 6.00 Build 0)  -->
<svg version="1.1" id="Layer_1" xmlns="http://www.w3.org/2000/svg" xmlns:xlink="http://www.w3.org/1999/xlink" x="0px" y="0px"
	 viewBox="0 0 595.28 841.89" style="enable-background:new 0 0 595.28 841.89;" xml:space="preserve">
<style type="text/css">
	.st0{fill:#F8BD8C;}
	.st1{fill:#1A1A1A;}
	.st2{fill:#2C2B30;}
	.st3{fill:#E1B897;}
	.st4{fill:#7660AA;}
	.st5{fill:#333333;}
	.st6{fill:#AF8175;}
	.st7{fill:#FFFFFF;}
	.st8{fill:#1D1647;}
</style>
<g>
	<g>
		<polygon class="st0" points="325.7,267.86 238.21,269.41 244.39,197.9 317.97,197.9 		"/>
	</g>
	<g>
		<path class="st1" d="M343.45,144.67c0,46.72-28.13,84.59-62.82,84.59s-62.82-37.87-62.82-84.59c0-19.39-4.66-49.11,3.49-63.38
			c11.49-20.1,39.04-21.21,59.33-21.21c20.19,0,44.08-4.7,55.57,15.22C344.46,89.62,343.45,125.14,343.45,144.67z"/>
	</g>
	<g>
		<path class="st1" d="M353.02,109.1c0,0,6.7-65.57-3.61-76.41c-10.31-10.84-4.56-13.94-15.68-17.04
			c-11.12-3.1-11.28-8.78-29.61-8.78c-3.16,0-4.7-2.06-22.23-2.06c-5.67,0-14.95-4.65-28.09,2.58c-13.14,7.23-21.52-2.84-30.99,9.36
			c-9.47,12.2-13.08,5.61-21.33,24.72c-8.25,19.1,2.58,28.4,4.64,49.05c2.06,20.65,12.9,37.17,12.9,37.17l131.05-4.21L353.02,109.1z
			"/>
	</g>
	<g>
		<path class="st0" d="M343.45,130.95c0,46.72-28.13,84.59-62.82,84.59s-62.82-37.87-62.82-84.59c0-19.39-4.66-49.11,3.49-63.38
			c11.49-20.1,39.04-21.21,59.33-21.21c20.19,0,44.08-4.7,55.57,15.22C344.46,75.9,343.45,111.41,343.45,130.95z"/>
	</g>
	<g>
		<path class="st0" d="M230.58,135.7c0.81,9.93-3.7,18.4-10.08,18.92c-6.38,0.53-12.22-7.1-13.03-17.02
			c-0.81-9.93,3.7-18.4,10.08-18.92C223.93,118.15,229.77,125.77,230.58,135.7z"/>
	</g>
	<g>
		<path class="st0" d="M329.57,134.97c-1.44,9.85,2.53,18.6,8.87,19.53c6.34,0.93,12.64-6.31,14.08-16.16
			c1.44-9.85-2.53-18.6-8.87-19.53C337.32,117.88,331.01,125.11,329.57,134.97z"/>
	</g>
	<g>
		<path class="st1" d="M261.96,88.59c-1.52-0.05-2.85,0-4.26,0.05c-1.39,0.05-2.77,0.16-4.15,0.28c-2.76,0.27-5.52,0.65-8.26,1.19
			c-2.75,0.55-5.49,1.23-8.18,2.16c-2.69,0.96-5.35,2.16-7.84,3.76c-1.18,0.76-1.77,2.22-1.37,3.63c0.49,1.73,2.3,2.74,4.03,2.24
			l0.17-0.05c2.33-0.66,4.71-1.19,7.14-1.64c2.45-0.42,4.93-0.76,7.43-1.03c2.51-0.24,5.04-0.42,7.58-0.54
			c1.27-0.06,2.54-0.1,3.81-0.14c1.25-0.05,2.58-0.05,3.71-0.07l0.14,0c2.62-0.05,4.76-2.14,4.84-4.79
			C266.83,90.95,264.69,88.68,261.96,88.59z"/>
	</g>
	<g>
		<path class="st1" d="M327.57,96.04c-2.49-1.6-5.14-2.8-7.84-3.76c-2.7-0.93-5.44-1.61-8.18-2.16c-2.74-0.54-5.5-0.92-8.26-1.19
			c-1.38-0.13-2.76-0.23-4.15-0.28c-1.41-0.05-2.73-0.1-4.26-0.05c-2.62,0.08-4.74,2.21-4.79,4.86c-0.04,2.73,2.13,4.97,4.86,5.01
			l0.12,0c1.13,0.02,2.47,0.02,3.71,0.07c1.27,0.04,2.54,0.08,3.81,0.14c2.54,0.12,5.07,0.29,7.58,0.54
			c2.5,0.27,4.98,0.61,7.43,1.03c2.43,0.45,4.81,0.97,7.14,1.64l0.17,0.05c1.34,0.38,2.84-0.14,3.63-1.37
			C329.53,99.03,329.09,97.01,327.57,96.04z"/>
	</g>
	<g>
		<path class="st1" d="M253.54,122.01c0,3.14-2.05,5.68-4.57,5.68c-2.53,0-4.57-2.54-4.57-5.68c0-3.14,2.05-5.68,4.57-5.68
			C251.49,116.33,253.54,118.87,253.54,122.01z"/>
	</g>
	<g>
		<path class="st1" d="M313.26,122.01c0,3.14-2.05,5.68-4.57,5.68c-2.53,0-4.57-2.54-4.57-5.68c0-3.14,2.05-5.68,4.57-5.68
			C311.22,116.33,313.26,118.87,313.26,122.01z"/>
	</g>
	<g>
		<path class="st2" d="M280.73,156.58c0,0-0.01,0-0.02,0c-0.67-0.03-6.59-0.35-7.93-2.24c-0.28-0.4-0.36-0.86-0.21-1.33
			c0.81-2.66,3.84-20.24,3.87-20.42c0.03-0.2,0.22-0.33,0.42-0.3c0.2,0.03,0.33,0.22,0.3,0.42c-0.12,0.73-3.07,17.81-3.89,20.51
			c-0.08,0.26-0.04,0.48,0.11,0.69c0.96,1.36,5.64,1.85,7.37,1.93c0.2,0.01,0.36,0.18,0.35,0.38
			C281.08,156.43,280.92,156.58,280.73,156.58z"/>
	</g>
	<g>
		<path class="st1" d="M210.1,53.58c0,0,14.06,20.23,27.17,16.68c13.11-3.55,20.56-18.56,26.77-11.77
			c6.21,6.79,16.98,5.69,25.39,0.4c8.41-5.3,5.66,1.51,16.7,3.24c11.04,1.73,16.4-1.69,24.48,8.55c8.08,10.24,16.36,5.35,13.6-8.55
			c-2.76-13.9-21.53-43.75-38.09-35.22C289.57,35.44,210.1,53.58,210.1,53.58z"/>
	</g>
	<g>
		<path class="st1" d="M343.27,101.89c-0.27-0.08-0.54-0.14-0.82-0.2c-4.21-0.98-8.84-1.57-13.55-1.87c-4.78-0.3-9.66-0.3-14.3-0.06
			c-0.01,0-0.01,0-0.01,0c-9.08,0.47-17.28,1.81-22.11,3.4c-3.93,1.3-8.55,3.14-12.5,3.14c-3.93,0-8.56-1.84-12.49-3.14
			c-5.26-1.73-14.48-3.17-24.51-3.5h-0.01c-0.01,0-0.01,0-0.01,0c-4.91-0.16-10.01-0.06-14.93,0.4c-3.99,0.37-7.86,0.97-11.4,1.85
			c-0.01,0-0.03,0-0.03,0.01c-1.11,0.27-2.19,0.58-3.23,0.91l0.51,9.36c0,0,1.42-0.31,2.64,0.55c0.21,0.15,0.42,0.33,0.61,0.56
			c0.33,0.39,0.62,0.91,0.83,1.59c0.23,0.78,0.54,2.13,0.92,3.81c0.58,2.5,1.33,5.74,2.28,8.93c1.16,3.91,2.64,7.73,4.46,10.04
			c1.3,1.64,2.95,2.9,4.83,3.85c5.87,3,13.9,3.09,19.79,2.83c10.47-0.45,17.33-5.11,20.26-13c0.69-1.87,1.31-3.67,1.88-5.37
			c1.84-5.46,3.14-9.79,4.57-11.42c1.02-1.16,2.15-1.24,3.04-1.24c0.9,0,2.03,0.08,3.05,1.24c1.38,1.58,2.65,5.7,4.4,10.94
			c0.61,1.83,1.29,3.8,2.04,5.85c2.93,7.89,9.79,12.55,20.26,13c5.86,0.25,13.84,0.17,19.69-2.79c1.92-0.96,3.61-2.23,4.93-3.9
			c2.42-3.06,4.22-8.8,5.51-13.85c0.46-1.78,0.85-3.47,1.19-4.93c0.4-1.76,0.72-3.19,0.97-4c0.27-0.9,0.68-1.52,1.16-1.93
			c0.1-0.09,0.2-0.17,0.3-0.23c1.22-0.85,2.62-0.54,2.62-0.54l0.51-9.36C345.53,102.48,344.42,102.17,343.27,101.89z M265.81,131.34
			c-2.81,5.3-7.55,8-14.63,8.91c-7.09,0.9-15.57-0.49-19.84-3.04c-0.24-0.14-0.47-0.3-0.69-0.48c-2.36-1.9-3.87-5.75-4.86-9.26
			c-0.39-1.41-0.7-2.76-0.94-3.91c-0.13-0.63-0.28-1.37-0.42-2.19v-0.01c-0.82-4.69-1.4-11.78,2.33-14.36
			c4.39-3.05,15.42-3.27,22.73-2.82c5.51,0.34,17.44,1.81,19.69,6.09c1.62,3.08,0.35,10.39-1.34,15.86
			C267.17,128.26,266.45,130.13,265.81,131.34z M335.12,123.56c-0.03,0.13-0.06,0.27-0.08,0.4c-0.86,4.01-2.5,10.11-5.65,12.71
			c-0.24,0.2-0.49,0.38-0.75,0.54c-4.28,2.55-12.76,3.94-19.84,3.04c-7.09-0.9-11.82-3.6-14.63-8.91c-0.72-1.35-1.54-3.52-2.27-5.99
			c-1.56-5.37-2.64-12.16-1.11-15.09c2.26-4.28,14.18-5.75,19.69-6.09c7.31-0.45,18.35-0.23,22.73,2.82
			c3.96,2.74,3.06,10.54,2.19,15.18C335.3,122.68,335.2,123.15,335.12,123.56z"/>
	</g>
	<g>
		<path class="st3" d="M415.9,269.38c0,0,51.82,21.45,62.4,33.96c10.58,12.51,46.54,119.34,46.54,175.39
			c0,56.06,8.46,142.12,0,158.32c-8.46,16.2-46.54,96.53-71.92,115.06c-25.38,18.53-35.78,17.15-35.78,17.15l-6.21-83.44
			l27.18-131.99l-13.79-198.89L415.9,269.38z"/>
	</g>
	<g>
		<path class="st4" d="M278.85,724.31c-2.6,12.15-5.91,59.8-8.93,112.21c-0.12,2.2-0.25,4.4-0.37,6.61H138.19
			c-1.44-79.74,1.24-156.32,1.24-156.32s1.23,0.06,3.47,0.2c1.14,0.08,2.55,0.16,4.18,0.27c0.16,0.01,0.32,0.02,0.48,0.04
			c0.03,0,0.06,0,0.08,0.01c11.92,0.82,35.21,2.71,58.91,6.21c12.38,1.83,24.88,4.11,35.93,6.91c15.51,3.92,28.16,8.87,33.64,15.07
			c0.38,0.43,0.73,0.86,1.04,1.3v0.01c0.2,0.3,0.4,0.59,0.57,0.89C278.93,719.79,279.35,721.98,278.85,724.31z"/>
	</g>
	<g>
		<polygon class="st4" points="417.13,700.45 417.13,843.14 271.72,843.14 270.46,837.5 269.92,836.52 241.34,784.01 208.55,724.58 
			203.14,714.77 202.53,713.65 195.24,700.45 		"/>
	</g>
	<g>
		<path class="st5" d="M238.21,233.01h87.49l11.34,20.45l78.86,15.68c0,0,52.57,25.23,54.12,29.32
			c1.55,4.09,20.1,215.45,12.37,267.27c-7.73,51.82-3.09,109.09-10.82,135c-7.73,25.91-320.07,10.91-320.07,10.91
			s-63.4-384.54-43.3-402.27c20.1-17.73,121.12-45.23,124.47-51.14C236.02,252.33,238.21,233.01,238.21,233.01z"/>
	</g>
	<path class="st3" d="M482.38,567.91c-7.73,52.16-3.09,109.8-10.82,135.88c-2.78,9.39-43.64,22.12-96.61,23.46
		c-40.11,1.02-87.05-10.8-126.92-11.75c-3.02-0.07-6-0.14-8.94-0.2c-49.43-1.02-87.6-0.53-87.6-0.53s-63.39-387.05-43.3-404.9
		c17.64-15.65,97.52-38.87,119.15-48.35l62.7,110.68l54.76-117.06l71.1,14.23c0,0,52.57,25.39,54.12,29.51
		C471.56,303.01,490.12,515.75,482.38,567.91z"/>
	<g>
		<path class="st6" d="M415.59,503.06c-0.8,0-1.45-0.64-1.46-1.44l-0.93-66.28c-0.11-8.27-3.7-33.38-3.73-33.64
			c-0.11-0.8,0.44-1.54,1.24-1.65c0.79-0.11,1.54,0.44,1.65,1.24c0.15,1.04,3.64,25.55,3.76,34.01l0.93,66.28
			c0.01,0.81-0.63,1.47-1.44,1.48C415.6,503.06,415.6,503.06,415.59,503.06z"/>
	</g>
	<g>
		<path class="st7" d="M259.07,177.9c1.39,7.16,11.16,12.21,22.44,11.41c9.8-0.7,17.57-5.61,19.39-11.64L259.07,177.9z"/>
	</g>
	<g>
		<path class="st6" d="M290.92,373.77c-0.53,0-1.01-0.28-1.27-0.74l-29.82-52.64c-0.4-0.7-0.15-1.59,0.55-1.99
			c0.7-0.4,1.59-0.15,1.99,0.55l28.43,50.18l35.3-75.45c0.34-0.73,1.21-1.05,1.94-0.7c0.73,0.34,1.05,1.21,0.7,1.94l-36.5,78.01
			c-0.23,0.5-0.72,0.82-1.27,0.84C290.96,373.77,290.94,373.77,290.92,373.77z"/>
	</g>
	<g>
		<path class="st8" d="M366.89,728.75c-17.19,0-37.88-1.33-59.8-5.63c-54.56-10.71-91.63-7.36-92-7.32
			c-0.81,0.07-1.52-0.51-1.59-1.32c-0.08-0.8,0.51-1.52,1.32-1.59c0.37-0.04,37.87-3.42,92.84,7.37
			c55.91,10.97,104.36,2.3,104.79,2.2c0.79-0.18,1.57,0.31,1.75,1.1c0.18,0.79-0.3,1.57-1.09,1.75
			C412.83,725.36,394.33,728.75,366.89,728.75z"/>
	</g>
	<g>
		<path class="st8" d="M290.32,811.38c-0.81,0-1.46-0.65-1.46-1.46v-39.49c0-0.1,0.01-0.2,0.03-0.3l4.64-21.86
			c0.17-0.79,0.95-1.3,1.73-1.13c0.79,0.17,1.29,0.94,1.13,1.73l-4.61,21.71v39.33C291.79,810.72,291.13,811.38,290.32,811.38z"/>
	</g>
	<g>
		<path class="st3" d="M157.16,292.83c0,0-41.45,4.83-52.03,17.34c-10.58,12.51-43.35,106.92-43.35,162.97
			c0,56.06-1.02,139.81,8.67,155.3c8.35,13.35,27.43,73.25,53.25,102.79c20.69,23.66,14.06,38.37,14.06,38.37l19.39-88.56
			l-27.18-131.99l13.79-198.89L157.16,292.83z"/>
	</g>
</g>
</svg>
