<?xml version="1.0" encoding="utf-8"?>
<!-- Generator: Adobe Illustrator 27.0.0, SVG Export Plug-In . SVG Version: 6.00 Build 0)  -->
<svg version="1.1" id="Layer_1" xmlns="http://www.w3.org/2000/svg" xmlns:xlink="http://www.w3.org/1999/xlink" x="0px" y="0px"
	 viewBox="0 0 595.28 841.89" style="enable-background:new 0 0 595.28 841.89;" xml:space="preserve">
<style type="text/css">
	.st0{fill:#F8BD8C;}
	.st1{fill:#EAB186;}
	.st2{fill:#F2B587;}
	.st3{fill:#1A1A1A;}
	.st4{fill:#0B0709;}
	.st5{fill:#FFFFFF;}
	.st6{fill:#333333;}
	.st7{fill:#7660AA;}
	.st8{fill:#1D1647;}
</style>
<g>
	<g>
		<rect x="256.66" y="187.84" class="st0" width="72.89" height="65.73"/>
	</g>
	<g>
		<path class="st1" d="M329.56,193.2v20.44c-5.34,5.4-12.64,9.68-21.81,10.51c-19.71,1.77-38.97-12.86-51.08-24.19v-6.78
			c0.06,0.01,0.12,0.04,0.18,0.05c8.89,2.65,22.47,5.41,40.57,5.39c13.09-0.01,23.1-2.49,30.33-5.39L329.56,193.2z"/>
	</g>
	<g>
		<path class="st2" d="M243.36,131.75c0.91,10.98-3.39,20.3-9.59,20.81c-6.2,0.51-11.96-7.98-12.87-18.96
			c-0.91-10.98,3.39-20.3,9.59-20.81C236.7,112.28,242.46,120.77,243.36,131.75z"/>
	</g>
	<g>
		<path class="st2" d="M363.24,134.01c-1.3,10.94-7.37,19.22-13.55,18.48c-6.18-0.74-10.13-10.2-8.83-21.15
			c1.3-10.94,7.37-19.22,13.55-18.48C360.59,113.6,364.54,123.07,363.24,134.01z"/>
	</g>
	<g>
		<ellipse class="st0" cx="292.7" cy="131.87" rx="59.16" ry="78.87"/>
	</g>
	<g>
		<path class="st3" d="M278.14,16.02c-1.76,0-17.61-11.62-38.03,7.75c-20.42,19.37-15.73,15.61-21.36,20.77
			c-5.63,5.16-4.23,10.61-11.74,15.4c-7.51,4.79-8.92,7.13-5.63,12.77c3.29,5.63,5.58,11.27-1.67,15.02
			c-7.25,3.76-10.07,4.69-6.31,7.98c3.76,3.29,0.59,7.63,9.04,9.04c8.45,1.41,13.03,2.31,14.44,5.91c1.41,3.6,4.58,3.6,8.8,5.01
			c4.23,1.41,4.93,2.11,6.34,4.23c1.41,2.11,2.92,1.41,2.92,1.41s8.54-20.83,8.97-29.78c0.43-8.95,3.25,0.2,9.94-8.95
			c6.69-9.16,8.05-8.38,13.73-15.58c5.68-7.2,2.32-2.68,6.97-7.81C279.2,54.05,278.14,16.02,278.14,16.02z"/>
	</g>
	<g>
		<g>
			<path class="st4" d="M293.17,155.46c-0.68,0-1.17-0.02-1.35-0.03c-0.39-0.02-0.69-0.35-0.67-0.74c0.02-0.39,0.35-0.71,0.74-0.67
				c2.79,0.13,7.64-0.17,8.76-1.51c1.07-1.29,0.56-8.69-0.16-13.53c-0.06-0.39,0.21-0.74,0.59-0.8c0.39-0.06,0.74,0.21,0.8,0.59
				c0.3,2.05,1.71,12.4-0.15,14.64C300.22,155.22,295.55,155.46,293.17,155.46z"/>
		</g>
	</g>
	<g>
		<path class="st5" d="M273.57,171.29h39.08c0,0-12.44,20.48-31.64,7.22C280.35,178.06,273.57,171.29,273.57,171.29z"/>
	</g>
	<g>
		<path class="st4" d="M278.71,106.02c-2.3,0.24-4.7,0.42-7.03,0.61c-2.34,0.2-4.67,0.39-6.98,0.63c-2.3,0.24-4.58,0.54-6.84,0.86
			c-2.24,0.36-4.43,0.78-6.63,1.23l-0.14,0.03c-1.54,0.32-3.05-0.68-3.37-2.22c-0.26-1.26,0.36-2.5,1.44-3.09
			c2.34-1.26,4.84-2.11,7.34-2.73c2.5-0.6,5.03-0.95,7.55-1.17c2.52-0.17,5.03-0.22,7.54-0.08c2.52,0.14,4.96,0.4,7.5,0.97
			c1.35,0.3,2.2,1.65,1.9,3c-0.24,1.07-1.14,1.83-2.18,1.94L278.71,106.02z"/>
	</g>
	<g>
		<path class="st4" d="M306.7,101.08c2.54-0.57,4.98-0.83,7.5-0.97c2.5-0.14,5.02-0.09,7.54,0.08c2.52,0.21,5.05,0.57,7.55,1.17
			c2.5,0.62,5,1.47,7.34,2.73c1.39,0.75,1.91,2.48,1.16,3.87c-0.61,1.13-1.88,1.69-3.08,1.44l-0.14-0.03
			c-2.19-0.45-4.38-0.87-6.63-1.23c-2.25-0.32-4.53-0.62-6.84-0.86c-2.31-0.25-4.64-0.43-6.98-0.63c-2.33-0.19-4.73-0.37-7.03-0.61
			l-0.11-0.01c-1.38-0.15-2.37-1.38-2.23-2.76C304.87,102.16,305.68,101.31,306.7,101.08z"/>
	</g>
	<g>
		<path class="st4" d="M267.81,125.47c0,3.53-2.18,6.4-4.87,6.4c-2.69,0-4.87-2.86-4.87-6.4c0-3.53,2.18-6.4,4.87-6.4
			C265.63,119.07,267.81,121.94,267.81,125.47z"/>
	</g>
	<g>
		<path class="st4" d="M326.12,125.47c0,3.53-2.18,6.4-4.87,6.4c-2.69,0-4.87-2.86-4.87-6.4c0-3.53,2.18-6.4,4.87-6.4
			C323.94,119.07,326.12,121.94,326.12,125.47z"/>
	</g>
	<g>
		<path class="st3" d="M268.13,43.15c0,0,1.41,27.66,27.46,34.47c0,0,7.39-0.76,13.03,9.85c5.63,10.61-0.35,9.47,6.34,12.88
			c6.69,3.41,5.99-0.38,16.55,4.17c10.56,4.55,7.04,7.67,14.79,12.17c7.75,4.5,22.89,1.09,25-2.7c2.11-3.79,5.63-4.92,6.69-8.71
			c1.06-3.79,0-20.46,0-20.46s-12.68-9.09-16.9-19.7c-4.23-10.61,1.41-15.15-7.75-21.97c-9.15-6.82-23.24-12.88-26.06-15.91
			c-2.82-3.03-6.34-18.18-18.31-17.43c-11.97,0.76-26.76-0.43-32.04-0.03c-5.28,0.41-8.1,4.95-8.8,9.88
			C267.42,24.58,268.13,43.15,268.13,43.15z"/>
	</g>
	<g>
		<path class="st6" d="M446,841.65H310.94c-2.73-35.34-5.12-71.48-5.47-93.02c-0.07-4.34,0-10.89,0-10.89l-6.38,103.91H145.65
			c0.12-29.2,1.67-64.81,5.85-106.99c0.15-1.44,0.29-2.89,0.45-4.34c1.42-14.01,3.15-28.73,5.21-44.17
			c0.73-5.52,1.5-11.14,2.32-16.84c0.87-6.07,1.8-12.24,2.78-18.51c0.72-4.63,1.47-9.33,2.25-14.08c0.36-2.23,0.74-4.49,1.12-6.75
			v-0.01c0.67-3.96,1.35-7.95,2.06-12c1.37-7.84,2.82-15.82,4.35-23.95h249.86c0,0,1.07,4.32,2.77,12.11
			c0.6,2.68,1.25,5.77,1.96,9.23c0.01,0.02,0.01,0.04,0.01,0.06c0.13,0.61,0.26,1.23,0.38,1.86c1.52,7.38,3.25,16.32,5.06,26.51
			c1.41,7.92,2.86,16.6,4.27,25.88c2.34,15.32,4.6,32.31,6.44,50.34c0.3,2.95,0.6,5.92,0.88,8.93
			C446.99,764.53,448.55,803.64,446,841.65z"/>
	</g>
	<g>
		<path class="st7" d="M396.75,256.47c0,0,54.68,17.12,65.84,27.11c11.16,9.99,49.11,95.25,49.11,139.99
			c0,44.74,8.93,113.43,0,126.36c-8.93,12.93-49.11,77.04-75.89,91.84c-26.79,14.79-37.76,13.69-37.76,13.69l-6.55-66.6
			l28.69-105.35l-14.55-158.75L396.75,256.47z"/>
	</g>
	<g>
		<path class="st7" d="M225.86,243.44c6-2.24,22.07-6.81,33.32-2.62c11.24,4.19,38.32,8.38,51.23,2.62
			c12.91-5.76,29.57-6.53,41.23-4.05c11.66,2.48,44.56,9.29,63.72,24.99c19.16,15.71,30.81,312.05,13.11,337.18
			c-6.18,8.78-36.98,38.7-85.74,29.72c-38.96-7.17-83.14,24.18-124.71,2.83c-32.47-16.67-58.38-16.85-58.38-16.85
			s-39.15-261.79-17.49-321.48C142.15,295.8,144.65,273.81,225.86,243.44z"/>
	</g>
	<g>
		<path class="st8" d="M305.47,739.2c-0.02,0-0.03,0-0.05,0c-0.81-0.03-1.45-0.71-1.42-1.52c0.25-7.57,4.35-12.97,10.56-21.14
			c4.57-6.02,10.26-13.51,16.49-24.56c0.4-0.71,1.3-0.96,2-0.56c0.71,0.4,0.96,1.29,0.56,2c-6.33,11.23-12.09,18.81-16.71,24.9
			c-6.08,8-9.75,12.83-9.97,19.46C306.91,738.58,306.26,739.2,305.47,739.2z"/>
	</g>
	<g>
		<path class="st7" d="M218.32,247.48c0,0-44.63,27.32-63.88,38.66c-19.25,11.33-31.84,27.9-36.28,37.49
			c-4.44,9.59-14.81,18.31-14.07,24.41c0.74,6.1-17.03,32.26-20.73,54.05c-3.7,21.79-10.37,94.15-10.37,96.77
			c0,2.62,11.85,62.77,11.85,62.77s34.8,41.85,42.2,51.44c7.4,9.59,29.62,25.28,32.58,25.28c2.96,0,21.47-14.82,20.73-29.64
			c-0.74-14.82-5.92-57.54-11.11-64.51c-4.05-5.45-9.01-10.38-12.75-17.68c-1.04-2.04-1.99-4.26-2.8-6.73
			c-3.7-11.33,6.66-38.36,6.66-38.36s33.32-95.9,31.84-108.98c-1.48-13.08,9.63-59.28,6.66-71.49
			C195.9,288.75,218.32,247.48,218.32,247.48z"/>
	</g>
	<g>
		<path class="st8" d="M242.92,642.5c-26.03,0-37.82-14.15-38.32-14.77c-0.51-0.63-0.42-1.56,0.21-2.07
			c0.63-0.51,1.55-0.42,2.07,0.21c0.18,0.22,12.26,14.55,38.49,13.64c22.71-0.79,34.16-3.54,43.36-5.75
			c1.9-0.46,3.69-0.89,5.51-1.29c16.6-3.65,39.6-7.97,47.8-3.42c0.71,0.39,0.96,1.29,0.57,2c-0.39,0.71-1.29,0.96-2,0.57
			c-8.17-4.53-36.45,1.68-45.74,3.72c-1.79,0.39-3.57,0.82-5.45,1.27c-9.33,2.24-20.94,5.03-43.94,5.83
			C244.6,642.48,243.75,642.5,242.92,642.5z"/>
	</g>
	<g>
		<path class="st8" d="M168.94,512.54c-0.68,0-1.29-0.47-1.44-1.17c-3.35-15.83-1.64-30.06,5.07-42.3
			c6.18-11.26,10.16-22.65,14.38-34.72c2.47-7.07,5.03-14.38,8.05-21.6c0.31-0.75,1.18-1.1,1.92-0.79c0.75,0.31,1.1,1.17,0.79,1.92
			c-2.99,7.13-5.53,14.4-7.99,21.43c-4.07,11.65-8.28,23.69-14.58,35.16c-6.37,11.6-7.97,25.15-4.77,40.28
			c0.17,0.79-0.34,1.57-1.13,1.74C169.14,512.53,169.04,512.54,168.94,512.54z"/>
	</g>
	<g>
		<path class="st8" d="M287.24,247.98c-11.17,0-30.18-6.24-31.04-6.53c-0.77-0.25-1.19-1.09-0.93-1.86
			c0.25-0.77,1.09-1.19,1.86-0.93c0.22,0.07,22.22,7.29,32.2,6.28c5.62-0.58,9.41-0.44,11.91-0.34c1.61,0.06,3.01,0.11,3.39-0.14
			c0.68-0.44,1.59-0.24,2.03,0.44c0.44,0.68,0.24,1.59-0.44,2.03c-1.16,0.75-2.64,0.69-5.09,0.6c-2.42-0.09-6.08-0.22-11.5,0.33
			C288.88,247.94,288.08,247.98,287.24,247.98z"/>
	</g>
</g>
</svg>
