<?xml version="1.0" encoding="utf-8"?>
<!-- Generator: Adobe Illustrator 27.0.0, SVG Export Plug-In . SVG Version: 6.00 Build 0)  -->
<svg version="1.1" xmlns="http://www.w3.org/2000/svg" xmlns:xlink="http://www.w3.org/1999/xlink" x="0px" y="0px"
	 viewBox="0 0 500 500" style="enable-background:new 0 0 500 500;" xml:space="preserve">
<style type="text/css">
	.st0{display:none;}
	.st1{fill:#8DFCFF;}
	.st2{fill:#00A79D;}
	.st3{fill:#27BAA5;}
	.st4{fill:#D88E2C;}
	.st5{fill:#F8951D;}
	.st6{fill:#FBB040;}
</style>
<g id="Background" class="st0">
</g>
<g id="Objects">
	<polygon class="st1" points="302.03,39.09 249.96,69.42 249.93,69.42 197.64,39.47 249.71,9.15 	"/>
	<polygon class="st2" points="302.03,39.09 302.25,99.36 250.15,129.71 249.93,69.42 249.96,69.42 	"/>
	<polygon class="st3" points="249.93,69.42 250.15,129.71 197.86,99.74 197.64,39.47 	"/>
	<polygon class="st4" points="302.35,221.42 250.17,251.55 250.14,251.55 197.96,221.42 250.14,191.29 	"/>
	<polygon class="st5" points="302.35,221.42 302.35,281.69 250.14,311.84 250.14,251.55 250.17,251.55 	"/>
	<polygon class="st6" points="250.14,251.55 250.14,311.84 197.96,281.69 197.96,221.42 	"/>
	<polygon class="st1" points="301.91,403.37 249.84,433.69 249.81,433.69 197.52,403.75 249.59,373.43 	"/>
	<polygon class="st2" points="301.91,403.37 302.13,463.63 250.03,493.98 249.81,433.69 249.84,433.69 	"/>
	<polygon class="st3" points="249.81,433.69 250.03,493.98 197.74,464.02 197.52,403.75 	"/>
	<polygon class="st1" points="459.75,189.91 407.37,160.11 407.36,160.09 406.98,99.83 459.36,129.63 	"/>
	<polygon class="st2" points="459.75,189.91 407.75,220.37 355.34,190.57 407.36,160.09 407.37,160.11 	"/>
	<polygon class="st3" points="407.36,160.09 355.34,190.57 354.98,130.3 406.98,99.83 	"/>
	<polygon class="st1" points="144.71,372.8 92.33,343 92.32,342.98 91.94,282.72 144.32,312.52 	"/>
	<polygon class="st2" points="144.71,372.8 92.72,403.26 40.3,373.46 92.32,342.98 92.33,343 	"/>
	<polygon class="st3" points="92.32,342.98 40.3,373.46 39.94,313.19 91.94,282.72 	"/>
	<polygon class="st1" points="40.25,185.77 92.63,155.98 92.64,155.96 93.02,95.7 40.64,125.49 	"/>
	<polygon class="st2" points="40.25,185.77 92.25,216.24 144.66,186.44 92.64,155.96 92.63,155.98 	"/>
	<polygon class="st3" points="92.64,155.96 144.66,186.44 145.02,126.16 93.02,95.7 	"/>
	<polygon class="st1" points="355.29,368.67 407.67,338.87 407.68,338.85 408.06,278.59 355.68,308.38 	"/>
	<polygon class="st2" points="355.29,368.67 407.28,399.13 459.7,369.33 407.68,338.85 407.67,338.87 	"/>
	<polygon class="st3" points="407.68,338.85 459.7,369.33 460.06,309.06 408.06,278.59 	"/>
</g>
<g id="Designed_by_Freepik" class="st0">
</g>
</svg>
