<?xml version="1.0" encoding="utf-8"?>
<!-- Generator: Adobe Illustrator 27.0.0, SVG Export Plug-In . SVG Version: 6.00 Build 0)  -->
<svg version="1.1" id="Layer_1" xmlns="http://www.w3.org/2000/svg" xmlns:xlink="http://www.w3.org/1999/xlink" x="0px" y="0px"
	 viewBox="0 0 2527.88 2000" style="enable-background:new 0 0 2527.88 2000;" xml:space="preserve">
<style type="text/css">
	.st0{fill:#FCEFE6;}
	.st1{opacity:0.5;}
	.st2{fill:#FEC786;}
	.st3{fill:#FFFFFF;}
	.st4{fill:#EFA04B;}
	.st5{fill:#FC4963;}
	.st6{fill:#AAC9F8;}
	.st7{fill:#21111D;}
	.st8{fill:#4CB7D8;}
	.st9{fill:#1D1D1B;}
	.st10{fill:#FEBAC7;}
	.st11{fill:#F75553;}
	.st12{opacity:0.3;}
	.st13{fill:#6AA2E5;}
	.st14{fill:#F9B59D;}
	.st15{fill:#F99247;}
	.st16{fill:#F7D6B2;}
	.st17{fill:#FF424D;}
	.st18{fill:#F07162;}
	.st19{fill:#18829B;}
	.st20{fill:#7FC6A6;}
	.st21{fill:#FFB357;}
	.st22{fill:#FFFAF3;}
	.st23{opacity:0.2;}
	.st24{fill:#45AFC9;}
	.st25{opacity:0.8;}
	.st26{fill:#EAB096;}
	.st27{fill:#F7DACD;}
	.st28{fill:#49597D;}
	.st29{fill:#662108;}
	.st30{fill:#D38363;}
</style>
<g>
	<g>
		<g>
			<g>
				<g>
					<g>
						<path class="st0" d="M673.06,1767.13l1196.12,5.26c234.61-2.58,431.4-149.57,511.11-352.63
							c31.14-79.34,44.42-167.25,35.09-258.44c-4.94-48.33-12.74-100.09-23.96-155.48c-71.23-351.77-441.28-499.69-744.82-519.26
							c-370.29-23.88-390.16-270.84-797.2-231.61c-190.29,18.34-431.13,116.06-583.59,419.26
							c-79.46,158.02-195.99,357.95-133.22,653.64c6.76,31.83,16.17,62.53,27.98,91.89
							C243.51,1625.94,444.58,1766.12,673.06,1767.13z"/>
					</g>
				</g>
			</g>
		</g>
	</g>
	<g class="st1">
		<g>
			<circle class="st2" cx="971.89" cy="736.69" r="357.38"/>
		</g>
		<g>
			<circle class="st3" cx="971.89" cy="736.69" r="322.99"/>
		</g>
		<g>
			<path class="st2" d="M1191.54,596.96c-216.71,76.2-219.56,141.3-219.56,141.3C1053.52,755.95,1191.54,596.96,1191.54,596.96z"/>
		</g>
		<g>
			<path class="st2" d="M827.22,855.64c0,0,138.28-58.83,144.17-118.09C971.39,737.55,926.55,725.2,827.22,855.64z"/>
		</g>
		<g>
			
				<ellipse transform="matrix(0.0981 -0.9952 0.9952 0.0981 141.9124 1633.1146)" class="st4" cx="971.97" cy="738.26" rx="18.07" ry="18.07"/>
		</g>
		<g>
			<rect x="969.04" y="413.7" class="st4" width="5.87" height="71.16"/>
		</g>
		<g>
			<rect x="969.04" y="988.52" class="st4" width="5.87" height="71.16"/>
		</g>
		<g>
			<rect x="1223.81" y="733.75" class="st4" width="71.16" height="5.87"/>
		</g>
		<g>
			<rect x="648.98" y="733.75" class="st4" width="71.16" height="5.87"/>
		</g>
		<g>
			
				<rect x="1169.99" y="517.94" transform="matrix(0.7071 -0.7071 0.7071 0.7071 -20.4229 992.4508)" class="st4" width="35.58" height="5.87"/>
		</g>
		<g>
			
				<rect x="738.37" y="949.56" transform="matrix(0.7071 -0.7071 0.7071 0.7071 -452.0414 813.6661)" class="st4" width="35.58" height="5.87"/>
		</g>
		<g>
			
				<rect x="1077.65" y="1004.12" transform="matrix(0.9345 -0.3559 0.3559 0.9345 -292.9316 451.4608)" class="st4" width="5.87" height="35.58"/>
		</g>
		<g>
			
				<rect x="860.42" y="433.68" transform="matrix(0.9345 -0.3559 0.3559 0.9345 -104.1461 336.8142)" class="st4" width="5.87" height="35.58"/>
		</g>
		<g>
			
				<rect x="829.3" y="1012.23" transform="matrix(0.4092 -0.9125 0.9125 0.4092 -425.8122 1372.7286)" class="st4" width="35.58" height="5.87"/>
		</g>
		<g>
			
				<rect x="1079.06" y="455.27" transform="matrix(0.4092 -0.9125 0.9125 0.4092 229.9584 1271.5509)" class="st4" width="35.58" height="5.87"/>
		</g>
		<g>
			
				<rect x="668.96" y="842.36" transform="matrix(0.9345 -0.3559 0.3559 0.9345 -255.8616 299.736)" class="st4" width="35.58" height="5.87"/>
		</g>
		<g>
			
				<rect x="1239.4" y="625.14" transform="matrix(0.9345 -0.3559 0.3559 0.9345 -141.2121 488.5246)" class="st4" width="35.58" height="5.87"/>
		</g>
		<g>
			
				<rect x="690.55" y="594.02" transform="matrix(0.4092 -0.9125 0.9125 0.4092 -148.5151 994.2532)" class="st4" width="5.87" height="35.58"/>
		</g>
		<g>
			
				<rect x="1247.52" y="843.78" transform="matrix(0.4092 -0.9125 0.9125 0.4092 -47.3374 1650.0276)" class="st4" width="5.87" height="35.58"/>
		</g>
		<g>
			
				<rect x="756.85" y="499.52" transform="matrix(0.7188 -0.6952 0.6952 0.7188 -145.9897 673.7049)" class="st4" width="5.87" height="35.58"/>
		</g>
		<g>
			
				<rect x="1181.22" y="938.27" transform="matrix(0.7188 -0.6952 0.6952 0.7188 -331.6862 1092.0721)" class="st4" width="5.87" height="35.58"/>
		</g>
	</g>
	<g>
		<path class="st2" d="M673.06,1767.13l1196.12,5.26c234.61-2.58,431.4-149.57,511.11-352.63H160.57
			C243.51,1625.94,444.58,1766.12,673.06,1767.13z"/>
	</g>
	<g>
		<g>
			<g>
				<g>
					<g>
						<g>
							<g>
								<g>
									<path class="st5" d="M333.66,1285.21l261.21,0.25c1.7,0,3.08-1.38,3.08-3.08c0-1.7-1.38-3.08-3.08-3.08l-261.21-0.25
										c-19.16-0.02-34.77,14.63-34.79,32.66c-0.02,18.03,15.56,32.71,34.72,32.73l261.21,0.25c1.7,0,3.08-1.38,3.08-3.08
										c0-1.7-1.38-3.08-3.08-3.08l-261.21-0.25c-15.77-0.02-28.58-11.93-28.57-26.56
										C305.06,1297.08,317.89,1285.19,333.66,1285.21z"/>
								</g>
							</g>
						</g>
					</g>
				</g>
			</g>
			<g>
				<g>
					<path class="st5" d="M349.09,1280.87c-0.67,0-33.59,5.12-33.59,5.12l-11.57,12.79l-1.33,18.58l9.13,19.76l26.24,4.26h72.51
						h16.91l-18.54-14.14l-0.86-23.22l20.98-22.95C428.97,1281.05,349.76,1280.87,349.09,1280.87z"/>
				</g>
			</g>
			<g>
				<g>
					<g>
						<g>
							<g>
								<g>
									<path class="st3" d="M431.35,1283.74l-17.86,9.31l-5.48,15.41l-0.02,18.65l19.65,12.2l22.31,2.05l241.77-1.8
										c-10.52-23.94,2.08-55.57,2.08-55.57L431.35,1283.74z"/>
								</g>
							</g>
						</g>
					</g>
				</g>
			</g>
			<g>
				<g>
					<g>
						<g>
							<g>
								<g>
									<g>
										<path class="st5" d="M438.68,1285.21l261.21,0.25c1.7,0,3.08-1.38,3.08-3.08c0-1.7-1.38-3.08-3.08-3.08l-261.21-0.25
											c-19.16-0.02-34.77,14.63-34.79,32.66c-0.02,18.03,15.56,32.71,34.72,32.73l261.21,0.25c1.7,0,3.08-1.38,3.08-3.08
											c0-1.7-1.38-3.08-3.08-3.08l-261.21-0.25c-15.77-0.02-28.58-11.93-28.57-26.56
											C410.07,1297.08,422.91,1285.19,438.68,1285.21z"/>
									</g>
								</g>
							</g>
						</g>
					</g>
				</g>
			</g>
			<g>
				<g>
					<g>
						<g>
							<g>
								<g>
									<path class="st6" d="M690.23,1312.67c0.38,0,0.68-0.31,0.69-0.68c0-0.38-0.31-0.68-0.68-0.69l-128.19-0.12
										c-0.38,0-0.68,0.31-0.69,0.68c0,0.38,0.31,0.68,0.68,0.69L690.23,1312.67z"/>
								</g>
							</g>
						</g>
					</g>
				</g>
			</g>
			<g>
				<g>
					<g>
						<g>
							<g>
								<g>
									<path class="st6" d="M543.99,1312.53c0.38,0,0.68-0.31,0.69-0.68c0-0.38-0.31-0.68-0.68-0.69l-124.54-0.12
										c-0.38,0-0.68,0.31-0.69,0.68c0,0.38,0.31,0.68,0.68,0.69L543.99,1312.53z"/>
								</g>
							</g>
						</g>
					</g>
				</g>
			</g>
			<g>
				<g>
					<g>
						<g>
							<g>
								<g>
									<path class="st6" d="M486.68,1324.73c0.38,0,0.68-0.31,0.69-0.68c0-0.38-0.31-0.68-0.68-0.69l-63.9-0.06
										c-0.38,0-0.68,0.31-0.69,0.68c0,0.38,0.31,0.69,0.68,0.69L486.68,1324.73z"/>
								</g>
							</g>
						</g>
					</g>
				</g>
			</g>
			<g>
				<g>
					<g>
						<g>
							<g>
								<g>
									<path class="st6" d="M690.22,1324.93c0.38,0,0.68-0.31,0.69-0.68c0-0.38-0.31-0.68-0.68-0.69l-194.16-0.19
										c-0.38,0-0.68,0.31-0.69,0.68c0,0.38,0.31,0.68,0.68,0.69L690.22,1324.93z"/>
								</g>
							</g>
						</g>
					</g>
				</g>
			</g>
			<g>
				<g>
					<g>
						<g>
							<g>
								<g>
									<g>
										<path class="st7" d="M699.89,1284.77c-0.38,0-0.68,0.31-0.69,0.68c0,0.38,0.31,0.68,0.68,0.69c2.08,0,3.77-1.69,3.77-3.76
											c0-2.08-1.68-3.77-3.76-3.77l-261.21-0.25c-19.54-0.02-35.45,14.94-35.47,33.34c-0.02,18.4,15.87,33.39,35.41,33.41
											l261.21,0.25c2.08,0,3.77-1.69,3.77-3.76c0-2.08-1.68-3.77-3.76-3.77c-0.38,0-0.68,0.31-0.69,0.68
											c0,0.38,0.31,0.68,0.68,0.69c1.32,0,2.4,1.08,2.39,2.4c0,1.32-1.08,2.39-2.4,2.39l-261.21-0.25
											c-18.79-0.02-34.06-14.39-34.04-32.04c0.02-17.65,15.31-31.99,34.1-31.98l261.21,0.25c1.32,0,2.39,1.08,2.39,2.4
											C702.29,1283.7,701.21,1284.77,699.89,1284.77z"/>
									</g>
								</g>
							</g>
						</g>
					</g>
				</g>
			</g>
			<g>
				<g>
					<g>
						<g>
							<g>
								<g>
									<path class="st8" d="M617.97,1324.89l6.67,10.34c4.76-15.08-3.45-35.59-3.45-35.59l-25.56-0.02
										c9.89,1.9,14.97,35.6,14.97,35.6C613.4,1330.36,617.97,1324.89,617.97,1324.89z"/>
								</g>
							</g>
						</g>
					</g>
				</g>
			</g>
			<g>
				<g>
					<g>
						<g>
							<g>
								<g>
									<path class="st6" d="M690.24,1300.39c0.38,0,0.68-0.31,0.69-0.68c0-0.38-0.31-0.68-0.68-0.69l-267.43-0.26
										c-0.38,0-0.68,0.31-0.69,0.68c0,0.38,0.31,0.68,0.68,0.69L690.24,1300.39z"/>
								</g>
							</g>
						</g>
					</g>
				</g>
			</g>
			<g>
				<g>
					<rect x="332.41" y="1278.31" class="st9" width="108.1" height="1.5"/>
				</g>
			</g>
			<g>
				<g>
					<path class="st9" d="M298.13,1311.69c-0.01,0.26-0.09,6.39,2.96,13.44c2.82,6.52,8.97,15.05,22.21,18.61
						c0.19,0.06,4.72,1.44,10.3,1.45l106.91,0.1l0-1.5l-106.91-0.1c-5.34-0.01-9.82-1.37-9.89-1.39
						c-10.16-2.73-17.31-8.69-21.22-17.71c-2.94-6.76-2.86-12.81-2.86-12.87L298.13,1311.69z"/>
				</g>
			</g>
		</g>
		<g>
			<g>
				<g>
					<g>
						<g>
							<g>
								<g>
									<path class="st8" d="M681.47,1273.32l-261.21,0.25c-1.7,0-3.08,1.38-3.08,3.08c0,1.7,1.38,3.08,3.08,3.08l261.21-0.25
										c19.16-0.02,34.74-14.7,34.72-32.73c-0.02-18.03-15.62-32.68-34.79-32.66l-261.21,0.25c-1.7,0-3.08,1.38-3.08,3.08
										c0,1.7,1.38,3.08,3.08,3.08l261.21-0.25c15.77-0.02,28.61,11.87,28.62,26.5C710.06,1261.39,697.24,1273.31,681.47,1273.32z
										"/>
								</g>
							</g>
						</g>
					</g>
				</g>
			</g>
			<g>
				<g>
					<path class="st8" d="M587.7,1276.41h16.9h72.51l26.24-4.26l9.13-19.76l-1.33-18.58l-11.57-12.79c0,0-32.92-5.12-33.59-5.12
						s-79.88,0.18-79.88,0.18l20.98,22.95l-0.86,23.22L587.7,1276.41z"/>
				</g>
			</g>
			<g>
				<g>
					<g>
						<g>
							<g>
								<g>
									<path class="st3" d="M565.13,1276.41l22.31-2.05l19.65-12.2l-0.02-18.65l-5.48-15.41l-17.86-9.31l-262.46,0.25
										c0,0,12.61,31.63,2.08,55.57L565.13,1276.41z"/>
								</g>
							</g>
						</g>
					</g>
				</g>
			</g>
			<g>
				<g>
					<g>
						<g>
							<g>
								<g>
									<g>
										<path class="st8" d="M576.46,1273.32l-261.21,0.25c-1.7,0-3.08,1.38-3.08,3.08c0,1.7,1.38,3.08,3.08,3.08l261.21-0.25
											c19.16-0.02,34.74-14.7,34.72-32.73c-0.02-18.03-15.62-32.68-34.79-32.66l-261.21,0.25c-1.7,0-3.08,1.38-3.08,3.08
											c0,1.7,1.38,3.08,3.08,3.08l261.21-0.25c15.77-0.02,28.61,11.87,28.62,26.5C605.04,1261.39,592.22,1273.31,576.46,1273.32
											z"/>
									</g>
								</g>
							</g>
						</g>
					</g>
				</g>
			</g>
			<g>
				<g>
					<g>
						<g>
							<g>
								<g>
									<path class="st6" d="M453.04,1247.59c0.38,0,0.68-0.31,0.68-0.69c0-0.38-0.31-0.68-0.69-0.68l-128.19,0.12
										c-0.38,0-0.68,0.31-0.68,0.69c0,0.38,0.31,0.68,0.69,0.68L453.04,1247.59z"/>
								</g>
							</g>
						</g>
					</g>
				</g>
			</g>
			<g>
				<g>
					<g>
						<g>
							<g>
								<g>
									<path class="st6" d="M595.63,1247.46c0.38,0,0.68-0.31,0.68-0.69c0-0.38-0.31-0.68-0.69-0.68l-124.54,0.12
										c-0.38,0-0.68,0.31-0.68,0.69c0,0.38,0.31,0.68,0.69,0.68L595.63,1247.46z"/>
								</g>
							</g>
						</g>
					</g>
				</g>
			</g>
			<g>
				<g>
					<g>
						<g>
							<g>
								<g>
									<path class="st6" d="M592.3,1259.72c0.38,0,0.68-0.31,0.68-0.69c0-0.38-0.31-0.68-0.69-0.68l-63.9,0.06
										c-0.38,0-0.68,0.31-0.68,0.69c0,0.38,0.31,0.68,0.69,0.68L592.3,1259.72z"/>
								</g>
							</g>
						</g>
					</g>
				</g>
			</g>
			<g>
				<g>
					<g>
						<g>
							<g>
								<g>
									<path class="st6" d="M519.02,1259.79c0.38,0,0.68-0.31,0.68-0.69c0-0.38-0.31-0.68-0.69-0.68l-194.16,0.19
										c-0.38,0-0.68,0.31-0.68,0.69c0,0.38,0.31,0.68,0.69,0.68L519.02,1259.79z"/>
								</g>
							</g>
						</g>
					</g>
				</g>
			</g>
			<g>
				<g>
					<g>
						<g>
							<g>
								<g>
									<g>
										<path class="st7" d="M315.25,1274.26c0.38,0,0.68-0.31,0.68-0.69c0-0.38-0.31-0.68-0.69-0.68c-2.08,0-3.76,1.69-3.76,3.77
											c0,2.08,1.69,3.76,3.77,3.76l261.21-0.25c19.54-0.02,35.43-15.01,35.41-33.41c-0.02-18.4-15.93-33.36-35.47-33.34
											l-261.21,0.25c-2.08,0-3.76,1.69-3.76,3.77c0,2.08,1.69,3.76,3.77,3.76c0.38,0,0.68-0.31,0.68-0.69
											c0-0.38-0.31-0.68-0.69-0.68c-1.32,0-2.4-1.07-2.4-2.39c0-1.32,1.07-2.4,2.39-2.4l261.21-0.25
											c18.79-0.02,34.08,14.33,34.1,31.98c0.02,17.65-15.25,32.02-34.04,32.04l-261.21,0.25c-1.32,0-2.4-1.07-2.4-2.39
											C312.85,1275.33,313.92,1274.26,315.25,1274.26z"/>
									</g>
								</g>
							</g>
						</g>
					</g>
				</g>
			</g>
			<g>
				<g>
					<g>
						<g>
							<g>
								<g>
									<path class="st2" d="M404.49,1270.26c0,0,5.07-33.7,14.97-35.6l-25.56,0.02c0,0-8.21,20.5-3.45,35.58l6.67-10.34
										C397.12,1259.94,401.69,1265.41,404.49,1270.26z"/>
								</g>
							</g>
						</g>
					</g>
				</g>
			</g>
			<g>
				<g>
					<g>
						<g>
							<g>
								<g>
									<path class="st6" d="M592.27,1235.19c0.38,0,0.68-0.31,0.68-0.69c0-0.38-0.31-0.68-0.69-0.68l-267.43,0.26
										c-0.38,0-0.68,0.31-0.68,0.69c0,0.38,0.31,0.68,0.69,0.68L592.27,1235.19z"/>
								</g>
							</g>
						</g>
					</g>
				</g>
			</g>
			<g>
				<g>
					<rect x="574.57" y="1213.36" class="st9" width="108.1" height="1.5"/>
				</g>
			</g>
			<g>
				<g>
					<path class="st9" d="M691.37,1277.34c-0.07,0.02-4.55,1.38-9.89,1.39l-106.91,0.1l0,1.5l106.91-0.1
						c5.58-0.01,10.11-1.39,10.3-1.45c13.24-3.56,19.39-12.08,22.21-18.61c3.05-7.05,2.97-13.18,2.96-13.44l-1.5,0.03
						c0,0.06,0.08,6.11-2.86,12.87C708.67,1268.66,701.53,1274.61,691.37,1277.34z"/>
				</g>
			</g>
		</g>
		<g>
			<g>
				<g>
					<g>
						<g>
							<g>
								<g>
									<path class="st10" d="M324.98,1155.31l261.21,0.25c1.7,0,3.08-1.38,3.08-3.08c0-1.7-1.38-3.08-3.08-3.08l-261.21-0.25
										c-19.16-0.02-34.77,14.63-34.79,32.66c-0.02,18.03,15.56,32.71,34.72,32.73l261.21,0.25c1.7,0,3.08-1.38,3.08-3.08
										c0-1.7-1.38-3.08-3.08-3.08l-261.21-0.25c-15.77-0.02-28.58-11.93-28.57-26.56
										C296.38,1167.18,309.22,1155.29,324.98,1155.31z"/>
								</g>
							</g>
						</g>
					</g>
				</g>
			</g>
			<g>
				<g>
					<path class="st10" d="M340.41,1150.96c-0.67,0-33.59,5.12-33.59,5.12l-11.57,12.79l-1.33,18.58l9.13,19.76l26.24,4.26h72.51
						h16.91l-18.54-14.14l-0.86-23.22l20.98-22.95C420.29,1151.15,341.08,1150.96,340.41,1150.96z"/>
				</g>
			</g>
			<g>
				<g>
					<g>
						<g>
							<g>
								<g>
									<path class="st3" d="M422.67,1153.84l-17.86,9.31l-5.48,15.41l-0.02,18.65l19.65,12.2l22.31,2.05l241.77-1.8
										c-10.52-23.94,2.08-55.57,2.08-55.57L422.67,1153.84z"/>
								</g>
							</g>
						</g>
					</g>
				</g>
			</g>
			<g>
				<g>
					<g>
						<g>
							<g>
								<g>
									<g>
										<path class="st10" d="M430,1155.31l261.21,0.25c1.7,0,3.08-1.38,3.08-3.08c0-1.7-1.38-3.08-3.08-3.08l-261.21-0.25
											c-19.16-0.02-34.77,14.63-34.79,32.66c-0.02,18.03,15.56,32.71,34.72,32.73l261.21,0.25c1.7,0,3.08-1.38,3.08-3.08
											c0-1.7-1.38-3.08-3.08-3.08l-261.21-0.25c-15.77-0.02-28.58-11.93-28.57-26.56C401.4,1167.18,414.23,1155.29,430,1155.31z
											"/>
									</g>
								</g>
							</g>
						</g>
					</g>
				</g>
			</g>
			<g>
				<g>
					<g>
						<g>
							<g>
								<g>
									<path class="st6" d="M681.55,1182.76c0.38,0,0.68-0.31,0.69-0.68c0-0.38-0.31-0.68-0.68-0.69l-128.19-0.12
										c-0.38,0-0.68,0.31-0.69,0.68c0,0.38,0.31,0.68,0.68,0.69L681.55,1182.76z"/>
								</g>
							</g>
						</g>
					</g>
				</g>
			</g>
			<g>
				<g>
					<g>
						<g>
							<g>
								<g>
									<path class="st6" d="M535.31,1182.62c0.38,0,0.68-0.31,0.69-0.68c0-0.38-0.31-0.68-0.68-0.69l-124.54-0.12
										c-0.38,0-0.68,0.31-0.69,0.68c0,0.38,0.31,0.68,0.68,0.69L535.31,1182.62z"/>
								</g>
							</g>
						</g>
					</g>
				</g>
			</g>
			<g>
				<g>
					<g>
						<g>
							<g>
								<g>
									<path class="st6" d="M478.01,1194.83c0.38,0,0.68-0.31,0.69-0.68c0-0.38-0.31-0.68-0.68-0.69l-63.9-0.06
										c-0.38,0-0.68,0.31-0.69,0.68c0,0.38,0.31,0.68,0.68,0.69L478.01,1194.83z"/>
								</g>
							</g>
						</g>
					</g>
				</g>
			</g>
			<g>
				<g>
					<g>
						<g>
							<g>
								<g>
									<path class="st6" d="M681.54,1195.03c0.38,0,0.68-0.31,0.69-0.68c0-0.38-0.31-0.68-0.68-0.69l-194.16-0.19
										c-0.38,0-0.68,0.31-0.69,0.68c0,0.38,0.31,0.68,0.68,0.69L681.54,1195.03z"/>
								</g>
							</g>
						</g>
					</g>
				</g>
			</g>
			<g>
				<g>
					<g>
						<g>
							<g>
								<g>
									<g>
										<path class="st7" d="M691.21,1154.87c-0.38,0-0.68,0.31-0.69,0.68c0,0.38,0.31,0.68,0.68,0.69c2.08,0,3.77-1.69,3.77-3.76
											c0-2.08-1.68-3.77-3.76-3.77l-261.21-0.25c-19.54-0.02-35.45,14.94-35.47,33.34c-0.02,18.4,15.87,33.39,35.41,33.41
											l261.21,0.25c2.08,0,3.77-1.69,3.77-3.76c0-2.08-1.68-3.77-3.76-3.77c-0.38,0-0.68,0.31-0.69,0.68
											c0,0.38,0.31,0.68,0.68,0.69c1.32,0,2.4,1.08,2.39,2.4c0,1.32-1.08,2.39-2.4,2.39l-261.21-0.25
											c-18.79-0.02-34.06-14.39-34.04-32.04c0.02-17.65,15.31-31.99,34.1-31.98l261.21,0.25c1.32,0,2.39,1.08,2.39,2.4
											C693.61,1153.8,692.53,1154.87,691.21,1154.87z"/>
									</g>
								</g>
							</g>
						</g>
					</g>
				</g>
			</g>
			<g>
				<g>
					<g>
						<g>
							<g>
								<g>
									<path class="st11" d="M609.29,1194.99l6.67,10.34c4.76-15.08-3.45-35.59-3.45-35.59l-25.56-0.02
										c9.89,1.9,14.97,35.6,14.97,35.6C604.72,1200.46,609.29,1194.99,609.29,1194.99z"/>
								</g>
							</g>
						</g>
					</g>
				</g>
			</g>
			<g>
				<g>
					<g>
						<g>
							<g>
								<g>
									<path class="st6" d="M681.56,1170.49c0.38,0,0.68-0.31,0.69-0.68c0-0.38-0.31-0.69-0.68-0.69l-267.43-0.26
										c-0.38,0-0.68,0.31-0.69,0.68c0,0.38,0.31,0.68,0.68,0.69L681.56,1170.49z"/>
								</g>
							</g>
						</g>
					</g>
				</g>
			</g>
			<g>
				<g>
					<rect x="323.73" y="1148.4" class="st9" width="108.1" height="1.5"/>
				</g>
			</g>
			<g>
				<g>
					<path class="st9" d="M289.45,1181.79c-0.01,0.26-0.09,6.39,2.96,13.44c2.82,6.52,8.97,15.05,22.21,18.61
						c0.19,0.06,4.72,1.44,10.3,1.45l106.91,0.1l0-1.5l-106.91-0.1c-5.34-0.01-9.82-1.37-9.89-1.39
						c-10.16-2.73-17.31-8.69-21.22-17.71c-2.94-6.76-2.86-12.81-2.86-12.87L289.45,1181.79z"/>
				</g>
			</g>
		</g>
	</g>
	<g>
		<g>
			<rect x="274.51" y="1346.45" class="st3" width="463.37" height="107.75"/>
		</g>
		<g class="st12">
			<rect x="548.65" y="1346.45" class="st13" width="189.23" height="107.75"/>
		</g>
		<g class="st12">
			<rect x="274.51" y="1362.47" class="st13" width="228.69" height="2.07"/>
		</g>
		<g class="st12">
			<rect x="328.57" y="1381.76" class="st13" width="120.58" height="2.07"/>
		</g>
		<g class="st12">
			<rect x="274.51" y="1401.04" class="st13" width="228.69" height="2.07"/>
		</g>
		<g class="st12">
			<rect x="274.51" y="1420.32" class="st13" width="131.05" height="2.07"/>
		</g>
		<g class="st12">
			<rect x="274.51" y="1439.6" class="st13" width="228.69" height="2.07"/>
		</g>
	</g>
	<g>
		<polygon class="st3" points="1742.28,1610.09 1460.4,1438.66 1163.87,1438.66 1445.75,1610.09 		"/>
	</g>
	<g>
		<path class="st14" d="M1861.13,1440.66c67.72-24.78,80.9-192.86,77.59-272.14c-3.3-79.29-49.9-392.15-49.9-392.15
			c-84.24,11.56-88.42,19.92-88.42,19.92l-18.95,399.63l-105.71-84.13l-61.12,242.7
			C1614.62,1354.49,1793.41,1465.44,1861.13,1440.66z"/>
	</g>
	<g>
		<path class="st8" d="M1508.66,1419.76l41.54-99.95l104.06,94.15c0,0,82.59-219.38,110.67-259.03l-12.11-12.45
			c-32.42-33.32-173.26-191.91-238.74-220.19c-2.97-1.28-63.18-27.67-66.22-28.95c-138.59-58.58-284.18-36.03-345.29-19.51
			c-61.12,16.52-230.26,120.12-291.38,214.27c0,0,55.17,64.88,179.06,112.78l-90.62,218.88H1508.66z"/>
	</g>
	<g>
		<path class="st14" d="M1173.23,1459.09l61.12-85.89l-248.59-177.57c0,0-147.01-130.49-165.18-113.15c0,0-70.2,104.06-82.59,142.88
			c-12.39,38.82,52.57,88.6,105.42,112.22C876.28,1352.27,1173.23,1459.09,1173.23,1459.09z"/>
	</g>
	<g>
		<g>
			<g>
				<g>
					<g>
						<g>
							
								<rect x="1279.83" y="1148.72" transform="matrix(0.8967 -0.4426 0.4426 0.8967 -436.0291 706.629)" class="st2" width="32.46" height="277.72"/>
						</g>
					</g>
				</g>
			</g>
			<g>
				<g>
					<g>
						<g>
							
								<rect x="1289.82" y="1148.72" transform="matrix(0.8967 -0.4426 0.4426 0.8967 -436.0294 706.6295)" class="st15" width="12.48" height="277.72"/>
						</g>
					</g>
				</g>
			</g>
			<g>
				<g>
					<g>
						<g>
							
								<rect x="1229.43" y="1181.37" transform="matrix(0.8967 -0.4426 0.4426 0.8967 -396.0325 673.7684)" class="st8" width="32.46" height="8.17"/>
						</g>
					</g>
				</g>
			</g>
			<g>
				<g>
					<g>
						<g>
							<path class="st5" d="M1258.4,1174.61l-8.64-17.5c-3.97-8.04-13.7-11.34-21.74-7.37h0c-8.04,3.97-11.34,13.7-7.37,21.74
								l8.64,17.5L1258.4,1174.61z"/>
						</g>
					</g>
				</g>
			</g>
			<g>
				<g>
					<g>
						<g>
							<path class="st16" d="M1345.28,1412.68c-2.47,1.22-3.51,4.18-2.31,6.61l32.73,29.65l-3.63-44.02
								c-1.2-2.43-4.18-3.41-6.65-2.19c-2.47,1.22-3.51,4.18-2.31,6.61c-1.2-2.43-4.68-3.16-7.77-1.64
								c-3.09,1.53-4.63,4.73-3.43,7.16C1350.73,1412.44,1347.75,1411.46,1345.28,1412.68z"/>
						</g>
					</g>
				</g>
			</g>
			<g>
				<g>
					<g>
						<g>
							<path class="st2" d="M1351.93,1414.87l-2.56-5.19l-8.96,4.42l2.56,5.19C1342.97,1419.29,1346.13,1412.99,1351.93,1414.87z"/>
						</g>
					</g>
				</g>
			</g>
			<g>
				<g>
					<g>
						<g>
							<path class="st2" d="M1372.08,1404.92l-2.56-5.19l-8.96,4.42l2.56,5.19C1363.12,1409.34,1366.28,1403.04,1372.08,1404.92z"/>
						</g>
					</g>
				</g>
			</g>
			<g>
				<g>
					<g>
						<g>
							<path class="st15" d="M1363.12,1409.34l-2.79-5.66l-11.19,5.53l2.79,5.66C1351.93,1414.87,1354.37,1407.59,1363.12,1409.34z"
								/>
						</g>
					</g>
				</g>
			</g>
			<g>
				<g>
					<g>
						<g>
							<path class="st17" d="M1364.83,1439.09l10.87,9.85l-1.21-14.62C1367.55,1433.44,1364.83,1439.09,1364.83,1439.09z"/>
						</g>
					</g>
				</g>
			</g>
		</g>
		<g>
			<g>
				<g>
					<g>
						<path d="M1355.29,1431.19l21.08,19.1l-3.74-45.41l-0.01-0.1l-122.37-247.91c-0.08-0.15-1.92-3.76-5.6-6.53
							c-3.43-2.58-9.14-4.86-16.87-1.09l0.48,0.99c5.79-2.82,11.07-2.5,15.69,0.96c3.49,2.61,5.29,6.13,5.31,6.16l122.27,247.72
							l3.5,42.52l-19.01-17.22L1355.29,1431.19z"/>
					</g>
				</g>
			</g>
		</g>
		<g>
			<g>
				<g>
					<g>
						
							<rect x="1282.8" y="1218.47" transform="matrix(0.8964 -0.4432 0.4432 0.8964 -442.489 703.1844)" width="1.11" height="159.82"/>
					</g>
				</g>
			</g>
		</g>
		<g>
			<g>
				<g>
					<g>
						
							<rect x="1246.74" y="1206.73" transform="matrix(0.0638 -0.998 0.998 0.0638 -31.9109 2380.5405)" width="12.3" height="1.11"/>
					</g>
				</g>
			</g>
		</g>
		<g>
			<g>
				<g>
					<g>
						<rect x="1227.4" y="1166.9" transform="matrix(0.0638 -0.998 0.998 0.0638 -12.7201 2321.3447)" width="6.99" height="1.11"/>
					</g>
				</g>
			</g>
		</g>
		<g>
			<g>
				<g>
					<g>
						
							<rect x="1223.94" y="1161.87" transform="matrix(0.0639 -0.998 0.998 0.0639 -11.0016 2313.1172)" width="6.99" height="1.11"/>
					</g>
				</g>
			</g>
		</g>
		<g>
			<g>
				<g>
					<g>
						
							<rect x="1242.08" y="1202.19" transform="matrix(0.0639 -0.998 0.998 0.0639 -31.767 2371.6252)" width="12.3" height="1.11"/>
					</g>
				</g>
			</g>
		</g>
		<g>
			<g>
				<g>
					<g>
						
							<rect x="1227.6" y="1181.21" transform="matrix(0.8975 -0.441 0.441 0.8975 -393.6665 669.6288)" width="32.46" height="1.11"/>
					</g>
				</g>
			</g>
		</g>
	</g>
	<g>
		<g>
			<g>
				<g>
					<path class="st14" d="M1403.6,1388.08c-5.94-9.67-27.94-24.42-32.38-25.65c-4.46-1.21-67.2-4.38-67.2-4.38
						s-76.83,10.44-81.06,10.05l-52.52,89.98c40.32,21.94,173.27-3.29,179.16-4.17c5.44-0.82,15.67,4.14,22.07,7.64
						c5.33,2.92,12.16,2.01,16.11-2.6c2.3-2.68,3.6-6.46,1.87-11.7c0,0,16.29-5.07,9.75-18.6c0,0,17.98-5.38,2.53-23.86
						C1401.93,1404.79,1409.54,1397.73,1403.6,1388.08z"/>
				</g>
			</g>
		</g>
		<g>
			<g>
				<g>
					<g>
						<g>
							<g>
								<path class="st18" d="M1369.09,1385.5c4.39,1.71,22.85,14.15,31.99,20.48c0.67,0.46,1.59,0.31,2.05-0.35
									c0.47-0.66,0.29-1.57-0.37-2.03c-1.09-0.76-26.8-18.55-32.61-20.81c-5.86-2.28-21.34-3.41-22-3.46
									c-0.81-0.06-1.51,0.54-1.57,1.35c-0.03,0.42,0.13,0.81,0.4,1.1c0.25,0.26,0.59,0.43,0.97,0.46
									C1348.12,1382.24,1363.65,1383.38,1369.09,1385.5z"/>
							</g>
						</g>
					</g>
				</g>
			</g>
		</g>
		<g>
			<g>
				<g>
					<g>
						<g>
							<g>
								<path class="st18" d="M1366.83,1413.51c7.12,2.2,31.6,16.25,31.85,16.39c0.71,0.41,1.61,0.17,2.01-0.52
									c0.41-0.69,0.16-1.58-0.55-1.99c-1.02-0.59-25.02-14.36-32.45-16.66c-7.46-2.31-19.77-2.94-20.29-2.97
									c-0.81-0.04-1.5,0.58-1.54,1.38c-0.02,0.41,0.14,0.79,0.4,1.07c0.25,0.27,0.61,0.44,1.01,0.46
									C1347.4,1410.68,1359.73,1411.32,1366.83,1413.51z"/>
							</g>
						</g>
					</g>
				</g>
			</g>
		</g>
		<g>
			<g>
				<g>
					<g>
						<g>
							<g>
								<path class="st18" d="M1360.59,1433.65c7.28,2,28.09,14.69,28.3,14.82c0.69,0.42,1.6,0.22,2.03-0.47
									c0.42-0.68,0.2-1.58-0.49-2.01c-0.87-0.53-21.38-13.04-29.07-15.15c-7.67-2.11-16.05-2.21-16.41-2.21
									c-0.81-0.01-1.48,0.64-1.48,1.44c0,0.39,0.15,0.74,0.41,1.01c0.27,0.28,0.65,0.46,1.07,0.46
									C1345.03,1431.55,1353.3,1431.65,1360.59,1433.65z"/>
							</g>
						</g>
					</g>
				</g>
			</g>
		</g>
	</g>
	<g>
		<path class="st19" d="M1753.89,1173.98l6.96,5.54c3.05-11.62,4.09-24.59,4.09-24.59
			C1761.83,1159.21,1753.89,1173.98,1753.89,1173.98z"/>
	</g>
	<g>
		<path class="st19" d="M1665.86,1383.61l-11.59,30.35c10.93-4.97,24.98-23.35,24.98-23.35L1665.86,1383.61z"/>
	</g>
	<g>
		<path class="st8" d="M1090.81,1069.56l-161.94-71.97l-117.67,90.51c55.45,97.3,188.34,117.38,188.34,117.38L1090.81,1069.56z"/>
	</g>
	<g>
		<path class="st9" d="M1766.8,1153.26c-1.45-1.62-145.62-162.76-201.88-200.42l-2.78,4.15c55.73,37.31,199.48,197.98,200.93,199.6
			L1766.8,1153.26z"/>
	</g>
	<g>
		
			<rect x="1462.23" y="1298.8" transform="matrix(0.3795 -0.9252 0.9252 0.3795 -237.8067 2247.9927)" class="st9" width="189.79" height="5"/>
	</g>
	<g>
		
			<rect x="1599.74" y="1296.71" transform="matrix(0.6711 -0.7414 0.7414 0.6711 -486.3759 1637.4865)" class="st9" width="5" height="140.33"/>
	</g>
	<g>
		<path class="st9" d="M881.21,1014.4c40.52-38.24,106.94-91.41,193.3-127.54c86.2-36.06,180.23-33.31,243.93-24.65
			c69.14,9.4,118.49,27.6,118.98,27.78l1.75-4.69c-0.49-0.18-50.27-18.55-119.93-28.03c-40.92-5.57-80.64-7.04-118.03-4.38
			c-46.8,3.34-90.07,13.21-128.63,29.35c-87.11,36.44-154.07,90.05-194.91,128.61c-44.26,41.79-68.28,75.46-68.52,75.79l-0.85,1.2
			l0.63,1.32c22.62,47.45,73.18,77.23,111.61,93.85c41.47,17.94,78.16,24.85,78.53,24.91l1.38,0.26l136.07-151.59l-3.72-3.34
			l-134.18,149.49c-6.98-1.42-39.7-8.57-76.19-24.36c-37.25-16.12-86.09-44.78-108.34-90.03
			C818.74,1082.05,841.92,1051.47,881.21,1014.4z"/>
	</g>
	<g>
		<g>
			<g>
				<g>
					<g>
						<g>
							<g>
								<g>
									<g>
										<g>
											<g>
												<path class="st14" d="M1449.93,1009.18c25.81,3.59,50.42-12.11,58.69-36.81l22.25-66.47
													c43.99,13.75,64.47-34.26,64.47-34.26l69.81-146.43l-151.52-116.39l-81.91,158.02l-18.32,42.13
													c0,0-51.98,78.73-56.47,98.25c-4.49,19.52,4.17,66.98,51.25,89.42C1423.02,1003.72,1437.32,1007.42,1449.93,1009.18z"/>
											</g>
										</g>
									</g>
								</g>
							</g>
						</g>
					</g>
				</g>
			</g>
		</g>
	</g>
	<g>
		<g>
			<g>
				<g>
					<g>
						<g>
							<g>
								<g>
									<g>
										<g>
											<g>
												<path class="st18" d="M1530.88,905.89c0,0-69.93-17.6-76.43-85.51c0,0-34.8,80.11,60.02,134.54L1530.88,905.89z"/>
											</g>
										</g>
									</g>
								</g>
							</g>
						</g>
					</g>
				</g>
			</g>
		</g>
	</g>
	<g>
		<g>
			<g>
				<g>
					<g>
						<g>
							<g>
								<g>
									<g>
										<g>
											<g>
												<path d="M1523.56,741.21c1.59-0.17,39-3.94,45.11,26.53c0.24,1.18,1.38,1.94,2.56,1.7c1.18-0.24,1.94-1.38,1.7-2.56
													c-6.89-34.39-49.42-30.04-49.85-29.99c-1.19,0.13-2.05,1.21-1.92,2.4c0.06,0.58,0.35,1.08,0.77,1.43
													C1522.36,741.08,1522.95,741.27,1523.56,741.21z"/>
											</g>
										</g>
									</g>
								</g>
							</g>
						</g>
					</g>
				</g>
			</g>
		</g>
	</g>
	<g>
		<g>
			<g>
				<g>
					<g>
						<g>
							<g>
								<g>
									<g>
										<path d="M1527.96,645.12c-1.32-17.75-70.85,49.9-70.85,49.9l38.13,28.99l3.87,11.57
											C1499.11,735.59,1529.28,662.88,1527.96,645.12z"/>
									</g>
								</g>
							</g>
						</g>
					</g>
				</g>
			</g>
		</g>
	</g>
	<g>
		<g>
			<g>
				<g>
					<g>
						<g>
							<g>
								<g>
									<g>
										<g>
											<g>
												<path d="M1599.89,784.28c0.46,0.22,0.99,0.28,1.51,0.13c0.24-0.07,23.84-6.4,29.32,5.96c0.49,1.1,1.77,1.6,2.87,1.11
													c1.1-0.49,1.59-1.77,1.11-2.87c-6.99-15.78-33.33-8.7-34.45-8.39c-1.16,0.32-1.83,1.52-1.51,2.67
													C1598.9,783.53,1599.34,784.02,1599.89,784.28z"/>
											</g>
										</g>
									</g>
								</g>
							</g>
						</g>
					</g>
				</g>
			</g>
		</g>
	</g>
	<g>
		<g>
			<g>
				<g>
					<g>
						<g>
							<g>
								<g>
									<g>
										<g>
											<g>
												<path d="M1552.57,776.66c1.55-3.25,0.17-7.14-3.08-8.69c-3.25-1.55-7.14-0.17-8.69,3.08c-1.55,3.25-0.17,7.14,3.08,8.69
													C1547.13,781.29,1551.02,779.91,1552.57,776.66z"/>
											</g>
										</g>
									</g>
								</g>
							</g>
						</g>
					</g>
				</g>
			</g>
		</g>
	</g>
	<g>
		<g>
			<g>
				<g>
					<g>
						<g>
							<g>
								<g>
									<g>
										<g>
											<g>
												<path d="M1616.13,798.6c1.55-3.25,0.17-7.14-3.08-8.69c-3.25-1.55-7.14-0.17-8.69,3.08c-1.55,3.25-0.17,7.14,3.08,8.69
													C1610.69,803.23,1614.58,801.85,1616.13,798.6z"/>
											</g>
										</g>
									</g>
								</g>
							</g>
						</g>
					</g>
				</g>
			</g>
		</g>
	</g>
	<g>
		<g>
			<g>
				<g>
					<g>
						<g>
							<g>
								<g>
									<g>
										<g>
											<g>
												<path class="st14" d="M1503.15,749.45c9.29-19.5,1.02-42.84-18.47-52.14c-19.5-9.3-42.84-1.02-52.14,18.47
													c-9.3,19.5-1.02,42.84,18.47,52.14C1470.52,777.22,1493.86,768.95,1503.15,749.45z"/>
											</g>
										</g>
									</g>
								</g>
							</g>
						</g>
					</g>
				</g>
			</g>
		</g>
	</g>
	<g>
		<g>
			<g>
				<g>
					<g>
						<g>
							<g>
								<g>
									<g>
										<g>
											<g>
												<path class="st18" d="M1457,718.18c-6.86,0.76-12.06,6.05-13.26,13.48c-1.01,6.28,1.26,14.12,8.59,17.62
													c0.07,0.03,0.14,0.06,0.21,0.1c0.55,0.25,1.19,0.01,1.44-0.53c0.25-0.54,0.02-1.18-0.52-1.43
													c-0.07-0.04-0.14-0.06-0.2-0.09c-6.74-3.21-8.19-10.24-7.37-15.31c0.79-4.88,4.23-10.87,11.35-11.66
													c12.86-1.42,17.36,10.74,17.55,11.26l1.31,3.67l0.78-3.82c1.38-6.82,0.41-12.59-2.88-17.16
													c-5.7-7.91-16.23-9.3-16.67-9.36c-0.59-0.07-1.14,0.35-1.21,0.94c-0.07,0.6,0.35,1.14,0.94,1.21
													c0.1,0.01,10.06,1.34,15.19,8.48c2.37,3.3,3.37,7.36,2.98,12.09C1472.73,723.54,1467.13,717.05,1457,718.18z"/>
											</g>
										</g>
									</g>
								</g>
							</g>
						</g>
					</g>
				</g>
			</g>
		</g>
	</g>
	<g>
		<g>
			<g>
				<g>
					<g>
						<g>
							<g>
								<g>
									<g>
										<g>
											<g>
												<path class="st18" d="M1552.94,824.35l24.55,3.1l16.4-50.94c0.18-0.57-0.12-1.19-0.7-1.37
													c-0.57-0.19-1.18,0.13-1.37,0.7l-15.85,49.23l-22.76-2.87c-0.59-0.07-1.14,0.35-1.21,0.94
													c-0.06,0.48,0.2,0.92,0.61,1.12C1552.71,824.3,1552.83,824.33,1552.94,824.35z"/>
											</g>
										</g>
									</g>
								</g>
							</g>
						</g>
					</g>
				</g>
			</g>
		</g>
	</g>
	<g>
		<g>
			<g>
				<g>
					<g>
						<g>
							<g>
								<g>
									<g>
										<path d="M1695.2,621.96c-8.53-19.79-150.71-32.54-183.97-16.95c-33.26,15.59-54.12,90.02-54.12,90.02
											c48.87-29.49,95.75-21.87,95.75-21.87c52.63,49.8,165.68,81.23,175.21,32.99c9.52-48.25-46.39-55.81-46.39-55.81
											S1703.73,641.75,1695.2,621.96z"/>
									</g>
								</g>
							</g>
						</g>
					</g>
				</g>
			</g>
		</g>
	</g>
	<g>
		<path class="st18" d="M1518.43,856.58c12.04,1.86,19.42-0.99,25.17,4.79c0.25,0.26,0.52,0.51,0.77,0.73
			c5.39,4.69,9.73,0.87,13.6-6.56c0,0,1.16-3.15,0.76-6.98c-0.11-1.05-0.33-2.13-0.73-3.23c-0.69-1.91-1.9-3.83-3.9-5.49
			c-3.73-3.07-11.19-4.25-18.62-3.99c-0.68,0.03-1.37,0.06-2.05,0.12c-6.59,0.45-12.86,2.02-16.19,4.36
			c-6.5,4.59-9.96,12.24-2.53,15.27C1515.74,856.02,1516.97,856.35,1518.43,856.58z"/>
	</g>
	<g>
		<path class="st3" d="M1558.72,848.55c-0.11-1.05-0.33-2.13-0.73-3.23c-0.69-1.91-1.9-3.83-3.9-5.49
			c-3.73-3.07-11.19-4.25-18.62-3.99c-0.68,0.03-1.37,0.06-2.05,0.12c-0.16,1.86-0.07,3.29-0.07,3.29
			c14.1,6.36,22.54,10.65,22.54,10.65C1556.95,849.65,1557.91,849.14,1558.72,848.55z"/>
	</g>
	<g>
		<g>
			<path class="st14" d="M1650.3,675.25c0.36,3.7,2.62,6.95,5.81,8.85c5.9,3.52,18.87,11.21,32.63,19.06l-0.01-0.01
				c0,0,14.79,7.16,38.55,37.77c22.05,28.4,52.03,49.56,86.22,60.42l24.02,66.92c0,0,57.6-48.93,52.05-86.9
				c-5.56-37.97-70.37-88.91-70.37-88.91s-70.36-56.48-81.38-60.79c-27.19-10.62-31.14,1.68-31.14,1.68
				c-35.28-3.5-18.02,16.48-18.02,16.48c-31.34-5.91-18.72,16.05-18.72,16.05C1652.78,664.43,1649.8,670.19,1650.3,675.25z"/>
		</g>
		<g>
			<g>
				<g>
					<g>
						<g>
							<g>
								<g>
									<g>
										<g>
											<g>
												<g>
													<g>
														<g>
															<path class="st18" d="M1700.44,680.21c0.81,0.46,1.83,0.18,2.29-0.63c0.37-0.65,0.26-1.44-0.22-1.96
																c-0.12-0.13-0.25-0.24-0.41-0.33c-11.61-6.61-30.86-12.77-31.67-13.03c-0.88-0.28-1.83,0.21-2.11,1.09
																c-0.28,0.88,0.21,1.83,1.09,2.11C1669.61,667.53,1689.14,673.78,1700.44,680.21z"/>
														</g>
													</g>
												</g>
											</g>
										</g>
									</g>
								</g>
							</g>
						</g>
					</g>
				</g>
			</g>
			<g>
				<g>
					<g>
						<g>
							<g>
								<g>
									<g>
										<g>
											<g>
												<g>
													<g>
														<g>
															<path class="st18" d="M1715.96,665.74c0.74,0.56,1.79,0.41,2.35-0.33c0.5-0.66,0.44-1.56-0.1-2.14
																c-0.07-0.07-0.15-0.14-0.23-0.21c-13.11-9.89-28.21-14.64-28.84-14.84c-0.88-0.28-1.83,0.22-2.1,1.11
																c-0.27,0.88,0.22,1.82,1.11,2.1C1688.3,651.47,1703.33,656.21,1715.96,665.74z"/>
														</g>
													</g>
												</g>
											</g>
										</g>
									</g>
								</g>
							</g>
						</g>
					</g>
				</g>
			</g>
			<g>
				<g>
					<g>
						<g>
							<g>
								<g>
									<g>
										<g>
											<g>
												<g>
													<g>
														<g>
															<path class="st18" d="M1731.38,646.65c0.76,0.54,1.81,0.36,2.34-0.4c0.47-0.66,0.39-1.53-0.13-2.1
																c-0.08-0.09-0.17-0.17-0.27-0.24c-11.63-8.26-25.64-12.03-26.23-12.19c-0.9-0.24-1.82,0.3-2.05,1.19
																c-0.24,0.9,0.29,1.82,1.19,2.05C1706.37,635.01,1720.24,638.74,1731.38,646.65z"/>
														</g>
													</g>
												</g>
											</g>
										</g>
									</g>
								</g>
							</g>
						</g>
					</g>
				</g>
			</g>
		</g>
	</g>
	<g>
		
			<rect x="1790.3" y="1193.76" transform="matrix(0.9448 -0.3276 0.3276 0.9448 -304.9197 655.921)" class="st18" width="8" height="78.4"/>
	</g>
	<g>
		<g>
			<path class="st9" d="M1455.63,1599.53c6.98-9.43,12.64-7.21,18.1-5.07c5.85,2.29,11.37,4.45,16.9-8.53
				c2.96-0.53,6.95,1.4,10.82,3.26c4.71,2.27,9.59,4.61,13.33,3.07c1.97-0.81,3.41-2.58,4.39-5.34c1.52-2.96,3.38-4.72,5.69-5.4
				c4.74-1.4,10.74,2.05,16.55,5.39c6.13,3.52,11.92,6.85,16.55,5.02c2.64-1.04,4.57-3.65,5.91-7.97
				c5.64-6.97,14.32-1.43,22.72,3.93c6.9,4.41,13.41,8.56,18.56,6.43c3.22-1.33,5.48-5.01,6.9-11.23c5.79-2.7,11.45-0.23,17.43,2.39
				c5.88,2.58,11.97,5.24,18.04,2.31l0.21-0.1l0.06-0.22c1.33-4.99,2.88-7.77,4.75-8.52c2.05-0.82,4.62,0.76,7.58,2.59
				c3.72,2.29,8.36,5.15,13.87,4.31c0.27-0.04,0.46-0.3,0.42-0.57c-0.04-0.27-0.3-0.46-0.57-0.42c-5.16,0.78-9.43-1.85-13.2-4.18
				c-3.2-1.97-5.96-3.68-8.48-2.67c-2.18,0.87-3.87,3.72-5.29,8.96c-5.59,2.57-11.13,0.14-17-2.43c-6-2.63-12.2-5.35-18.49-2.27
				l-0.22,0.11l-0.05,0.24c-1.34,6.03-3.42,9.54-6.36,10.76c-4.67,1.93-10.97-2.09-17.64-6.35c-8.8-5.62-17.89-11.42-24.1-3.64
				l-0.09,0.17c-1.24,4.07-2.99,6.49-5.35,7.43c-4.18,1.65-9.77-1.56-15.68-4.96c-5.99-3.44-12.18-7-17.33-5.48
				c-2.58,0.76-4.64,2.7-6.32,5.97c-0.9,2.54-2.16,4.12-3.85,4.82c-3.33,1.37-8-0.88-12.51-3.05c-4.32-2.08-8.4-4.05-11.73-3.28
				l-0.25,0.06l-0.1,0.24c-5.18,12.35-10.06,10.44-15.71,8.23c-5.55-2.17-11.84-4.63-19.27,5.41c-0.16,0.22-0.12,0.54,0.1,0.7
				c0.09,0.07,0.19,0.1,0.3,0.1C1455.38,1599.73,1455.53,1599.66,1455.63,1599.53z"/>
		</g>
	</g>
	<g>
		<g>
			<path class="st9" d="M1585.36,1549.73c2.3-1.81,6.35-0.77,10.26,0.23c3.52,0.9,7.17,1.83,9.86,0.82c0.26-0.1,0.39-0.39,0.29-0.64
				c-0.1-0.26-0.39-0.39-0.64-0.29c-2.4,0.9-5.89,0.01-9.26-0.85c-4.15-1.06-8.44-2.16-11.13-0.05c-1.74,1.36-2.6,3.88-2.62,7.69
				c-3.92,0.3-7.51-1.34-10.7-2.79c-3.41-1.56-6.64-3.03-9.65-1.85c-2.37,0.93-4.31,3.33-6.1,7.55c-4.53,3.63-11.51-0.82-14.25-2.85
				c-8.55-8.96-14.57-4.21-20.4,0.39c-5.7,4.49-11.08,8.73-19.18,2.12c-5.16-3.62-9.02-5-12.15-4.32c-3.57,0.77-5.52,4.05-7.58,7.53
				c-2.53,4.27-5.15,8.69-11.05,8.94c-22.95-8.77-29.68-2.74-35.09,2.12c-5.04,4.52-9.02,8.09-24.23-0.91
				c-0.24-0.14-0.54-0.06-0.68,0.18c-0.14,0.24-0.06,0.54,0.18,0.69c7.06,4.18,11.86,5.7,15.46,5.7c4.48,0,7.11-2.36,9.95-4.91
				c5.49-4.92,11.71-10.49,34.16-1.89l0.09,0.04l0.1,0c6.51-0.22,9.42-5.12,11.98-9.43c1.95-3.28,3.79-6.39,6.93-7.06
				c2.81-0.6,6.52,0.76,11.34,4.14c8.7,7.1,14.92,2.2,20.4-2.13c5.73-4.52,11.14-8.78,19.12-0.43c3.01,2.25,10.57,7.02,15.65,2.8
				l0.09-0.08l0.05-0.11c1.67-3.97,3.5-6.3,5.59-7.12c2.62-1.03,5.52,0.3,8.87,1.83c3.42,1.56,7.3,3.32,11.67,2.83l0.45-0.05l0-0.45
				C1583.08,1553.35,1583.81,1550.94,1585.36,1549.73z"/>
		</g>
	</g>
	<g>
		<g>
			<path class="st9" d="M1574.39,1526.98c-2.41,1.76-8.11-0.45-14.15-2.79c-7.43-2.88-15.84-6.15-21.29-3.36
				c-2.32,1.18-3.94,3.4-4.82,6.6c-6.47,3.96-14.3,1.44-21.86-0.99c-6.96-2.24-13.54-4.35-18.72-1.38c-3.6,2.07-6.1,6.41-7.63,13.27
				c-5.67,4.52-12.78,2.52-20.3,0.4c-10.16-2.87-20.66-5.83-26.75,9.08c-5.15,3.83-13.48,1.56-21.54-0.64
				c-7.29-1.99-14.18-3.87-18.42-1.14c-2,1.28-3.22,3.43-3.74,6.58c-0.05,0.27,0.14,0.53,0.41,0.58c0.03,0,0.06,0.01,0.08,0.01
				c0.24,0,0.45-0.17,0.49-0.42c0.47-2.85,1.55-4.78,3.29-5.9c3.87-2.48,10.55-0.66,17.62,1.27c8.35,2.28,16.99,4.63,22.52,0.39
				l0.11-0.08l0.05-0.13c5.75-14.22,15.39-11.5,25.6-8.62c7.5,2.11,15.25,4.3,21.34-0.69l0.13-0.11l0.04-0.17
				c1.47-6.67,3.82-10.85,7.19-12.79c4.8-2.75,11.17-0.71,17.92,1.46c7.85,2.53,15.97,5.13,22.87,0.78l0.17-0.11l0.05-0.19
				c0.8-3.05,2.23-5.07,4.36-6.16c5.04-2.58,13.24,0.6,20.47,3.4c6.57,2.55,12.25,4.75,15.1,2.66c1.33-0.97,1.89-2.74,1.72-5.4
				c-0.02-0.28-0.26-0.49-0.53-0.47c-0.28,0.02-0.48,0.25-0.47,0.53C1575.84,1524.75,1575.42,1526.23,1574.39,1526.98z"/>
		</g>
	</g>
	<g>
		<g>
			<path class="st9" d="M1372.89,1531.41c10.71-9.85,15.11-8.15,20.21-6.18c6.99,2.7,14.91,5.76,39.43-16.58
				c2.79,0.49,5.71,1.29,8.53,2.07c10.6,2.91,21.55,5.92,28.62-6.22c4.64-4.67,9.04-2.55,13.7-0.31c4.22,2.03,8.58,4.13,13.01,0.77
				l0.1-0.1c3.68-4.91,8.78-4.32,14.18-3.71c4.85,0.55,9.86,1.13,13.41-2.87c0.18-0.21,0.16-0.52-0.04-0.71
				c-0.21-0.18-0.52-0.17-0.71,0.04c-3.2,3.61-7.74,3.09-12.55,2.54c-5.42-0.62-11.03-1.26-15.05,4.04
				c-3.93,2.94-7.81,1.07-11.92-0.91c-4.79-2.3-9.74-4.68-14.89,0.56l-0.08,0.1c-6.69,11.53-16.81,8.75-27.52,5.81
				c-2.93-0.8-5.96-1.64-8.87-2.13l-0.24-0.04l-0.18,0.17c-24.21,22.1-31.84,19.15-38.58,16.55c-5.18-2-10.08-3.89-21.25,6.38
				c-0.2,0.19-0.22,0.5-0.03,0.71c0.1,0.11,0.23,0.16,0.37,0.16C1372.68,1531.54,1372.8,1531.5,1372.89,1531.41z"/>
		</g>
	</g>
	<g>
		<g>
			<path class="st9" d="M1350.33,1521.6c0.27,0,0.49-0.22,0.5-0.49c0.11-5.96,1.43-9.91,4.02-12.07c3.77-3.15,9.76-2.19,16.1-1.17
				c8.71,1.4,17.72,2.85,21.3-6.81c6.75-5.93,12.02-4.35,17.11-2.82c6.39,1.91,12.43,3.72,19.89-9.54
				c5.11-1.29,10.41,0.4,15.54,2.03c5.64,1.8,11.48,3.65,16.92,1.39l0.12-0.05l0.08-0.1c5.8-7.52,13.13-7.55,20.89-7.59
				c4.26-0.02,8.66-0.04,12.76-1.41c0.26-0.09,0.4-0.37,0.32-0.63c-0.09-0.26-0.37-0.4-0.63-0.32c-3.95,1.32-8.27,1.34-12.45,1.36
				c-7.62,0.04-15.5,0.07-21.59,7.87c-5.07,2.05-10.43,0.34-16.11-1.47c-5.33-1.7-10.85-3.45-16.3-1.99l-0.2,0.05l-0.1,0.19
				c-7.12,12.76-12.55,11.14-18.84,9.26c-5.13-1.53-10.94-3.27-18.15,3.12l-0.1,0.08l-0.04,0.12c-3.27,9.01-11.51,7.68-20.25,6.28
				c-6.28-1.01-12.77-2.05-16.9,1.39c-2.83,2.36-4.26,6.55-4.38,12.82C1349.83,1521.37,1350.05,1521.59,1350.33,1521.6
				C1350.33,1521.6,1350.33,1521.6,1350.33,1521.6z"/>
		</g>
	</g>
	<g>
		<g>
			<path class="st9" d="M1323.7,1494.28c12.29-14.36,24.6-12.74,36.5-11.17c12.6,1.66,25.63,3.38,38.35-13.75
				c4.04,0.26,7.78,1.47,11.39,2.64c8.25,2.67,16.04,5.2,25.15-4.38c4.08-3.42,9-2.1,13.77-0.83c5.6,1.5,10.9,2.91,13.3-4.31
				c1.34-1.88,3.98-2.74,6.17-2.02c0.26,0.09,0.55-0.06,0.63-0.32c0.09-0.26-0.06-0.55-0.32-0.63c-2.61-0.87-5.78,0.19-7.35,2.45
				l-0.06,0.13c-2.1,6.41-6.52,5.23-12.12,3.73c-4.78-1.28-10.19-2.72-14.71,1.07c-8.72,9.16-15.88,6.84-24.16,4.16
				c-3.76-1.22-7.64-2.48-11.91-2.71l-0.27-0.01l-0.16,0.22c-12.42,16.89-24.64,15.28-37.58,13.57
				c-12.16-1.61-24.74-3.26-37.39,11.51c-0.18,0.21-0.16,0.53,0.05,0.71c0.09,0.08,0.21,0.12,0.33,0.12
				C1323.46,1494.46,1323.6,1494.4,1323.7,1494.28z"/>
		</g>
	</g>
	<g>
		<g>
			<g>
				<g>
					<g>
						<g>
							<g>
								<g>
									<path class="st5" d="M2266.06,1482.72l-261.21,0.33c-1.7,0-3.08,1.82-3.08,4.06c0,2.24,1.38,4.05,3.08,4.05l261.21-0.33
										c19.16-0.02,34.74-19.34,34.72-43.05c-0.02-23.71-15.62-42.98-34.79-42.96l-261.21,0.33c-1.7,0-3.08,1.82-3.08,4.06
										s1.38,4.05,3.08,4.05l261.21-0.33c15.77-0.02,28.61,15.62,28.62,34.86C2294.64,1467.03,2281.83,1482.7,2266.06,1482.72z"/>
								</g>
							</g>
						</g>
					</g>
				</g>
			</g>
			<g>
				<g>
					<path class="st5" d="M2172.29,1486.79h16.9h72.51l26.24-5.6l9.13-25.99l-1.33-24.44l-11.57-16.82c0,0-32.92-6.73-33.59-6.73
						s-79.88,0.24-79.88,0.24l20.98,30.19l-0.86,30.55L2172.29,1486.79z"/>
				</g>
			</g>
			<g>
				<g>
					<g>
						<g>
							<g>
								<g>
									<path class="st3" d="M2149.72,1486.79l22.31-2.7l19.65-16.05l-0.02-24.53l-5.48-20.27l-17.86-12.25l-262.46,0.33
										c0,0,12.61,41.6,2.08,73.1L2149.72,1486.79z"/>
								</g>
							</g>
						</g>
					</g>
				</g>
			</g>
			<g>
				<g>
					<g>
						<g>
							<g>
								<g>
									<g>
										<path class="st5" d="M2161.04,1482.72l-261.21,0.33c-1.7,0-3.08,1.82-3.08,4.06c0,2.24,1.38,4.05,3.08,4.05l261.21-0.33
											c19.16-0.02,34.74-19.34,34.72-43.05c-0.02-23.71-15.62-42.98-34.79-42.96l-261.21,0.33c-1.7,0-3.08,1.82-3.08,4.06
											c0,2.24,1.38,4.05,3.08,4.05l261.21-0.33c15.77-0.02,28.61,15.62,28.62,34.86
											C2189.63,1467.03,2176.81,1482.7,2161.04,1482.72z"/>
									</g>
								</g>
							</g>
						</g>
					</g>
				</g>
			</g>
			<g>
				<g>
					<g>
						<g>
							<g>
								<g>
									<path class="st6" d="M2037.63,1448.88c0.38,0,0.68-0.4,0.68-0.9c0-0.5-0.31-0.9-0.69-0.9l-128.19,0.16
										c-0.38,0-0.68,0.4-0.68,0.9c0,0.5,0.31,0.9,0.69,0.9L2037.63,1448.88z"/>
								</g>
							</g>
						</g>
					</g>
				</g>
			</g>
			<g>
				<g>
					<g>
						<g>
							<g>
								<g>
									<path class="st6" d="M2180.22,1448.7c0.38,0,0.68-0.4,0.68-0.9c0-0.5-0.31-0.9-0.69-0.9l-124.54,0.16
										c-0.38,0-0.68,0.4-0.68,0.9c0,0.5,0.31,0.9,0.69,0.9L2180.22,1448.7z"/>
								</g>
							</g>
						</g>
					</g>
				</g>
			</g>
			<g>
				<g>
					<g>
						<g>
							<g>
								<g>
									<path class="st6" d="M2176.88,1464.83c0.38,0,0.68-0.4,0.68-0.9c0-0.5-0.31-0.9-0.69-0.9l-63.9,0.08
										c-0.38,0-0.68,0.4-0.68,0.9c0,0.5,0.31,0.9,0.69,0.9L2176.88,1464.83z"/>
								</g>
							</g>
						</g>
					</g>
				</g>
			</g>
			<g>
				<g>
					<g>
						<g>
							<g>
								<g>
									<path class="st6" d="M2103.61,1464.93c0.38,0,0.68-0.4,0.68-0.9s-0.31-0.9-0.69-0.9l-194.16,0.24
										c-0.38,0-0.68,0.4-0.68,0.9c0,0.5,0.31,0.9,0.69,0.9L2103.61,1464.93z"/>
								</g>
							</g>
						</g>
					</g>
				</g>
			</g>
			<g>
				<g>
					<g>
						<g>
							<g>
								<g>
									<g>
										<path class="st7" d="M1899.83,1483.95c0.38,0,0.68-0.4,0.68-0.9c0-0.5-0.31-0.9-0.69-0.9c-2.08,0-3.76,2.23-3.76,4.96
											c0,2.73,1.69,4.95,3.77,4.95l261.21-0.33c19.54-0.02,35.43-19.74,35.41-43.95c-0.02-24.21-15.93-43.88-35.47-43.86
											l-261.21,0.33c-2.08,0-3.76,2.23-3.76,4.96c0,2.73,1.69,4.95,3.77,4.95c0.38,0,0.68-0.4,0.68-0.9c0-0.5-0.31-0.9-0.69-0.9
											c-1.32,0-2.4-1.41-2.4-3.15c0-1.74,1.07-3.15,2.39-3.15l261.21-0.33c18.79-0.02,34.08,18.84,34.1,42.06
											c0.02,23.22-15.25,42.12-34.04,42.15l-261.21,0.33c-1.32,0-2.4-1.41-2.4-3.15S1898.51,1483.95,1899.83,1483.95z"/>
									</g>
								</g>
							</g>
						</g>
					</g>
				</g>
			</g>
			<g>
				<g>
					<g>
						<g>
							<g>
								<g>
									<path class="st8" d="M1989.08,1478.7c0,0,5.07-44.33,14.97-46.82l-25.56,0.03c0,0-8.21,26.97-3.45,46.81l6.67-13.6
										C1981.71,1465.12,1986.28,1472.32,1989.08,1478.7z"/>
								</g>
							</g>
						</g>
					</g>
				</g>
			</g>
			<g>
				<g>
					<g>
						<g>
							<g>
								<g>
									<path class="st6" d="M2176.86,1432.56c0.38,0,0.68-0.4,0.68-0.9c0-0.5-0.31-0.9-0.69-0.9l-267.43,0.34
										c-0.38,0-0.68,0.4-0.68,0.9c0,0.5,0.31,0.9,0.69,0.9L2176.86,1432.56z"/>
								</g>
							</g>
						</g>
					</g>
				</g>
			</g>
			<g>
				<g>
					<rect x="2159.16" y="1403.84" class="st9" width="108.1" height="1.98"/>
				</g>
			</g>
			<g>
				<g>
					<path class="st9" d="M2275.96,1488.01c-0.07,0.03-4.55,1.82-9.89,1.83l-106.91,0.13l0,1.97l106.91-0.13
						c5.58-0.01,10.11-1.83,10.3-1.91c13.24-4.68,19.39-15.89,22.21-24.47c3.05-9.28,2.97-17.34,2.96-17.68l-1.5,0.04
						c0,0.08,0.08,8.03-2.86,16.93C2293.26,1476.58,2286.12,1484.42,2275.96,1488.01z"/>
				</g>
			</g>
		</g>
		<g>
			<g>
				<g>
					<g>
						<g>
							<g>
								<g>
									<path class="st8" d="M1918.25,1327.48l261.21,0.33c1.7,0,3.08-1.81,3.08-4.05c0-2.24-1.38-4.05-3.08-4.06l-261.21-0.33
										c-19.16-0.02-34.77,19.25-34.79,42.96c-0.02,23.71,15.56,43.02,34.72,43.05l261.21,0.33c1.7,0,3.08-1.81,3.08-4.05
										c0-2.24-1.38-4.05-3.08-4.06l-261.21-0.33c-15.77-0.02-28.58-15.69-28.57-34.94
										C1889.64,1343.1,1902.48,1327.46,1918.25,1327.48z"/>
								</g>
							</g>
						</g>
					</g>
				</g>
			</g>
			<g>
				<g>
					<path class="st8" d="M1933.68,1321.77c-0.67,0-33.59,6.73-33.59,6.73l-11.57,16.82l-1.33,24.44l9.13,25.99l26.24,5.6h72.51
						h16.9l-18.54-18.6l-0.86-30.55l20.98-30.19C2013.56,1322.01,1934.35,1321.77,1933.68,1321.77z"/>
				</g>
			</g>
			<g>
				<g>
					<g>
						<g>
							<g>
								<g>
									<path class="st3" d="M2015.93,1325.56l-17.86,12.25l-5.48,20.27l-0.02,24.53l19.65,16.05l22.31,2.7l241.77-2.36
										c-10.52-31.5,2.08-73.1,2.08-73.1L2015.93,1325.56z"/>
								</g>
							</g>
						</g>
					</g>
				</g>
			</g>
			<g>
				<g>
					<g>
						<g>
							<g>
								<g>
									<g>
										<path class="st8" d="M2023.27,1327.48l261.21,0.33c1.7,0,3.08-1.81,3.08-4.05c0-2.24-1.38-4.05-3.08-4.06l-261.21-0.33
											c-19.16-0.02-34.77,19.25-34.79,42.96c-0.02,23.71,15.56,43.02,34.72,43.05l261.21,0.33c1.7,0,3.08-1.81,3.08-4.05
											c0-2.24-1.38-4.05-3.08-4.06l-261.21-0.33c-15.77-0.02-28.58-15.69-28.57-34.94
											C1994.66,1343.1,2007.5,1327.46,2023.27,1327.48z"/>
									</g>
								</g>
							</g>
						</g>
					</g>
				</g>
			</g>
			<g>
				<g>
					<g>
						<g>
							<g>
								<g>
									<path class="st6" d="M2274.82,1363.6c0.38,0,0.69-0.4,0.69-0.9c0-0.5-0.31-0.9-0.68-0.9l-128.19-0.16
										c-0.38,0-0.68,0.4-0.69,0.9c0,0.5,0.31,0.9,0.68,0.9L2274.82,1363.6z"/>
								</g>
							</g>
						</g>
					</g>
				</g>
			</g>
			<g>
				<g>
					<g>
						<g>
							<g>
								<g>
									<path class="st6" d="M2128.58,1363.42c0.38,0,0.68-0.4,0.69-0.9c0-0.5-0.31-0.9-0.68-0.9l-124.54-0.16
										c-0.38,0-0.68,0.4-0.69,0.9c0,0.5,0.31,0.9,0.68,0.9L2128.58,1363.42z"/>
								</g>
							</g>
						</g>
					</g>
				</g>
			</g>
			<g>
				<g>
					<g>
						<g>
							<g>
								<g>
									<path class="st6" d="M2071.27,1379.48c0.38,0,0.69-0.4,0.69-0.9c0-0.5-0.31-0.9-0.68-0.9l-63.9-0.08
										c-0.38,0-0.68,0.4-0.69,0.9c0,0.5,0.31,0.9,0.68,0.9L2071.27,1379.48z"/>
								</g>
							</g>
						</g>
					</g>
				</g>
			</g>
			<g>
				<g>
					<g>
						<g>
							<g>
								<g>
									<path class="st6" d="M2274.81,1379.73c0.38,0,0.69-0.4,0.69-0.9c0-0.5-0.31-0.9-0.68-0.9l-194.16-0.24
										c-0.38,0-0.69,0.4-0.69,0.9c0,0.5,0.31,0.9,0.68,0.9L2274.81,1379.73z"/>
								</g>
							</g>
						</g>
					</g>
				</g>
			</g>
			<g>
				<g>
					<g>
						<g>
							<g>
								<g>
									<g>
										<path class="st7" d="M2284.48,1326.91c-0.38,0-0.68,0.4-0.69,0.9c0,0.5,0.31,0.9,0.68,0.9c2.08,0,3.77-2.22,3.77-4.95
											c0-2.73-1.68-4.95-3.76-4.96l-261.21-0.33c-19.54-0.02-35.45,19.65-35.47,43.86c-0.02,24.21,15.87,43.93,35.41,43.95
											l261.21,0.33c2.08,0,3.77-2.22,3.77-4.95c0-2.73-1.68-4.95-3.76-4.96c-0.38,0-0.68,0.4-0.69,0.9c0,0.5,0.31,0.9,0.68,0.9
											c1.32,0,2.4,1.42,2.39,3.15c0,1.74-1.08,3.15-2.4,3.15l-261.21-0.33c-18.79-0.02-34.06-18.93-34.04-42.15
											c0.02-23.22,15.31-42.08,34.1-42.06l261.21,0.33c1.32,0,2.39,1.42,2.39,3.15S2285.8,1326.91,2284.48,1326.91z"/>
									</g>
								</g>
							</g>
						</g>
					</g>
				</g>
			</g>
			<g>
				<g>
					<g>
						<g>
							<g>
								<g>
									<path class="st2" d="M2202.56,1379.69l6.67,13.6c4.76-19.84-3.45-46.81-3.45-46.81l-25.56-0.03
										c9.89,2.49,14.97,46.82,14.97,46.82C2197.99,1386.88,2202.56,1379.69,2202.56,1379.69z"/>
								</g>
							</g>
						</g>
					</g>
				</g>
			</g>
			<g>
				<g>
					<g>
						<g>
							<g>
								<g>
									<path class="st6" d="M2274.83,1347.46c0.38,0,0.69-0.4,0.69-0.9c0-0.5-0.31-0.9-0.68-0.9l-267.43-0.34
										c-0.38,0-0.68,0.4-0.69,0.9c0,0.5,0.31,0.9,0.68,0.9L2274.83,1347.46z"/>
								</g>
							</g>
						</g>
					</g>
				</g>
			</g>
			<g>
				<g>
					<rect x="1917" y="1318.41" class="st9" width="108.1" height="1.97"/>
				</g>
			</g>
			<g>
				<g>
					<path class="st9" d="M1882.72,1362.32c-0.01,0.34-0.09,8.4,2.96,17.68c2.82,8.58,8.97,19.8,22.21,24.47
						c0.19,0.08,4.72,1.9,10.3,1.91l106.91,0.13l0-1.97l-106.91-0.13c-5.34-0.01-9.82-1.8-9.89-1.83
						c-10.16-3.59-17.31-11.43-21.22-23.29c-2.94-8.89-2.86-16.85-2.86-16.93L1882.72,1362.32z"/>
				</g>
			</g>
		</g>
		<g>
			<g>
				<g>
					<g>
						<g>
							<g>
								<g>
									<path class="st20" d="M1918.25,1155.83l261.21,0.33c1.7,0,3.08-1.81,3.08-4.05c0-2.24-1.38-4.05-3.08-4.06l-261.21-0.33
										c-19.16-0.02-34.77,19.25-34.79,42.96c-0.02,23.71,15.56,43.02,34.72,43.05l261.21,0.33c1.7,0,3.08-1.81,3.08-4.05
										c0-2.24-1.38-4.05-3.08-4.06l-261.21-0.33c-15.77-0.02-28.58-15.69-28.57-34.94
										C1889.64,1171.45,1902.48,1155.81,1918.25,1155.83z"/>
								</g>
							</g>
						</g>
					</g>
				</g>
			</g>
			<g>
				<g>
					<path class="st20" d="M1933.68,1150.12c-0.67,0-33.59,6.73-33.59,6.73l-11.57,16.82l-1.33,24.44l9.13,25.99l26.24,5.6h72.51
						h16.9l-18.54-18.6l-0.86-30.55l20.98-30.19C2013.56,1150.36,1934.35,1150.12,1933.68,1150.12z"/>
				</g>
			</g>
			<g>
				<g>
					<g>
						<g>
							<g>
								<g>
									<path class="st3" d="M2015.93,1153.9l-17.86,12.25l-5.48,20.27l-0.02,24.53l19.65,16.05l22.31,2.7l241.77-2.36
										c-10.52-31.5,2.08-73.1,2.08-73.1L2015.93,1153.9z"/>
								</g>
							</g>
						</g>
					</g>
				</g>
			</g>
			<g>
				<g>
					<g>
						<g>
							<g>
								<g>
									<g>
										<path class="st20" d="M2023.27,1155.83l261.21,0.33c1.7,0,3.08-1.81,3.08-4.05c0-2.24-1.38-4.05-3.08-4.06l-261.21-0.33
											c-19.16-0.02-34.77,19.25-34.79,42.96c-0.02,23.71,15.56,43.02,34.72,43.05l261.21,0.33c1.7,0,3.08-1.81,3.08-4.05
											c0-2.24-1.38-4.05-3.08-4.06l-261.21-0.33c-15.77-0.02-28.58-15.69-28.57-34.94
											C1994.66,1171.45,2007.5,1155.81,2023.27,1155.83z"/>
									</g>
								</g>
							</g>
						</g>
					</g>
				</g>
			</g>
			<g>
				<g>
					<g>
						<g>
							<g>
								<g>
									<path class="st6" d="M2274.82,1191.95c0.38,0,0.69-0.4,0.69-0.9c0-0.5-0.31-0.9-0.68-0.9l-128.19-0.16
										c-0.38,0-0.68,0.4-0.69,0.9c0,0.5,0.31,0.9,0.68,0.9L2274.82,1191.95z"/>
								</g>
							</g>
						</g>
					</g>
				</g>
			</g>
			<g>
				<g>
					<g>
						<g>
							<g>
								<g>
									<path class="st6" d="M2128.58,1191.76c0.38,0,0.68-0.4,0.69-0.9c0-0.5-0.31-0.9-0.68-0.9l-124.54-0.16
										c-0.38,0-0.68,0.4-0.69,0.9c0,0.5,0.31,0.9,0.68,0.9L2128.58,1191.76z"/>
								</g>
							</g>
						</g>
					</g>
				</g>
			</g>
			<g>
				<g>
					<g>
						<g>
							<g>
								<g>
									<path class="st6" d="M2071.27,1207.82c0.38,0,0.69-0.4,0.69-0.9s-0.31-0.9-0.68-0.9l-63.9-0.08c-0.38,0-0.68,0.4-0.69,0.9
										c0,0.5,0.31,0.9,0.68,0.9L2071.27,1207.82z"/>
								</g>
							</g>
						</g>
					</g>
				</g>
			</g>
			<g>
				<g>
					<g>
						<g>
							<g>
								<g>
									<path class="st6" d="M2274.81,1208.08c0.38,0,0.69-0.4,0.69-0.9c0-0.5-0.31-0.9-0.68-0.9l-194.16-0.24
										c-0.38,0-0.69,0.4-0.69,0.9c0,0.5,0.31,0.9,0.68,0.9L2274.81,1208.08z"/>
								</g>
							</g>
						</g>
					</g>
				</g>
			</g>
			<g>
				<g>
					<g>
						<g>
							<g>
								<g>
									<g>
										<path class="st7" d="M2284.48,1155.26c-0.38,0-0.68,0.4-0.69,0.9c0,0.5,0.31,0.9,0.68,0.9c2.08,0,3.77-2.22,3.77-4.95
											c0-2.73-1.68-4.95-3.76-4.96l-261.21-0.33c-19.54-0.02-35.45,19.65-35.47,43.86c-0.02,24.21,15.87,43.93,35.41,43.95
											l261.21,0.33c2.08,0,3.77-2.22,3.77-4.95c0-2.73-1.68-4.95-3.76-4.96c-0.38,0-0.68,0.4-0.69,0.9c0,0.5,0.31,0.9,0.68,0.9
											c1.32,0,2.4,1.42,2.39,3.15c0,1.74-1.08,3.15-2.4,3.15l-261.21-0.33c-18.79-0.02-34.06-18.93-34.04-42.15
											c0.02-23.22,15.31-42.08,34.1-42.06l261.21,0.33c1.32,0,2.39,1.42,2.39,3.15S2285.8,1155.26,2284.48,1155.26z"/>
									</g>
								</g>
							</g>
						</g>
					</g>
				</g>
			</g>
			<g>
				<g>
					<g>
						<g>
							<g>
								<g>
									<path class="st2" d="M2202.56,1208.03l6.67,13.6c4.76-19.84-3.45-46.81-3.45-46.81l-25.56-0.03
										c9.89,2.49,14.97,46.82,14.97,46.82C2197.99,1215.23,2202.56,1208.03,2202.56,1208.03z"/>
								</g>
							</g>
						</g>
					</g>
				</g>
			</g>
			<g>
				<g>
					<g>
						<g>
							<g>
								<g>
									<path class="st6" d="M2274.83,1175.8c0.38,0,0.69-0.4,0.69-0.9c0-0.5-0.31-0.9-0.68-0.9l-267.43-0.34
										c-0.38,0-0.68,0.4-0.69,0.9c0,0.5,0.31,0.9,0.68,0.9L2274.83,1175.8z"/>
								</g>
							</g>
						</g>
					</g>
				</g>
			</g>
			<g>
				<g>
					<rect x="1917" y="1146.75" class="st9" width="108.1" height="1.98"/>
				</g>
			</g>
			<g>
				<g>
					<path class="st9" d="M1882.72,1190.66c-0.01,0.34-0.09,8.4,2.96,17.68c2.82,8.58,8.97,19.8,22.21,24.47
						c0.19,0.08,4.72,1.9,10.3,1.91l106.91,0.13l0-1.97l-106.91-0.13c-5.34-0.01-9.82-1.8-9.89-1.83
						c-10.16-3.59-17.31-11.43-21.22-23.29c-2.94-8.89-2.86-16.85-2.86-16.93L1882.72,1190.66z"/>
				</g>
			</g>
		</g>
		<g>
			<g>
				<g>
					<g>
						<g>
							<g>
								<g>
									<path class="st21" d="M2274.74,1311.85l-261.21,0.33c-1.7,0-3.08,1.82-3.08,4.06c0,2.24,1.38,4.05,3.08,4.05l261.21-0.33
										c19.16-0.02,34.74-19.34,34.72-43.05c-0.02-23.71-15.62-42.98-34.79-42.96l-261.21,0.33c-1.7,0-3.08,1.82-3.08,4.06
										c0,2.24,1.38,4.05,3.08,4.05l261.21-0.33c15.77-0.02,28.61,15.62,28.62,34.86
										C2303.32,1296.16,2290.51,1311.83,2274.74,1311.85z"/>
								</g>
							</g>
						</g>
					</g>
				</g>
			</g>
			<g>
				<g>
					<path class="st21" d="M2180.96,1315.92h16.91h72.51l26.24-5.6l9.13-25.99l-1.33-24.44l-11.57-16.82c0,0-32.92-6.73-33.59-6.73
						c-0.67,0-79.88,0.24-79.88,0.24l20.98,30.19l-0.86,30.55L2180.96,1315.92z"/>
				</g>
			</g>
			<g>
				<g>
					<g>
						<g>
							<g>
								<g>
									<path class="st3" d="M2158.4,1315.92l22.31-2.7l19.65-16.05l-0.02-24.53l-5.48-20.27l-17.86-12.25l-262.46,0.33
										c0,0,12.61,41.6,2.08,73.1L2158.4,1315.92z"/>
								</g>
							</g>
						</g>
					</g>
				</g>
			</g>
			<g>
				<g>
					<g>
						<g>
							<g>
								<g>
									<g>
										<path class="st21" d="M2169.72,1311.85l-261.21,0.33c-1.7,0-3.08,1.82-3.08,4.06c0,2.24,1.38,4.05,3.08,4.05l261.21-0.33
											c19.16-0.02,34.74-19.34,34.72-43.05c-0.02-23.71-15.62-42.98-34.79-42.96l-261.21,0.33c-1.7,0-3.08,1.82-3.08,4.06
											c0,2.24,1.38,4.05,3.08,4.05l261.21-0.33c15.77-0.02,28.61,15.62,28.62,34.86
											C2198.3,1296.16,2185.49,1311.83,2169.72,1311.85z"/>
									</g>
								</g>
							</g>
						</g>
					</g>
				</g>
			</g>
			<g>
				<g>
					<g>
						<g>
							<g>
								<g>
									<path class="st6" d="M2046.31,1278.01c0.38,0,0.68-0.4,0.68-0.9c0-0.5-0.31-0.9-0.69-0.9l-128.19,0.16
										c-0.38,0-0.68,0.4-0.68,0.9c0,0.5,0.31,0.9,0.69,0.9L2046.31,1278.01z"/>
								</g>
							</g>
						</g>
					</g>
				</g>
			</g>
			<g>
				<g>
					<g>
						<g>
							<g>
								<g>
									<path class="st6" d="M2188.9,1277.83c0.38,0,0.68-0.4,0.68-0.9c0-0.5-0.31-0.9-0.69-0.9l-124.54,0.16
										c-0.38,0-0.68,0.4-0.68,0.9c0,0.5,0.31,0.9,0.69,0.9L2188.9,1277.83z"/>
								</g>
							</g>
						</g>
					</g>
				</g>
			</g>
			<g>
				<g>
					<g>
						<g>
							<g>
								<g>
									<path class="st6" d="M2185.56,1293.96c0.38,0,0.68-0.4,0.68-0.9c0-0.5-0.31-0.9-0.69-0.9l-63.9,0.08
										c-0.38,0-0.68,0.4-0.68,0.9c0,0.5,0.31,0.9,0.69,0.9L2185.56,1293.96z"/>
								</g>
							</g>
						</g>
					</g>
				</g>
			</g>
			<g>
				<g>
					<g>
						<g>
							<g>
								<g>
									<path class="st6" d="M2112.29,1294.05c0.38,0,0.68-0.4,0.68-0.9c0-0.5-0.31-0.9-0.69-0.9l-194.16,0.24
										c-0.38,0-0.68,0.4-0.68,0.9c0,0.5,0.31,0.9,0.69,0.9L2112.29,1294.05z"/>
								</g>
							</g>
						</g>
					</g>
				</g>
			</g>
			<g>
				<g>
					<g>
						<g>
							<g>
								<g>
									<g>
										<path class="st7" d="M1908.51,1313.08c0.38,0,0.68-0.4,0.68-0.9c0-0.5-0.31-0.9-0.69-0.9c-2.08,0-3.76,2.23-3.76,4.96
											c0,2.73,1.69,4.95,3.77,4.95l261.21-0.33c19.54-0.02,35.43-19.74,35.41-43.95c-0.02-24.21-15.93-43.88-35.47-43.86
											l-261.21,0.33c-2.08,0-3.76,2.23-3.76,4.96c0,2.73,1.69,4.95,3.77,4.95c0.38,0,0.68-0.4,0.68-0.9c0-0.5-0.31-0.9-0.69-0.9
											c-1.32,0-2.4-1.41-2.4-3.15c0-1.74,1.07-3.15,2.39-3.15l261.21-0.33c18.79-0.02,34.08,18.84,34.1,42.06
											c0.02,23.22-15.25,42.12-34.04,42.15l-261.21,0.33c-1.32,0-2.4-1.41-2.4-3.15S1907.19,1313.08,1908.51,1313.08z"/>
									</g>
								</g>
							</g>
						</g>
					</g>
				</g>
			</g>
			<g>
				<g>
					<g>
						<g>
							<g>
								<g>
									<path class="st11" d="M1997.76,1307.83c0,0,5.07-44.33,14.97-46.82l-25.56,0.03c0,0-8.21,26.97-3.45,46.81l6.67-13.6
										C1990.38,1294.25,1994.95,1301.45,1997.76,1307.83z"/>
								</g>
							</g>
						</g>
					</g>
				</g>
			</g>
			<g>
				<g>
					<g>
						<g>
							<g>
								<g>
									<path class="st6" d="M2185.54,1261.69c0.38,0,0.68-0.4,0.68-0.9c0-0.5-0.31-0.9-0.69-0.9l-267.43,0.34
										c-0.38,0-0.68,0.4-0.68,0.9c0,0.5,0.31,0.9,0.69,0.9L2185.54,1261.69z"/>
								</g>
							</g>
						</g>
					</g>
				</g>
			</g>
			<g>
				<g>
					<rect x="2167.84" y="1232.97" class="st9" width="108.1" height="1.98"/>
				</g>
			</g>
			<g>
				<g>
					<path class="st9" d="M2284.63,1317.14c-0.07,0.03-4.55,1.82-9.89,1.83l-106.91,0.13l0,1.97l106.91-0.13
						c5.58-0.01,10.11-1.83,10.3-1.91c13.24-4.68,19.39-15.89,22.21-24.47c3.05-9.28,2.97-17.34,2.96-17.68l-1.5,0.04
						c0,0.08,0.08,8.03-2.86,16.93C2301.94,1305.71,2294.8,1313.55,2284.63,1317.14z"/>
				</g>
			</g>
		</g>
	</g>
	<g>
		<g>
			<g>
				<g>
					<path class="st22" d="M1963.76,1552.33c-2.47-6.98-6.87-4.92-11.02-4.42c-4.17,0.5-10.86-5.74-13.31-8.78
						c-2.45-3.06-7.54-1.17-16.07-0.05c-8.53,1.12-13.89-5.29-19.71-5.43c-5.8-0.14-15.65,9.03-15.65,9.03
						c-6.27,8.26-9.26,8.45-13.46,12.36c-1.26,1.18-2.65,2.68-4.25,4.85c-6.98,9.38-0.39,17.28-1.97,29.64
						c-1.58,12.36,14.85,15.79,25.34,14.85c10.49-0.94,16.68-0.16,23.46,2.07c6.77,2.24,11.97,9.34,21.39,12.29
						c9.42,2.96,9.09-4.44,12.42-9.92c3.34-5.48,8.83,1.56,17.47-3.92c7.4-4.69,5.31-14.18,0.75-23.79
						c-0.77-1.63-1.6-3.26-2.48-4.86C1960.49,1564.85,1966.23,1559.3,1963.76,1552.33z"/>
				</g>
			</g>
		</g>
		<g class="st23">
			<g>
				<g>
					<path class="st24" d="M1874.54,1555.04c-1.26,1.18-2.65,2.68-4.25,4.85c-6.98,9.38-0.39,17.28-1.97,29.64
						c-1.58,12.36,14.85,15.79,25.34,14.85c10.49-0.94,16.68-0.16,23.46,2.07c6.77,2.24,11.97,9.34,21.39,12.29
						c9.42,2.96,9.09-4.44,12.42-9.92c3.34-5.48,8.83,1.56,17.47-3.92c7.4-4.69,5.31-14.18,0.75-23.79c-5.59,0.81-9.44-2.39-12,1.83
						c-3.34,5.48-2.99,12.89-12.42,9.92c-9.42-2.96-14.62-10.05-21.39-12.28c-6.77-2.24-12.95-3.03-23.44-2.08
						c-10.51,0.95-26.92-2.48-25.34-14.85C1874.95,1560.52,1874.83,1557.69,1874.54,1555.04z"/>
				</g>
			</g>
		</g>
		<g class="st23">
			<g>
				<g>
					<path class="st24" d="M1915.01,1550.97c2.01,0.95,4.16,1.74,5.77,3.29c1.21,1.16,2.39,2.83,4.07,2.67
						c0.49-0.06,0.96-0.28,1.42-0.5c1.62-0.8,3.32-1.67,4.32-3.19c0.56-0.88,0.84-1.91,1.1-2.92c0.49-1.85,0.97-3.7,1.46-5.55
						c0.31-1.2,0.63-2.39,1.24-3.48c0.74-1.33,1.87-2.38,2.77-3.6c-2.87-0.76-7.35,0.52-13.8,1.38c-7.08,0.93-11.97-3.31-16.75-4.88
						c0.41,1.56,1.71,2.86,2.25,4.39c0.93,2.59,0.06,5.63,1.19,8.14C1910.97,1548.74,1913,1550.03,1915.01,1550.97z"/>
				</g>
			</g>
		</g>
		<g class="st23">
			<g>
				<g>
					<path class="st24" d="M1944.91,1552.65c0.1,1,0.72,1.88,1.49,2.48c0.78,0.63,1.71,1.01,2.64,1.35c0.15,0.06,0.3,0.1,0.43,0.05
						c0.13-0.06,0.19-0.21,0.26-0.34c0.35-0.84,0.71-1.68,1.07-2.52c0.15-0.37,0.37-0.79,0.75-0.88c0.24-0.05,0.49,0.02,0.71,0.1
						c1.01,0.34,2,0.68,3.01,1.03c0.7-0.76,0.69-2.08,1.56-2.63c1.08-0.69,2.52,0.36,3.77,0.1c0.68-0.14,1.22-0.67,1.62-1.23
						c0.1-0.14,0.19-0.28,0.28-0.42c-2.55-3.81-6.25-2.27-9.78-1.84c-2.13,0.25-4.91-1.24-7.45-3.17c-0.15,1.32,0.5,2.97,0.35,4.16
						C1945.48,1550.18,1944.77,1551.38,1944.91,1552.65z"/>
				</g>
			</g>
		</g>
		<g class="st23">
			<g>
				<g>
					<path class="st24" d="M1930.54,1573.22c0.36,0.47,1.27,2.11,1.81,2.26c1.31,1.56,2.81,3.14,4.78,3.63
						c1.56,0.39,3.21,0.06,4.77-0.33c1.49-0.37,2.97-0.78,4.44-1.24c1.36-0.43,2.8-0.96,3.6-2.15c0.35-0.51,0.54-1.11,0.73-1.7
						c0.38-1.2,0.75-2.41,1.1-3.61c0.15-0.52,0.3-1.06,0.19-1.58c-0.22-1.07-1.37-1.62-2.39-2.03c-0.89-0.35-1.83-0.71-2.78-0.56
						c-2.12,0.35-3.32,3.11-5.47,3.17c-1.19,0.03-2.22-0.82-2.98-1.74c-0.75-0.92-1.38-1.99-2.35-2.67
						c-0.69-0.48-1.51-0.75-2.34-0.86c-2.17-0.29-4.46,0.48-6,2.03c-0.35,0.35-0.68,0.75-1.13,0.96c-0.42,0.2-0.94,0.22-1.27,0.55
						c-0.44,0.43-0.31,1.21,0.1,1.67c0.95,1.04,2.56,0.88,3.52,1.94C1929.49,1571.63,1929.98,1572.48,1930.54,1573.22z"/>
				</g>
			</g>
		</g>
		<g class="st23">
			<g>
				<g>
					<path class="st24" d="M1903.03,1542.87c0.47-2.06,0.39-4.35-0.77-6.12c-0.46-0.72-1.08-1.32-1.74-1.88
						c-0.17-0.15-0.35-0.28-0.54-0.41c-5.53,2.21-11.99,8.21-11.99,8.21c-4.31,5.66-7.06,7.53-9.72,9.41
						c1.21,0.55,1.96,0.77,2.66,2.16c1.38,2.76,3.61,5.11,6.32,6.63c1.3,0.72,2.72,1.28,3.78,2.33c0.79,0.78,1.32,1.78,2.1,2.57
						c1.06,1.05,2.53,1.62,4.01,1.85c1.46,0.24,2.98,0.16,4.47,0.08c0.32-0.03,0.66-0.05,0.91-0.24c0.19-0.16,0.29-0.4,0.39-0.63
						c0.6-1.45,1.22-3.04,0.74-4.55c-0.26-0.85-0.84-1.55-1.33-2.28c-1.47-2.12-2.36-4.57-3.24-6.98c-0.26-0.73-0.54-1.5-0.51-2.28
						c0.1-2.08,2.21-3.41,3.34-5.15C1902.47,1544.77,1902.81,1543.83,1903.03,1542.87z"/>
				</g>
			</g>
		</g>
	</g>
	<g>
		<g>
			<g>
				<g>
					<polygon class="st21" points="1660.95,452.65 1630.02,469.78 1628.59,388.64 1604.48,503.48 1635.1,490.41 1641.24,556.3 					
						"/>
				</g>
			</g>
		</g>
	</g>
	<g>
		<g>
			<g>
				<g>
					<polygon class="st21" points="1776.59,543.51 1749.25,535.79 1794.32,488.69 1715.62,540.58 1740.48,550.44 1706.73,591.5 
											"/>
				</g>
			</g>
		</g>
	</g>
	<g>
		<g>
			<g>
				<g>
					<polygon class="st21" points="1532.84,561.92 1501.72,483.08 1488.07,507.99 1452.27,453.51 1485.2,541.84 1500.38,519.82 
											"/>
				</g>
			</g>
		</g>
	</g>
	<g class="st25">
		<path class="st3" d="M284.57,800.63c39.89,219.83,190.68,288.23,190.68,288.23c74.08-27.14,163.49-92.32,163.49-92.32
			C469.16,870.69,480.57,781.27,480.57,781.27C403.82,829.3,284.57,800.63,284.57,800.63z"/>
	</g>
	<g class="st25">
		<path class="st3" d="M2140.3,1129.05c0,0,108.52-78.01,105.3-258.32c0,0-89.85,41.57-158.2,15.7c0,0,23.18,68.97-91.1,195.43
			C1996.29,1081.86,2077.37,1119.29,2140.3,1129.05z"/>
	</g>
	<g>
		<g>
			<g>
				<g>
					<g>
						<polygon class="st26" points="245.92,1473.28 342.57,1473.28 345.84,1428.93 352.61,1337.4 356.81,1280.47 231.68,1280.47 
							235.88,1337.4 242.65,1428.93 						"/>
					</g>
				</g>
			</g>
			<g>
				<g>
					<g>
						<path class="st27" d="M309.29,1274.03h-29.85h-45.93v0.01c-2.43,0.08-4.38,2.04-4.38,4.45c0,2.41,1.95,4.37,4.38,4.45v0.01
							h45.93h29.85h45.93v-0.01c2.43-0.08,4.38-2.04,4.38-4.45c0-2.41-1.95-4.37-4.38-4.45v-0.01H309.29z"/>
					</g>
				</g>
			</g>
			<g>
				<g>
					<g>
						<path d="M233.55,1274.92l0.18-0.01h75.57v-1.78h-75.78l-0.89,0.01v0.09c-2.52,0.47-4.38,2.64-4.38,5.25s1.87,4.77,4.38,5.25
							v0.1h112.69v-1.78H233.77l-0.22-0.01c-1.97-0.06-3.52-1.63-3.52-3.56C230.02,1276.55,231.57,1274.99,233.55,1274.92z"/>
					</g>
				</g>
			</g>
			<g>
				<g>
					<g>
						<polygon class="st28" points="352.61,1337.4 235.88,1337.4 242.65,1428.93 345.84,1428.93 						"/>
					</g>
				</g>
			</g>
			<g>
				<g>
					<g>
						<polygon points="342.56,1474.17 342.56,1472.39 246.75,1472.39 232.56,1282.88 230.79,1283.01 245.04,1473.34 245.1,1474.17 
													"/>
					</g>
				</g>
			</g>
			<g>
				<g>
					<g>
						
							<rect x="294.68" y="1392.1" transform="matrix(0.0737 -0.9973 0.9973 0.0737 -1066.3866 1637.8866)" width="107.63" height="1.78"/>
					</g>
				</g>
			</g>
			<g>
				<g>
					<g>
						<g>
							<path d="M301.96,1418.75c1.08-0.23,2.12-0.55,3.13-0.95c-3.36-10.02-9.33-20.32-14.65-29.49c-1.23-2.12-2.39-4.13-3.51-6.1
								c-5.47-9.68-6.96-21.8-6.93-32.27c-10.63,6.48-16.1,22.28-12.5,38.89C271.78,1408.56,287.2,1421.95,301.96,1418.75z"/>
						</g>
					</g>
				</g>
				<g>
					<g>
						<g>
							<path d="M313.18,1412.31c7.42-7.77,10.77-21.12,7.75-35.04c-3.98-18.36-17.62-31.23-31.39-30.34
								c-0.34,9.85,0.61,21.75,5.63,30.63c1.09,1.93,2.24,3.91,3.46,6.01C303.73,1392.37,309.44,1402.23,313.18,1412.31z"/>
						</g>
					</g>
				</g>
			</g>
		</g>
		<g>
			<g>
				<polygon class="st28" points="370.56,1283.83 370.56,1270.54 361.03,1270.54 349.03,1242.83 336.9,1242.83 251.83,1242.83 
					239.71,1242.83 227.71,1270.54 218.18,1270.54 218.18,1283.83 230.94,1283.83 357.8,1283.83 				"/>
			</g>
		</g>
		<g>
			<g>
				<polygon points="370.56,1271.43 370.56,1269.65 217.29,1269.65 217.29,1284.72 370.56,1284.72 370.56,1282.94 219.07,1282.94 
					219.07,1271.43 				"/>
			</g>
		</g>
		<g>
			<g>
				<polygon points="349.03,1243.72 349.03,1241.94 239.12,1241.94 226.89,1270.18 228.53,1270.89 240.29,1243.72 				"/>
			</g>
		</g>
		<g>
			<g>
				
					<rect x="345.57" y="1249.4" transform="matrix(0.7509 -0.6604 0.6604 0.7509 -742.6745 541.4383)" width="1.78" height="11.81"/>
			</g>
		</g>
		<g>
			<g>
				<rect x="339.18" y="1252.16" transform="matrix(0.751 -0.6603 0.6603 0.751 -746.0586 537.8626)" width="1.78" height="11.81"/>
			</g>
		</g>
	</g>
	<g>
		<g>
			<g>
				<g>
					<g>
						<polygon class="st26" points="1998.99,1145.01 2095.63,1145.01 2098.91,1100.66 2105.67,1009.13 2109.88,952.21 
							1984.74,952.21 1988.95,1009.13 1995.71,1100.66 						"/>
					</g>
				</g>
			</g>
			<g>
				<g>
					<g>
						<path class="st27" d="M2062.36,945.76h-29.85h-45.93v0.01c-2.43,0.08-4.38,2.04-4.38,4.45c0,2.41,1.95,4.37,4.38,4.45v0.01
							h45.93h29.85h45.93v-0.01c2.43-0.08,4.38-2.04,4.38-4.45c0-2.41-1.95-4.37-4.38-4.45v-0.01H2062.36z"/>
					</g>
				</g>
			</g>
			<g>
				<g>
					<g>
						<path d="M1986.61,946.66l0.18-0.01h75.57v-1.78h-75.78l-0.89,0.01v0.09c-2.52,0.47-4.38,2.64-4.38,5.25s1.87,4.77,4.38,5.25
							v0.1h112.69v-1.78h-111.55l-0.22-0.01c-1.97-0.06-3.52-1.63-3.52-3.56C1983.09,948.29,1984.64,946.72,1986.61,946.66z"/>
					</g>
				</g>
			</g>
			<g>
				<g>
					<g>
						<polygon class="st28" points="2105.67,1009.13 1988.95,1009.13 1995.71,1100.66 2098.91,1100.66 						"/>
					</g>
				</g>
			</g>
			<g>
				<g>
					<g>
						<polygon points="2095.63,1145.9 2095.63,1144.12 1999.82,1144.12 1985.63,954.61 1983.86,954.74 1998.1,1145.08 
							1998.17,1145.9 						"/>
					</g>
				</g>
			</g>
			<g>
				<g>
					<g>
						
							<rect x="2047.75" y="1063.83" transform="matrix(0.0737 -0.9973 0.9973 0.0737 884.8679 3082.1143)" width="107.63" height="1.78"/>
					</g>
				</g>
			</g>
			<g>
				<g>
					<g>
						<g>
							<path d="M2055.02,1090.49c1.08-0.23,2.12-0.55,3.13-0.95c-3.36-10.02-9.33-20.32-14.65-29.49c-1.23-2.12-2.39-4.13-3.51-6.1
								c-5.47-9.68-6.96-21.8-6.93-32.27c-10.63,6.48-16.1,22.28-12.5,38.89C2024.85,1080.29,2040.27,1093.69,2055.02,1090.49z"/>
						</g>
					</g>
				</g>
				<g>
					<g>
						<g>
							<path d="M2066.25,1084.04c7.42-7.77,10.76-21.12,7.75-35.04c-3.98-18.36-17.62-31.23-31.39-30.34
								c-0.34,9.85,0.61,21.75,5.63,30.63c1.09,1.93,2.24,3.91,3.46,6.01C2056.8,1064.11,2062.51,1073.97,2066.25,1084.04z"/>
						</g>
					</g>
				</g>
			</g>
		</g>
		<g>
			<g>
				<polygon class="st28" points="2123.63,955.57 2123.63,942.27 2114.1,942.27 2102.1,914.57 2089.97,914.57 2004.9,914.57 
					1992.78,914.57 1980.78,942.27 1971.25,942.27 1971.25,955.57 1984.01,955.57 2110.87,955.57 				"/>
			</g>
		</g>
		<g>
			<g>
				<polygon points="2123.63,943.16 2123.63,941.38 1970.36,941.38 1970.36,956.46 2123.63,956.46 2123.63,954.68 1972.14,954.68 
					1972.14,943.16 				"/>
			</g>
		</g>
		<g>
			<g>
				<polygon points="2102.1,915.46 2102.1,913.68 1992.19,913.68 1979.96,941.92 1981.59,942.62 1993.36,915.46 				"/>
			</g>
		</g>
		<g>
			<g>
				<rect x="2098.64" y="921.14" transform="matrix(0.751 -0.6603 0.6603 0.751 -89.344 1617.1505)" width="1.78" height="11.81"/>
			</g>
		</g>
		<g>
			<g>
				<rect x="2092.25" y="923.89" transform="matrix(0.751 -0.6603 0.6603 0.751 -92.7211 1613.7339)" width="1.78" height="11.81"/>
			</g>
		</g>
	</g>
	<g>
		<path class="st29" d="M738.15,1633c36.6-17.78,132.29-16.89,145.63-38.17c13.33-21.28-75.75-24.02-113.78-18.7
			c-38.03,5.32-63.67,5.22-75.56-10.01c-11.89-15.22-97.6,1.96-97.6,1.96s41.67-6.4-105.72,16.91S701.56,1650.78,738.15,1633z"/>
	</g>
	<g>
		<g>
			<g>
				<g>
					<path class="st22" d="M940.42,1569.77c-3.44,14.79-3.48,28.66,8.25,32.96c13.7,5.03,19.23-6.45,25.55,0.18
						c6.31,6.63,8.09,17.05,20.33,10.07c12.24-6.98,17.35-18.44,26.11-23.62c8.79-5.17,17.18-8.13,32.1-10
						c14.92-1.86,36.79-11.61,30.84-28.38c-5.95-16.76,0.85-29.78-11.72-40.75c-2.89-2.55-5.27-4.21-7.39-5.48
						c-7.04-4.18-11.26-3.55-22.51-13.17c0,0-16.51-9.8-24.56-7.85c-8.07,1.96-13.6,12.52-25.84,13.54
						c-12.24,1.02-19.91-0.07-22.4,4.94c-2.5,4.99-9.94,15.71-15.9,16.28c-5.94,0.56-12.7-0.98-14.03,9.5
						c-1.34,10.46,8.35,16.47,3.17,34.24C941.67,1564.75,941,1567.27,940.42,1569.77z"/>
				</g>
			</g>
		</g>
		<g class="st23">
			<g>
				<g>
					<path class="st24" d="M1036.22,1545.15c-14.92,1.86-23.3,4.83-32.06,10.01c-8.77,5.16-13.88,16.62-26.12,23.6
						c-12.25,7.01-14.02-3.44-20.33-10.07c-4.85-5.1-9.25,0.53-17.29,1.09c-3.44,14.79-3.48,28.66,8.25,32.96
						c13.7,5.03,19.23-6.45,25.55,0.18c6.31,6.63,8.09,17.05,20.33,10.07c12.24-6.98,17.35-18.44,26.11-23.62
						c8.79-5.17,17.18-8.13,32.1-10c14.92-1.86,36.79-11.61,30.84-28.38c-5.95-16.76,0.85-29.78-11.72-40.75
						c-2.89-2.55-5.27-4.21-7.39-5.48c0.4,3.78,1.08,7.76,2.59,12.01C1073.01,1533.54,1051.17,1543.3,1036.22,1545.15z"/>
				</g>
			</g>
		</g>
		<g class="st23">
			<g>
				<g>
					<path class="st24" d="M1013.45,1485.41c-6.2,3.63-11.73,11.03-21.88,11.88c-9.26,0.76-15.9,0.33-19.67,2.26
						c1.62,1.43,3.51,2.56,4.95,4.18c1.18,1.32,1.98,2.9,2.78,4.47c1.25,2.44,2.47,4.86,3.72,7.3c0.67,1.33,1.38,2.68,2.42,3.74
						c1.85,1.82,4.48,2.51,6.98,3.14c0.7,0.17,1.42,0.33,2.13,0.26c2.38-0.28,3.53-2.97,4.87-4.95c1.78-2.65,4.54-4.4,7.06-6.33
						c2.51-1.93,4.96-4.34,5.64-7.43c0.82-3.85-1.31-7.82-0.8-11.72C1011.92,1489.91,1013.35,1487.71,1013.45,1485.41z"/>
				</g>
			</g>
		</g>
		<g class="st23">
			<g>
				<g>
					<path class="st24" d="M948.57,1524.47c1.39,0.5,1.77,2.35,2.98,3.19c1.3-0.78,2.58-1.56,3.88-2.34
						c0.29-0.18,0.61-0.35,0.96-0.35c0.57,0.01,0.99,0.53,1.31,1c0.76,1.06,1.52,2.12,2.26,3.19c0.13,0.16,0.26,0.35,0.46,0.4
						c0.19,0.03,0.39-0.08,0.58-0.2c1.19-0.75,2.37-1.57,3.27-2.68c0.89-1.08,1.48-2.49,1.32-3.91c-0.19-1.82-1.54-3.28-2.14-5.01
						c-0.57-1.62-0.16-4.11-0.77-5.91c-2.96,3.47-6.39,6.39-9.43,6.68c-5.04,0.47-10.67-0.57-13.08,5.52
						c0.16,0.17,0.33,0.34,0.52,0.5c0.73,0.66,1.64,1.23,2.64,1.23C945.17,1525.74,946.85,1523.83,948.57,1524.47z"/>
				</g>
			</g>
		</g>
		<g class="st23">
			<g>
				<g>
					<path class="st24" d="M965.48,1555.98c1.47,1.41,3.64,1.72,5.67,1.9c2.18,0.2,4.37,0.33,6.57,0.39
						c2.3,0.07,4.69,0.04,6.75-0.99c2.6-1.29,4.22-3.94,5.57-6.52c0.71-0.37,1.47-2.93,1.83-3.7c0.56-1.2,0.99-2.53,1.65-3.67
						c1.02-1.77,3.32-2.03,4.33-3.77c0.44-0.76,0.38-1.89-0.36-2.36c-0.56-0.36-1.29-0.23-1.94-0.38c-0.69-0.16-1.27-0.61-1.86-0.99
						c-2.63-1.69-6.05-2.08-8.99-1.02c-1.13,0.41-2.19,1.03-3,1.91c-1.15,1.25-1.7,2.92-2.48,4.44c-0.77,1.52-1.95,3.01-3.63,3.33
						c-3.01,0.57-5.53-2.92-8.59-2.77c-1.36,0.07-2.57,0.86-3.7,1.62c-1.29,0.87-2.72,1.99-2.71,3.55c0.01,0.77,0.38,1.48,0.74,2.15
						c0.86,1.58,1.73,3.15,2.63,4.71C964.39,1554.59,964.85,1555.37,965.48,1555.98z"/>
				</g>
			</g>
		</g>
		<g class="st23">
			<g>
				<g>
					<path class="st24" d="M1027.21,1520.1c-0.46,1.16-1.06,2.32-1.17,3.58c-0.2,2.25,1.14,4.28,2.41,6.12
						c0.21,0.3,0.42,0.6,0.73,0.77c0.41,0.19,0.88,0.12,1.34,0.07c2.1-0.33,4.24-0.69,6.21-1.46c2-0.77,3.88-2.01,5.04-3.79
						c0.85-1.34,1.29-2.9,2.16-4.22c1.16-1.78,2.98-2.99,4.57-4.39c3.32-2.94,5.72-6.88,6.8-11.15c0.56-2.16,1.53-2.69,3.06-3.82
						c-4.28-1.82-8.68-3.6-16.4-10.19c0,0-10.82-6.42-19.2-7.82c-0.23,0.25-0.44,0.48-0.63,0.74c-0.74,0.98-1.43,2-1.85,3.14
						c-1.08,2.81-0.49,6.03,0.78,8.76c0.59,1.27,1.35,2.48,2.35,3.47c2.11,2.09,5.46,3.3,6.22,6.17c0.28,1.08,0.12,2.24-0.02,3.33
						C1029.12,1513.02,1028.62,1516.71,1027.21,1520.1z"/>
				</g>
			</g>
		</g>
	</g>
	<g>
		<g>
			<g>
				<g>
					<g>
						<polygon class="st26" points="531.24,1633.2 588.18,1629.15 570.13,1505.32 514.4,1517.7 424.8,1537.6 381.39,1547.24 
							395.34,1642.87 439.69,1639.71 						"/>
					</g>
				</g>
			</g>
			<g>
				<g>
					<g>
						<path class="st30" d="M587.7,1581.2l-4.31-29.54l-6.63-45.45l-0.01,0c-0.43-2.4-2.65-4.04-5.04-3.7
							c-2.39,0.35-4.04,2.56-3.77,4.98l-0.01,0l6.63,45.45l4.31,29.54l6.63,45.45l0.01,0c0.43,2.4,2.65,4.04,5.04,3.7
							c2.39-0.35,4.04-2.56,3.77-4.98l0.01,0L587.7,1581.2z"/>
					</g>
				</g>
			</g>
			<g>
				<g>
					<g>
						<path d="M571.85,1503.4c1.91-0.28,3.68,1.03,4.03,2.97l0.03,0.17l10.9,74.78l1.76-0.26l-10.93-74.98l-0.14-0.88l-0.09,0.01
							c-0.83-2.42-3.24-3.96-5.82-3.58c-2.58,0.38-4.45,2.53-4.56,5.09l-0.1,0.01l16.26,111.51l1.76-0.26l-16.09-110.38l-0.03-0.22
							C568.62,1505.44,569.94,1503.68,571.85,1503.4z"/>
					</g>
				</g>
			</g>
			<g>
				<g>
					<g>
						<polygon class="st28" points="514.4,1517.7 424.8,1537.6 439.69,1639.71 531.24,1633.2 						"/>
					</g>
				</g>
			</g>
			<g>
				<g>
					<g>
						<polygon points="567.49,1504.81 381.2,1546.37 380.39,1546.55 394.45,1643 396.22,1642.74 382.39,1547.93 567.87,1506.55 
													"/>
					</g>
				</g>
			</g>
			<g>
				<g>
					<g>
						
							<rect x="421.82" y="1636.26" transform="matrix(0.9975 -0.071 0.071 0.9975 -114.9647 37.8751)" width="107.63" height="1.78"/>
					</g>
				</g>
			</g>
			<g>
				<g>
					<g>
						<g>
							<path d="M471.89,1579.03c1.92-1.52,3.74-2.97,5.53-4.35c8.79-6.81,20.57-10.03,30.93-11.51
								c-7.94-9.59-24.37-12.72-40.29-6.76c-18.9,7.07-29.93,24.27-24.64,38.4c0.39,1.03,0.85,2.02,1.39,2.96
								C454.24,1593.01,463.58,1585.62,471.89,1579.03z"/>
						</g>
					</g>
				</g>
				<g>
					<g>
						<g>
							<path d="M512.72,1572.17c-9.79,1.08-21.44,3.74-29.5,9.99c-1.75,1.36-3.55,2.78-5.45,4.29
								c-7.97,6.32-16.91,13.39-26.34,18.54c8.76,6.22,22.45,7.61,35.79,2.61C504.82,1601.02,515.59,1585.67,512.72,1572.17z"/>
						</g>
					</g>
				</g>
			</g>
		</g>
	</g>
	<g>
		<path class="st29" d="M897.78,1645.96c7.7-8.89-41.48-5.33-50.96-8.73c-9.48-3.39-29.63,0-29.63,0h-2.96
			c-46.22,7.27-20.15,18.8,0,18.8C834.37,1656.03,890.07,1654.85,897.78,1645.96z"/>
	</g>
	<g class="st1">
		<path class="st2" d="M627.98,549.14c1.38-1.35,1.41-3.57,0.06-4.95c-1.35-1.38-3.56-1.41-4.95-0.06
			c-0.84,0.82-20.69,20.38-38.12,55.67c-16.08,32.54-32.87,85.06-21.6,150.44c0.29,1.7,1.77,2.91,3.45,2.91c0.2,0,0.4-0.02,0.6-0.05
			c1.9-0.33,3.18-2.14,2.85-4.04c-10.94-63.41,5.3-114.34,20.85-145.9C608.02,568.86,627.78,549.33,627.98,549.14z"/>
	</g>
	<g class="st1">
		<path class="st2" d="M578.87,565.93c1.38-1.35,1.41-3.56,0.06-4.95c-1.35-1.38-3.56-1.41-4.95-0.06
			c-0.63,0.61-15.51,15.28-28.56,41.69c-12.03,24.35-24.6,63.64-16.16,112.57c0.29,1.7,1.77,2.91,3.45,2.91c0.2,0,0.4-0.02,0.6-0.05
			c1.9-0.33,3.18-2.14,2.85-4.04c-8.1-46.95,3.91-84.66,15.41-108.03C564.08,580.54,578.73,566.07,578.87,565.93z"/>
	</g>
	<g class="st1">
		<path class="st2" d="M1355.86,739.13c0.39,0.14,0.78,0.2,1.17,0.2c1.44,0,2.79-0.9,3.3-2.34c0.26-0.72,6.26-18.01,6.27-43.77
			c0.01-23.75-5.34-59.42-30.89-94.52c-1.14-1.56-3.33-1.91-4.89-0.77c-1.56,1.14-1.91,3.33-0.77,4.89
			c24.37,33.47,29.52,67.48,29.55,90.11c0.04,24.64-5.81,41.56-5.87,41.73C1353.08,736.49,1354.04,738.49,1355.86,739.13z"/>
	</g>
	<g class="st1">
		<path class="st2" d="M1379.63,715.24c0.39,0.14,0.78,0.2,1.17,0.2c1.44,0,2.79-0.9,3.3-2.34c0.19-0.54,4.71-13.56,4.72-32.89
			c0.01-17.82-4.01-44.58-23.17-70.91c-1.14-1.56-3.33-1.91-4.89-0.77c-1.56,1.14-1.91,3.33-0.77,4.89
			c34.46,47.33,17.69,96.85,17.51,97.35C1376.85,712.6,1377.8,714.6,1379.63,715.24z"/>
	</g>
</g>
</svg>
