<?xml version="1.0" encoding="UTF-8" standalone="no"?>
<!-- Generator: Adobe Illustrator 27.0.0, SVG Export Plug-In . SVG Version: 6.00 Build 0)  -->

<svg
   version="1.1"
   id="Layer_1"
   x="0px"
   y="0px"
   viewBox="0 0 3039.92 2499.9999"
   xml:space="preserve"
   sodipodi:docname="facerecognition.svg"
   width="3039.9199"
   height="2500"
   inkscape:version="1.1.1 (c3084ef, 2021-09-22)"
   xmlns:inkscape="http://www.inkscape.org/namespaces/inkscape"
   xmlns:sodipodi="http://sodipodi.sourceforge.net/DTD/sodipodi-0.dtd"
   xmlns="http://www.w3.org/2000/svg"
   xmlns:svg="http://www.w3.org/2000/svg"><defs
   id="defs948" /><sodipodi:namedview
   id="namedview946"
   pagecolor="#ffffff"
   bordercolor="#999999"
   borderopacity="1"
   inkscape:pageshadow="0"
   inkscape:pageopacity="0"
   inkscape:pagecheckerboard="0"
   showgrid="false"
   width="3039.9199px"
   inkscape:zoom="0.10688036"
   inkscape:cx="1520.3916"
   inkscape:cy="2830.2674"
   inkscape:window-width="1312"
   inkscape:window-height="847"
   inkscape:window-x="0"
   inkscape:window-y="25"
   inkscape:window-maximized="0"
   inkscape:current-layer="Layer_1" />
<style
   type="text/css"
   id="style824">
	.st0{fill:url(#SVGID_1_);}
	.st1{fill:#FFFFFF;}
	.st2{fill:#91B3FA;}
	.st3{fill:#FF931E;}
	.st4{fill:url(#SVGID_00000126307109371133724220000005298146730760749201_);}
	.st5{fill:url(#SVGID_00000165230196374251697240000007984862956902024876_);}
	.st6{fill:url(#SVGID_00000034807737495749432930000015127853027240705421_);}
	.st7{fill:url(#SVGID_00000045581138715098913130000014714753403306301336_);}
	.st8{fill:#333333;}
	.st9{fill:url(#SVGID_00000078006950691010304140000014735289917607077260_);}
	.st10{fill:url(#SVGID_00000173134414611574793150000011784936097533947302_);}
</style>
<g
   id="g943"
   transform="translate(138.2063)">
	
		<linearGradient
   id="SVGID_1_"
   gradientUnits="userSpaceOnUse"
   x1="3120.2419"
   y1="13627.229"
   x2="660.72559"
   y2="16681.795"
   gradientTransform="matrix(1,0,0,-1,0,17207.41)">
		<stop
   offset="0"
   style="stop-color:#DAE3FE"
   id="stop826" />
		<stop
   offset="1"
   style="stop-color:#E9EFFD"
   id="stop828" />
	</linearGradient>
	<path
   class="st0"
   d="m 2451.92,2369.81 c -56.95,59.16 -110.83,97.31 -153.41,127.45 -500.44,354.32 -1092.6,251.04 -1218.45,225.81 C 894.22,2685.82 534.99,2613.83 275.28,2312.46 -117.65,1856.51 -56.46,1138.16 248.32,663.98 304.07,577.24 598.55,95.83 1197.09,18.63 c 362.23,-46.72 784.47,47.51 1090.25,300.3 641.83,530.62 596.14,1602.57 164.58,2050.88 z"
   id="path831"
   style="fill:url(#SVGID_1_)" />
	<g
   id="g839">
		<path
   class="st1"
   d="m 2156.64,1005.04 c -0.03,0 -0.07,0 -0.1,0 l -20.04,-0.28 c -3.69,-0.05 -6.64,-3.08 -6.59,-6.77 0.05,-3.69 2.96,-6.54 6.77,-6.59 l 20.04,0.28 c 3.69,0.05 6.64,3.08 6.59,6.77 -0.05,3.66 -3.03,6.59 -6.67,6.59 z"
   id="path833" />
		<path
   class="st1"
   d="m 2097.48,1004.21 c -0.03,0 -0.07,0 -0.1,0 l -39.12,-0.55 c -3.69,-0.05 -6.64,-3.08 -6.59,-6.77 0.05,-3.66 3.03,-6.59 6.68,-6.59 0.03,0 0.07,0 0.1,0 l 39.12,0.55 c 3.69,0.05 6.64,3.08 6.59,6.77 -0.06,3.67 -3.04,6.59 -6.68,6.59 z m -78.25,-1.09 c -0.03,0 -0.07,0 -0.1,0 l -39.12,-0.55 c -3.69,-0.05 -6.64,-3.09 -6.59,-6.77 0.05,-3.69 3.22,-6.56 6.77,-6.59 l 39.12,0.55 c 3.69,0.05 6.64,3.09 6.59,6.77 -0.04,3.66 -3.03,6.59 -6.67,6.59 z m -78.24,-1.1 c -0.03,0 -0.07,0 -0.1,0 l -39.12,-0.55 c -3.69,-0.05 -6.64,-3.08 -6.59,-6.77 0.06,-3.69 3.16,-6.56 6.77,-6.59 l 39.12,0.55 c 3.69,0.05 6.64,3.08 6.59,6.77 -0.05,3.66 -3.03,6.59 -6.67,6.59 z"
   id="path835" />
		<path
   class="st1"
   d="m 1862.75,1000.92 c -0.03,0 -0.07,0 -0.1,0 l -20.04,-0.28 c -3.69,-0.05 -6.64,-3.08 -6.59,-6.77 0.06,-3.69 3.14,-6.65 6.77,-6.59 l 20.04,0.28 c 3.69,0.05 6.64,3.08 6.59,6.77 -0.05,3.66 -3.03,6.59 -6.67,6.59 z"
   id="path837" />
	</g>
	<g
   id="g865">
		<g
   id="g845">
			<path
   class="st2"
   d="m 316.54,861.41 c -0.06,9.36 -7.7,16.91 -17.07,16.84 -9.36,-0.06 -16.91,-7.7 -16.84,-17.07 0.06,-9.36 7.7,-16.9 17.07,-16.84 9.36,0.07 16.9,7.71 16.84,17.07 z"
   id="path841" />
			<path
   class="st2"
   d="m 315.98,861.41 c -0.06,9.05 -7.45,16.34 -16.5,16.28 -9.05,-0.06 -16.34,-7.45 -16.28,-16.5 0.06,-9.05 7.45,-16.34 16.5,-16.28 9.04,0.06 16.33,7.45 16.28,16.5 z"
   id="path843" />
		</g>
		<g
   id="g851">
			<path
   class="st2"
   d="m 316.54,964.2 c -0.06,9.36 -7.7,16.91 -17.07,16.84 -9.36,-0.06 -16.91,-7.7 -16.84,-17.07 0.06,-9.36 7.7,-16.91 17.07,-16.84 9.36,0.06 16.9,7.71 16.84,17.07 z"
   id="path847" />
			<path
   class="st2"
   d="m 315.98,964.2 c -0.06,9.05 -7.45,16.34 -16.5,16.28 -9.05,-0.06 -16.34,-7.45 -16.28,-16.5 0.06,-9.05 7.45,-16.34 16.5,-16.28 9.04,0.06 16.33,7.44 16.28,16.5 z"
   id="path849" />
		</g>
		<g
   id="g857">
			<path
   class="st2"
   d="m 316.54,1066.99 c -0.06,9.36 -7.7,16.9 -17.07,16.84 -9.36,-0.06 -16.91,-7.7 -16.84,-17.07 0.06,-9.36 7.7,-16.91 17.07,-16.84 9.36,0.06 16.9,7.7 16.84,17.07 z"
   id="path853" />
			<path
   class="st2"
   d="m 315.98,1066.98 c -0.06,9.05 -7.45,16.34 -16.5,16.28 -9.05,-0.06 -16.34,-7.45 -16.28,-16.5 0.06,-9.05 7.45,-16.34 16.5,-16.28 9.04,0.06 16.33,7.45 16.28,16.5 z"
   id="path855" />
		</g>
		<path
   class="st1"
   d="m 342.62,860.53 0.08,2.89 c 0.21,7.82 5.09,14.02 11.06,14.05 l 454.12,0.69 c 6.16,0.03 11.17,-6.51 11.16,-14.59 v 0 c -0.01,-7.92 -4.85,-14.38 -10.89,-14.54 l -454.2,-3.58 c -6.38,-0.17 -11.55,6.72 -11.33,15.08 z"
   id="path859" />
		<path
   class="st1"
   d="m 342.62,962.82 0.08,2.89 c 0.21,7.82 5.09,14.02 11.06,14.05 l 454.12,0.69 c 6.16,0.03 11.17,-6.51 11.16,-14.59 v 0 c -0.01,-7.92 -4.85,-14.38 -10.89,-14.54 l -454.2,-3.58 c -6.38,-0.17 -11.55,6.72 -11.33,15.08 z"
   id="path861" />
		<path
   class="st1"
   d="m 342.62,1065.1 0.08,2.89 c 0.21,7.82 5.09,14.02 11.06,14.05 l 454.12,0.69 c 6.16,0.03 11.17,-6.51 11.16,-14.59 v 0 c -0.01,-7.92 -4.85,-14.38 -10.89,-14.54 l -454.2,-3.58 c -6.38,-0.17 -11.55,6.72 -11.33,15.08 z"
   id="path863" />
	</g>
	<g
   id="g925">
		<g
   id="g876">
			<path
   class="st3"
   d="m 2552.49,2036.19 c -20.43,-62.5 -56.4,-118.06 -103.54,-163.09 -59.61,-56.94 -137.09,-97.04 -223.6,-113.01 0,0 -112.28,-19.41 -235.47,-51.14 -40.25,-10.37 -83.32,-1.68 -115.6,23.12 -86.07,66.13 -247.68,152.23 -501.55,146.42 -229.97,-5.26 -362.14,-74.09 -433.79,-133.34 -33.34,-27.57 -79.27,-37.38 -121.94,-25.67 -92.75,25.44 -169.9,40.6 -169.9,40.6 -154.91,28.61 -351.87,134.56 -398.14,276.1 -44.33,135.61 -89.57,358.92 -94.4,545.8 -1.75,67.95 56.17,124.04 128.66,124.04 h 2235.01 c 72.49,0 130.41,-56.09 128.66,-124.04 -4.83,-186.89 -50.07,-410.19 -94.4,-545.79 z"
   id="path867" />
			
				<linearGradient
   id="SVGID_00000141453705351461769840000002509576129723724187_"
   gradientUnits="userSpaceOnUse"
   x1="1406.6329"
   y1="15191.204"
   x2="1371.5656"
   y2="15972.719"
   gradientTransform="matrix(1,0,0,-1,0,17207.41)">
				<stop
   offset="0"
   style="stop-color:#FEBBBA"
   id="stop869" />
				<stop
   offset="1"
   style="stop-color:#FF928E"
   id="stop871" />
			</linearGradient>
			<path
   style="fill:url(#SVGID_00000141453705351461769840000002509576129723724187_)"
   d="m 1372.73,1890.06 c 313.03,7.64 532.5,-117.97 596.32,-184.72 -126.91,-39.32 -292.66,-106.8 -294.64,-162.75 l -19.11,-538.96 h -504.16 l -19.11,538.96 c -2.12,59.72 -195.33,137.72 -315.03,177.88 51.18,65.38 259.04,162.35 555.73,169.59 z"
   id="path874" />
		</g>
		<g
   id="g907">
			
				<linearGradient
   id="SVGID_00000177479890123894663970000006027515508088267179_"
   gradientUnits="userSpaceOnUse"
   x1="1364.9147"
   y1="15828.522"
   x2="1374.9349"
   y2="17256.293"
   gradientTransform="matrix(1,0,0,-1,0,17207.41)">
				<stop
   offset="0"
   style="stop-color:#FEBBBA"
   id="stop878" />
				<stop
   offset="1"
   style="stop-color:#FF928E"
   id="stop880" />
			</linearGradient>
			<path
   style="fill:url(#SVGID_00000177479890123894663970000006027515508088267179_)"
   d="m 961.05,525.67 c 0,0 72.55,785.91 284.43,870.38 0,0 171.93,74.05 315.55,-9.73 0,0 236.89,-215.59 219.86,-854.66 0,0 19.61,-370.29 -388.97,-400.94 C 913.18,94.81 961.05,525.67 961.05,525.67 Z"
   id="path883" />
			
				<linearGradient
   id="SVGID_00000057119881645589666200000014135266096647832964_"
   gradientUnits="userSpaceOnUse"
   x1="1793.6298"
   y1="15825.515"
   x2="1803.6499"
   y2="17253.283"
   gradientTransform="matrix(1,0,0,-1,0,17207.41)">
				<stop
   offset="0"
   style="stop-color:#FEBBBA"
   id="stop885" />
				<stop
   offset="1"
   style="stop-color:#FF928E"
   id="stop887" />
			</linearGradient>
			<path
   style="fill:url(#SVGID_00000057119881645589666200000014135266096647832964_)"
   d="m 1739,801.99 c 0,0 35.91,-107.72 95.74,-107.72 59.84,0 -11.97,287.24 -95.74,287.24 z"
   id="path890" />
			
				<linearGradient
   id="SVGID_00000150077590760627124250000005165473435931765666_"
   gradientUnits="userSpaceOnUse"
   x1="971.85608"
   y1="15831.28"
   x2="981.87628"
   y2="17259.047"
   gradientTransform="matrix(1,0,0,-1,0,17207.41)">
				<stop
   offset="0"
   style="stop-color:#FEBBBA"
   id="stop892" />
				<stop
   offset="1"
   style="stop-color:#FF928E"
   id="stop894" />
			</linearGradient>
			<path
   style="fill:url(#SVGID_00000150077590760627124250000005165473435931765666_)"
   d="m 1039.72,777.42 c 0,0 -49.37,-91.22 -108.67,-83.15 -59.29,8.07 25.65,298.04 108.67,286.75 z"
   id="path897" />
			<path
   class="st8"
   d="m 1026.35,724.64 c -22.99,10.2 -49.8,-1.18 -58.38,-24.82 C 952.87,658.24 929.68,595.04 910.89,546.74 880.31,468.1 718.65,367.61 889.04,171 c 170.39,-196.61 266.89,16.78 380.3,-39.67 113.41,-56.45 248.85,-187.52 366.81,-104.51 117.96,83.01 39.32,161.65 78.64,183.5 39.32,21.85 100.49,-91.75 144.18,61.17 33.8,118.31 -21.26,336.13 -47.91,428.65 -6.47,22.47 -32.04,33.19 -52.61,22.06 v 0 c -10.85,-5.87 -18.01,-16.78 -19.06,-29.08 -2.95,-34.86 -9.89,-112.1 -20.23,-198.81 -14.07,-117.99 -121.76,45.48 -331.76,68.62 -210,23.13 -192.52,-90.46 -293.01,-90.46 -42.39,0 -43.68,147.88 -42.26,211.62 0.39,17.47 -9.8,33.45 -25.78,40.55 z"
   id="path899" />
			<path
   class="st2"
   d="m 964.37,614.84 c -0.04,0.01 0.54,-0.35 1.23,-0.97 0.53,-0.48 1.44,-1.59 2.05,-3.23 1.25,-3.36 1.05,-9.35 -1.51,-16.5 -2.35,-7.59 -5.37,-16.37 -9.9,-26.19 -4.35,-9.89 -10.1,-20.69 -16.85,-32.22 -6.66,-11.58 -14.33,-23.92 -22.48,-37.04 -8.12,-13.14 -16.66,-27.13 -24.5,-42.31 -7.82,-15.09 -14.94,-31.76 -19.27,-49.19 -4.48,-17.91 -6.62,-36.21 -6.3,-54.74 0.49,-18.47 3.33,-36.85 8.32,-54.35 4.92,-17.53 12.46,-33.98 21.46,-48.8 8.89,-14.73 19.86,-27.88 31.21,-38.85 11.37,-11.07 23.54,-19.94 35.28,-27.12 11.79,-7.14 23.3,-12.4 33.7,-16.38 2.63,-0.92 5.18,-1.81 7.63,-2.67 2.47,-0.82 4.9,-1.45 7.2,-2.14 4.59,-1.44 8.94,-2.29 12.81,-3.22 7.8,-1.63 13.98,-2.6 18.23,-2.92 4.23,-0.43 6.48,-0.65 6.48,-0.65 0.92,-0.09 1.74,0.58 1.83,1.49 0.09,0.86 -0.49,1.63 -1.32,1.8 l -0.1,0.02 c 0,0 -2.18,0.45 -6.27,1.29 -2.04,0.42 -4.56,0.88 -7.47,1.71 -2.91,0.8 -6.31,1.44 -10,2.66 -3.69,1.19 -7.82,2.32 -12.15,4.06 -2.18,0.84 -4.47,1.62 -6.78,2.59 -2.3,1.01 -4.68,2.05 -7.14,3.13 -9.77,4.43 -20.48,10.11 -31.41,17.42 -10.98,7.24 -22.03,16.3 -32.59,26.94 -10.58,10.72 -20.23,23.05 -28.73,37.12 -8.34,13.99 -15.25,29.5 -20.03,45.95 -4.78,16.46 -7.55,33.79 -8.09,51.21 -0.39,17.35 1.35,35.02 5.23,51.44 0.97,4.09 2.33,8.64 3.42,12.48 1.41,4.02 2.7,8.06 4.19,12.02 1.62,3.91 3.04,7.87 4.74,11.71 1.75,3.81 3.36,7.65 5.2,11.37 7.19,14.94 15.23,28.97 22.96,42.29 7.74,13.31 15.19,25.93 21.54,37.91 6.31,12 11.69,23.28 15.69,33.61 4.18,10.25 6.95,19.69 8.9,27.2 2.28,7.76 2.31,14.76 0.36,19.25 -1,2.25 -2.26,3.67 -3.4,4.57 -0.99,0.76 -1.4,0.95 -1.42,0.99 -0.76,0.53 -1.8,0.35 -2.33,-0.41 -0.55,-0.76 -0.37,-1.8 0.38,-2.33 z"
   id="path901" />
			<path
   class="st2"
   d="m 985.78,623.22 c -0.1,0 -0.21,-0.01 -0.32,-0.03 -0.91,-0.17 -1.5,-1.05 -1.33,-1.95 9.07,-47.51 -14.49,-93.09 -37.27,-137.18 -22.08,-42.73 -44.92,-86.92 -39.24,-133.8 7.97,-65.79 69.07,-110.91 114.34,-139.12 0.78,-0.48 1.81,-0.25 2.3,0.53 0.49,0.78 0.25,1.81 -0.53,2.3 -44.69,27.85 -104.99,72.31 -112.79,136.68 -5.55,45.87 17.04,89.59 38.89,131.87 23.04,44.59 46.87,90.69 37.58,139.34 -0.15,0.8 -0.85,1.36 -1.63,1.36 z"
   id="path903" />
			<path
   class="st2"
   d="m 1292.38,453.71 c 0,0 0.21,0.59 0.62,1.74 0.45,1.11 0.94,2.94 1.91,4.98 1.79,4.07 5.11,10.04 10.81,16.36 2.78,3.23 6.38,6.33 10.43,9.47 4.21,2.94 8.87,6.02 14.33,8.41 10.73,5.03 24.11,8.37 38.55,8.28 14.74,0 30.47,-3.28 46.32,-9.29 15.85,-5.99 31.8,-14.5 47.71,-24.29 8.1,-4.92 16.1,-10 24.2,-15.22 8.09,-5.31 16.24,-10.74 24.41,-16.32 16.36,-11.13 32.92,-22.63 49.86,-33.7 16.95,-11.04 34.26,-21.7 52.11,-30.89 17.85,-9.14 36.16,-16.97 54.64,-22.37 4.57,-1.48 9.27,-2.42 13.83,-3.64 4.6,-1.23 9.1,-2.13 13.79,-2.92 9.22,-1.49 18.47,-2.32 27.54,-1.74 9.05,0.52 17.94,2.39 25.93,5.83 1,0.41 2,0.84 2.96,1.34 l 1.45,0.73 0.72,0.36 0.36,0.18 0.18,0.09 0.37,0.22 c 1.7,1.06 3.38,2.12 5.04,3.16 1.66,0.99 3.37,2.56 5.01,3.81 1.72,1.28 3.15,2.71 4.54,4.15 2.95,2.74 5.25,5.9 7.62,8.87 2.07,3.17 4.19,6.21 5.77,9.43 1.8,3.11 3.07,6.34 4.46,9.41 1.16,3.15 2.32,6.2 3.21,9.21 3.64,12.04 5.31,22.78 6.43,31.6 1.14,8.82 1.49,15.78 1.79,20.51 0.23,4.73 0.35,7.26 0.35,7.26 0.05,0.92 -0.67,1.7 -1.59,1.75 -0.88,0.04 -1.64,-0.61 -1.74,-1.48 v -0.03 c 0,0 -0.28,-2.49 -0.8,-7.17 -0.6,-4.66 -1.4,-11.51 -2.88,-20.11 -1.5,-8.58 -3.65,-18.99 -7.66,-30.28 -2.08,-5.6 -4.5,-11.49 -7.84,-17.18 -1.54,-2.94 -3.56,-5.63 -5.51,-8.46 -2.21,-2.6 -4.35,-5.39 -7.04,-7.72 -1.27,-1.25 -2.57,-2.48 -3.99,-3.45 -1.46,-1.02 -2.6,-2.17 -4.35,-3.15 -1.69,-0.99 -3.4,-2 -5.13,-3.01 l -2.33,-1.08 c -0.84,-0.42 -1.72,-0.76 -2.61,-1.1 -7.05,-2.79 -14.94,-4.24 -23.15,-4.48 -8.22,-0.31 -16.79,0.5 -25.46,2.06 -4.26,0.78 -8.76,1.74 -13.1,2.98 -4.37,1.24 -8.87,2.2 -13.25,3.7 -17.74,5.34 -35.44,12.96 -52.81,21.98 -17.4,8.97 -34.55,19.23 -51.39,30.09 -16.85,10.84 -33.45,22.2 -49.94,33.25 -8.24,5.54 -16.48,10.95 -24.68,16.25 -8.27,5.25 -16.48,10.44 -24.64,15.1 -16.42,9.65 -32.99,18.07 -49.66,23.98 -16.61,5.93 -33.49,9.09 -48.99,8.77 -15.8,-0.32 -29.79,-4.47 -41.06,-10.18 -5.71,-2.75 -10.59,-6.18 -14.95,-9.47 -4.22,-3.49 -7.93,-6.93 -10.79,-10.48 -5.85,-7.01 -9.03,-13.48 -10.82,-18.11 -0.94,-2.27 -1.3,-3.99 -1.71,-5.16 -0.36,-1.17 -0.54,-1.77 -0.54,-1.77 -0.27,-0.88 0.22,-1.82 1.1,-2.09 0.85,-0.26 1.76,0.2 2.06,1.03 z"
   id="path905" />
		</g>
		<path
   class="st1"
   d="m 1254.52,1156.03 c 89.2,117.09 176.77,101.79 289.85,0 -91.23,18.98 -198.61,25.01 -289.85,0 z"
   id="path909" />
		
			<linearGradient
   id="SVGID_00000182492064508985572940000011401536037556123805_"
   gradientUnits="userSpaceOnUse"
   x1="1590.6761"
   y1="16452.617"
   x2="1600.0341"
   y2="16545.156"
   gradientTransform="matrix(1,0,0,-1,0,17207.41)">
			<stop
   offset="0"
   style="stop-color:#09005D"
   id="stop911" />
			<stop
   offset="1"
   style="stop-color:#1A0F91"
   id="stop913" />
		</linearGradient>
		<path
   style="fill:url(#SVGID_00000182492064508985572940000011401536037556123805_)"
   d="m 1462.15,722.04 v 0 c 0,9.54 9.32,16.33 18.37,13.32 43.88,-14.59 157.5,-44.04 243.36,6.69 0,0 -47.99,-110.37 -252.75,-33.1 -5.42,2.04 -8.98,7.29 -8.98,13.09 z"
   id="path916" />
		
			<linearGradient
   id="SVGID_00000078738320075441148420000005779426392571551618_"
   gradientUnits="userSpaceOnUse"
   x1="-10676.894"
   y1="16452.617"
   x2="-10667.536"
   y2="16545.154"
   gradientTransform="rotate(180,-4745.312,8603.7051)">
			<stop
   offset="0"
   style="stop-color:#09005D"
   id="stop918" />
			<stop
   offset="1"
   style="stop-color:#1A0F91"
   id="stop920" />
		</linearGradient>
		<path
   style="fill:url(#SVGID_00000078738320075441148420000005779426392571551618_)"
   d="m 1314.8,722.04 v 0 c 0,9.54 -9.32,16.33 -18.37,13.32 -43.88,-14.59 -157.5,-44.04 -243.36,6.69 0,0 47.99,-110.37 252.75,-33.1 5.42,2.04 8.98,7.29 8.98,13.09 z"
   id="path923" />
	</g>
	<g
   id="g941">
		<g
   id="g931">
			<path
   class="st1"
   d="m 972.74,560.44 c -9.22,0 -16.7,-7.48 -16.7,-16.7 V 423.15 c 0,-32.06 26.08,-58.15 58.15,-58.15 h 83.46 c 9.22,0 16.7,7.48 16.7,16.7 0,9.22 -7.48,16.7 -16.7,16.7 h -83.46 c -13.64,0 -24.75,11.1 -24.75,24.75 v 120.59 c 0,9.22 -7.48,16.7 -16.7,16.7 z"
   id="path927" />
			<path
   class="st1"
   d="m 1781.8,560.44 c -9.22,0 -16.7,-7.48 -16.7,-16.7 V 423.15 c 0,-13.65 -11.1,-24.75 -24.75,-24.75 h -83.46 c -9.22,0 -16.7,-7.48 -16.7,-16.7 0,-9.22 7.48,-16.7 16.7,-16.7 h 83.46 c 32.06,0 58.15,26.08 58.15,58.15 v 120.59 c 0,9.22 -7.48,16.7 -16.7,16.7 z"
   id="path929" />
		</g>
		<g
   id="g937">
			<path
   class="st1"
   d="m 1097.64,1514.65 h -83.46 c -32.06,0 -58.15,-26.08 -58.15,-58.15 v -120.59 c 0,-9.22 7.48,-16.7 16.7,-16.7 9.22,0 16.7,7.48 16.7,16.7 v 120.59 c 0,13.65 11.1,24.75 24.75,24.75 h 83.46 c 9.22,0 16.7,7.48 16.7,16.7 0,9.23 -7.47,16.7 -16.7,16.7 z"
   id="path933" />
			<path
   class="st1"
   d="m 1740.35,1514.65 h -83.46 c -9.22,0 -16.7,-7.48 -16.7,-16.7 0,-9.22 7.48,-16.7 16.7,-16.7 h 83.46 c 13.64,0 24.75,-11.1 24.75,-24.75 v -120.59 c 0,-9.22 7.48,-16.7 16.7,-16.7 9.22,0 16.7,7.48 16.7,16.7 v 120.59 c 0,32.07 -26.08,58.15 -58.15,58.15 z"
   id="path935" />
		</g>
		<path
   class="st1"
   d="M 1718.31,1458.94 H 1035.1 c -13.49,0 -24.47,-10.98 -24.47,-24.47 V 442.19 c 0,-13.49 10.98,-24.47 24.47,-24.47 h 683.21 c 13.49,0 24.47,10.98 24.47,24.47 v 992.28 c 0,13.49 -10.98,24.47 -24.47,24.47 z M 1035.1,427.74 c -7.97,0 -14.45,6.48 -14.45,14.45 v 992.28 c 0,7.97 6.48,14.45 14.45,14.45 h 683.21 c 7.97,0 14.45,-6.48 14.45,-14.45 V 442.19 c 0,-7.97 -6.48,-14.45 -14.45,-14.45 z"
   id="path939" />
	</g>
</g>
</svg>
