<?xml version="1.0" encoding="utf-8"?>
<!-- Generator: Adobe Illustrator 27.0.0, SVG Export Plug-In . SVG Version: 6.00 Build 0)  -->
<svg version="1.1" id="Layer_1" xmlns="http://www.w3.org/2000/svg" xmlns:xlink="http://www.w3.org/1999/xlink" x="0px" y="0px"
	 viewBox="0 0 595.28 841.89" style="enable-background:new 0 0 595.28 841.89;" xml:space="preserve">
<style type="text/css">
	.st0{fill:#F8BD8C;}
	.st1{fill:#32225E;}
	.st2{fill:#B8A3CE;}
	.st3{fill:#EAB186;}
	.st4{fill:#F2B587;}
	.st5{fill:#1A1A1A;}
	.st6{fill:#1B191B;}
	.st7{fill:#010101;}
	.st8{fill:#7E5DA7;}
</style>
<g>
	<g>
		<polygon class="st0" points="303.65,178.91 290.5,226.94 318.85,260.14 359.37,239.84 357.67,189.24 		"/>
	</g>
	<g>
		<polygon class="st1" points="448.41,602.82 448.41,841.02 327.59,841.02 327.59,608.85 440.49,603.21 		"/>
	</g>
	<g>
		<path class="st1" d="M366.86,613.89l-4.13,11.43l-4.07,11.29l-13.69,37.89l-17.38,48.11l-27.9,118.41h-109.3
			c0.06,0.33,0.09,0.5,0.09,0.5l-15.01,0.36l0.1-0.87l6.02-48.5l0.88-7.11l2.36-19.03l2.21-17.81l1.67-13.46l7.82-62.99l2.13-17.14
			l5.1-41.1H366.86z"/>
	</g>
	<g>
		<path class="st2" d="M293.59,218.12c0,0-59.4,36.26-85.57,49c-26.18,12.74-43.29,31.36-49.33,42.14
			c-6.04,10.78-20.13,20.58-19.13,27.44c1.01,6.86-23.15,36.26-28.19,60.76c-5.03,24.5-14.09,105.84-14.09,108.78
			c0,2.94,16.11,70.56,16.11,70.56s47.32,47.04,57.38,57.82c10.07,10.78,40.27,28.42,44.3,28.42c4.03,0,29.2-16.66,28.19-33.32
			c-1.01-16.66-8.05-64.68-15.1-72.52c-5.51-6.13-12.25-11.66-17.34-19.88c-1.42-2.29-2.71-4.79-3.8-7.56
			c-5.03-12.74,9.06-43.12,9.06-43.12s45.3-107.8,43.29-122.5c-2.01-14.7,13.09-66.64,9.06-80.36
			C264.4,270.06,293.59,218.12,293.59,218.12z"/>
	</g>
	<g>
		<path class="st2" d="M453.66,350.37c0,0,10.07,138.23,9.06,161.75c-1.01,23.52-5.9,37.24,0.07,63.7c5.97,26.46,3.09,34.3,0,44.1
			c-3.09,9.8-41.35,8.82-41.35,8.82L242.18,618.3l-67.39-97.36l87.59-272.44l31.21-30.38c0,0,35.74,30.38,65.44,12.25
			c0,0,82.55,46.55,94.13,55.37C464.74,294.56,453.66,350.37,453.66,350.37z"/>
	</g>
	<g>
		<path class="st2" d="M454.33,289.33c0,0,21.51,28.08,20.83,47.02c-0.67,18.95,5.14,88.94,5.72,109.23
			c0.58,20.08,1.81,22.98,4.49,38c2.68,15.03,6.76,41.46,7.76,74.78c1.01,33.32,3.94,56.48-6.13,73.14
			c-10.07,16.66-40.05,25.16-40.05,25.16s2.9-17.78-1.63-20.26c-4.53-2.48,4.9-14.3,4.9-14.3L438.9,355.97L454.33,289.33z"/>
	</g>
	<g>
		<path class="st3" d="M297.15,185.59c-2.9-6.75,19.3,37.38,41.97,34.9c19.44-2.12,20.24-38.05,20.24-38.05s-6.9,11.35-27.42,11.37
			C309.07,193.84,297.15,185.59,297.15,185.59L297.15,185.59L297.15,185.59z"/>
	</g>
	<g>
		<path class="st4" d="M399.59,128.45c-0.52,9.7-6.95,17.23-14.36,16.83c-7.41-0.4-12.99-8.58-12.46-18.28
			c0.52-9.7,6.95-17.23,14.36-16.83C394.54,110.57,400.12,118.75,399.59,128.45z"/>
	</g>
	<g>
		<path class="st4" d="M292.3,122.52c-0.52,9.7-6.95,17.23-14.36,16.83c-7.41-0.4-12.99-8.58-12.46-18.28
			c0.52-9.7,6.95-17.23,14.36-16.83C287.25,104.64,292.83,112.82,292.3,122.52z"/>
	</g>
	<g>
		<path class="st0" d="M393.55,127.98c-7.03,41.28-30.97,76.75-63.96,74.97c-32.99-1.78-50.31-32.51-55.51-81.42
			c-4.57-42.91,30.97-76.75,63.96-74.97C371.02,48.35,400.79,85.4,393.55,127.98z"/>
	</g>
	<g>
		<path class="st5" d="M317.83,62.8c0.1,2.73-0.33,7.13-0.06,8.45c0.73,3.65,2.65,7.2,5.75,8.88c2.14,1.16,4.62,1.34,7.03,1.4
			c8.76,0.23,17.92-3.54,26.33-3.16c3.87,0.18,6.81,2.98,10.09,5.18c6.07,4.06,17.26,3.1,17.26,3.11
			c5.73,8.01,6.28,19.95,12.13,27.35c1.41-0.88,2.67-2.03,3.99-3.14c7.86-6.61,8.32-7.82,5.77-18.19
			c-2.04-8.31,3.55-11.86,6.37-18.51c3.88-9.13,10.63-17.58,3.75-24.7c-8.94-9.25-15.43-16.68-21.13-28.78
			c-3.18-6.75-7.44-14.13-14.41-15.42c-11.24-2.09-19.79,10.25-31.1,2.72c-4.12-2.74-8.08-6.28-12.9-6.9
			c-5.01-0.64-9.9,2.03-13.97,5.25c-5.08,4.01-9.7,8.73-15.64,11.3c-9.79,4.25-21.04,5.95-29.08,13.9
			c-5.37,5.31-8.34,12.52-11.05,19.62c-2.3,6.02-6.37,12.95-6.96,19.42c-0.67,7.29,3.57,22.9,9.34,27.51
			c2.78,2.23,4.84,7.55,4.84,7.55s8.87-16.32,10.36-20.04c1.49-3.72,8.79-13.36,13.82-16.89c5.03-3.53,6.71-4.82,10.68-6.68
			C311.68,60.8,317.66,57.9,317.83,62.8z"/>
	</g>
	<g>
		<path class="st6" d="M306.87,119.78c-0.15,2.87-2.6,5.07-5.47,4.91c-2.87-0.15-5.07-2.61-4.91-5.47c0.16-2.87,2.61-5.07,5.47-4.91
			C304.83,114.46,307.03,116.91,306.87,119.78z"/>
	</g>
	<g>
		<path class="st6" d="M368.88,123.12c-0.15,2.87-2.6,5.07-5.47,4.91c-2.87-0.15-5.07-2.61-4.91-5.47c0.15-2.87,2.6-5.07,5.47-4.91
			C366.84,117.81,369.04,120.26,368.88,123.12z"/>
	</g>
	<g>
		<g>
			<path class="st1" d="M289.19,104.82c-1.35-0.01-2.64-0.81-3.19-2.14c-0.74-1.77,0.1-3.82,1.87-4.56
				c16.77-6.98,29.44-0.3,29.98-0.01c1.69,0.92,2.32,3.03,1.41,4.72c-0.92,1.69-3.01,2.32-4.71,1.41
				c-0.48-0.26-10.46-5.33-23.99,0.31C290.11,104.73,289.65,104.82,289.19,104.82z"/>
		</g>
	</g>
	<g>
		<g>
			<path class="st1" d="M352.28,107.03c-1.35-0.09-2.58-0.98-3.05-2.34c-0.63-1.82,0.34-3.8,2.16-4.43
				c17.18-5.91,29.4,1.56,29.92,1.88c1.63,1.02,2.12,3.17,1.11,4.8c-1.02,1.63-3.15,2.13-4.79,1.11c-0.47-0.29-10.1-5.98-23.97-1.2
				C353.2,107,352.74,107.06,352.28,107.03z"/>
		</g>
	</g>
	<g>
		<path class="st6" d="M395.53,112.88C395.53,112.88,395.53,112.88,395.53,112.88c-0.12-0.76-0.47-1.45-1-1.99
			c-0.13-0.13-0.26-0.24-0.4-0.35c0-0.01-0.01-0.01-0.01-0.01c-0.27-0.21-0.57-0.38-0.9-0.5c-1.22-0.46-2.92-1-5.16-1.49
			c-1.32-0.29-3.42-0.7-6.03-1.11c-2.5-0.4-5.46-0.82-8.62-1.17h-0.02c-4.52-0.5-9.46-0.87-14.08-0.86h-0.01
			c-2.52,0.01-4.94,0.13-7.15,0.39c-0.73,0.09-1.4,0.18-2.03,0.28c-8.32,1.28-8.7,3.32-8.63,4.46c0.01,0.18-0.17,0.29-0.33,0.2
			c-1.75-1.08-3.8-1.54-5.81-1.65c-2-0.1-4.1,0.13-5.95,1.01c-0.16,0.08-0.34-0.05-0.31-0.23c0.21-1.2-0.01-3.51-10.1-5.86
			c-0.2-0.05-0.4-0.09-0.6-0.13c-2.58-0.56-5.47-0.96-8.47-1.21h-0.01c-3.52-0.31-7.2-0.45-10.7-0.47h-0.01
			c-5.17-0.04-9.94,0.17-13.25,0.4c-1.28,0.09-2.33,0.18-3.11,0.27c-2.41,0.27-4.26,0.65-5.59,0.98c-0.69,0.17-1.28,0.55-1.72,1.07
			l-0.01,0.01c-0.52,0.59-0.84,1.33-0.89,2.15c0,0.06-0.01,0.13-0.01,0.2c0,1.38,0.77,2.7,2.05,3.22c0.53,0.22,1.08,0.6,1.57,1.25
			c1.28,1.71,1.61,3.16,3.14,3.88c0.08,0.03,0.13,0.11,0.13,0.2c-0.24,3.38-0.2,9.14,1.12,13.49c0.84,2.76,2.09,4.94,3.86,6.67
			c1.68,1.66,3.85,2.9,6.57,3.79c2.65,0.87,5.72,1.4,8.78,1.56c3.2,0.17,6.41-0.05,9.11-0.7c5.87-1.42,10.33-5.59,12.55-11.75
			c2.02-5.6,2.83-11.1,2.69-14.33c0.46,0.15,0.88,0.06,1.31-0.3l0.06-0.01c0.08-0.07,0.2-0.15,0.27-0.24
			c0.7-0.65,2.95-2.29,7.36-2.05c4.43,0.24,6.47,2.11,7.1,2.83c0.07,0.1-0.01,0.19,0.06,0.27h-0.14c0.32,0.32,0.77,0.48,1.19,0.47
			c0.14,0,0.25,0.1,0.24,0.24c-0.43,3.22-0.06,8.66,1.3,14.28c1.54,6.36,5.56,10.99,11.25,13.03c2.61,0.94,5.79,1.51,9,1.68
			c3.06,0.17,6.17-0.03,8.89-0.61c1.71-0.37,3.22-0.88,4.57-1.56c3.15-1.58,5.36-4.08,6.92-7.72c1.79-4.19,2.42-9.9,2.55-13.29
			c0-0.09,0.06-0.16,0.15-0.19c1.59-0.54,1.93-1.96,3.39-3.53c0.51-0.54,1.03-0.86,1.51-1.03c0.57-0.2,1.07-0.54,1.46-0.98
			c0.33-0.37,0.59-0.81,0.74-1.28c0.1-0.3,0.16-0.61,0.18-0.94c0-0.06,0.01-0.13,0.01-0.2
			C395.57,113.24,395.56,113.06,395.53,112.88z M322.33,128.48c-2.07,5.77-6.22,9.67-11.68,10.98c-5.05,1.22-11.94,0.89-17.16-0.83
			c-2.57-0.84-4.58-1.98-6.14-3.52c-1.58-1.57-2.7-3.57-3.48-6.13c-1.44-4.73-1.26-11.22-0.95-14.2v-0.03
			c0.45-1.88,1.59-5.45,4.04-7.3c0.36-0.27,0.74-0.5,1.15-0.68c4.39-1.96,13.65-2.87,22.74-0.87c9.09,1.99,12.53,4.38,13.85,7.06
			c0.04,0.1,0.1,0.19,0.15,0.28C325.41,115.69,324.63,122.08,322.33,128.48z M386.91,120.39c-0.01,2.98-0.53,9.46-2.48,14.01
			c-1.51,3.54-3.6,5.86-6.7,7.3c-1.15,0.54-2.44,0.96-3.89,1.26c-5.37,1.14-12.26,0.73-17.15-1.03c-5.28-1.89-8.98-6.22-10.43-12.17
			c-1.6-6.6-1.69-13.05-0.87-15.44c0.06-0.08,0.12-0.17,0.17-0.26c1.6-2.51,5.27-4.52,14.53-5.52c8.61-0.94,17.08,0.64,21.57,2.81
			c0.34,0.16,0.66,0.33,0.95,0.5c3.08,1.8,4.02,6.3,4.3,8.49V120.39z"/>
	</g>
	<g>
		<path class="st7" d="M330.05,174.22c-6.47,0-10.91-2.98-10.98-3.03c-0.25-0.17-0.31-0.51-0.14-0.75c0.17-0.25,0.51-0.31,0.75-0.14
			c0.44,0.3,10.91,7.29,23.26-1.59c0.24-0.17,0.58-0.12,0.76,0.12c0.17,0.24,0.12,0.58-0.12,0.76
			C338.67,173.11,333.99,174.22,330.05,174.22z"/>
	</g>
	<g>
		<path class="st7" d="M331.37,154.23c-0.1,0-0.2-0.03-0.29-0.09c-0.11-0.07-2.62-1.69-2.83-3.69c-0.18-1.79,0.57-10.9,0.6-11.28
			c0.02-0.3,0.29-0.52,0.59-0.5c0.3,0.02,0.52,0.29,0.5,0.59c-0.27,3.24-0.74,9.73-0.6,11.08c0.13,1.23,1.73,2.5,2.33,2.89
			c0.25,0.16,0.33,0.5,0.17,0.75C331.72,154.14,331.54,154.23,331.37,154.23z"/>
	</g>
	<g>
		<path class="st8" d="M201.36,424.39c-0.21,0-0.42-0.04-0.62-0.14c-0.72-0.34-1.03-1.2-0.69-1.93
			c1.58-3.33,14.76-42.81,14.98-45.85c0.06-0.8,0.76-1.4,1.55-1.34c0.8,0.06,1.4,0.75,1.34,1.55c-0.27,3.62-13.85,43.9-15.25,46.87
			C202.42,424.09,201.9,424.39,201.36,424.39z"/>
	</g>
	<g>
		<path class="st8" d="M339.27,237.98c-5.62,0-12.41-1.05-20.44-3.97c-1.05-0.38-15.78-7.89-18.72-9.39
			c-0.71-0.36-0.99-1.23-0.63-1.95c0.36-0.71,1.23-1,1.95-0.63c6.66,3.4,17.54,8.91,18.4,9.25c25.75,9.38,38.07-1.86,38.19-1.98
			c0.58-0.55,1.49-0.52,2.04,0.05c0.55,0.58,0.53,1.49-0.05,2.04C359.64,231.78,352.96,237.98,339.27,237.98z"/>
	</g>
	<g>
		<path class="st8" d="M327.6,724.06c-0.16,0-0.33-0.03-0.49-0.09c-0.75-0.27-1.14-1.1-0.87-1.85L343.61,674
			c0.27-0.75,1.1-1.14,1.85-0.87c0.75,0.27,1.14,1.1,0.87,1.85l-17.38,48.12C328.74,723.69,328.19,724.06,327.6,724.06z"/>
	</g>
</g>
</svg>
