<?xml version="1.0" encoding="utf-8"?>
<!-- Generator: Adobe Illustrator 27.0.0, SVG Export Plug-In . SVG Version: 6.00 Build 0)  -->
<svg version="1.1" id="Layer_1" xmlns="http://www.w3.org/2000/svg" xmlns:xlink="http://www.w3.org/1999/xlink" x="0px" y="0px"
	 viewBox="0 0 595.28 841.89" style="enable-background:new 0 0 595.28 841.89;" xml:space="preserve">
<style type="text/css">
	.st0{fill:#E1B897;}
	.st1{fill:#F8BD8C;}
	.st2{fill:#32225E;}
	.st3{fill:#291F57;}
	.st4{fill:#1D1647;}
	.st5{fill:#EAB186;}
	.st6{fill:#1A1A1A;}
	.st7{fill:#FDFEFF;}
	.st8{fill:#676C6E;}
</style>
<g>
	<path class="st0" d="M438.25,841.89H126.7l5.51-150.4l0.16-4.55l0.04-0.95l256.2-11.52l36.79-1.65l1.07,14.03l4.7,61.73l0.01,0.09
		l1.7,22.43c0,0.01,0,0.01,0,0.01l0.75,9.76L438.25,841.89z"/>
	<path class="st0" d="M289.77,841.89H126.58l2.93-152.85l0.06-3.05l2.8,0.95l29.86,10.09l74.18,25.07c0,0,0.04,0.02,0.12,0.04
		l49.13,16.6L289.77,841.89z"/>
	<polygon class="st1" points="321.75,289.56 232.21,299.89 230.01,240.57 229.86,236.49 229.57,228.69 302.83,220.24 307.6,219.69 
		311.6,239.47 	"/>
	<path class="st2" d="M218.42,280.45c0,0-104.33,42.77-107.23,51.32c-2.9,8.55-14.49,32.79-14.49,32.79s50.72,121.18,37.68,162.53
		c-13.04,41.35-4.35,109.78-4.35,131.16c0,21.38-8.69,29.94,7.25,35.64c15.94,5.7,68.11,2.85,97.09,0
		c28.98-2.85,88.39,0.88,101.44,3.29c13.04,2.41,91.29-10.42,91.29-10.42s10.14-54.18,7.25-81.26c-2.9-27.09,1.04-91.24,0.52-101.22
		c-0.52-9.98,4.96-14.26,0.05-38.49c-4.92-24.24,19.72-156.82,19.72-156.82l-120.27-43.13L218.42,280.45z"/>
	<g>
		<polygon class="st3" points="272.91,275.45 257.86,324.95 191.65,292.09 207.7,275.45 		"/>
		<path class="st4" d="M258.59,326.62l-68.9-34.2l17.5-18.14h67.31L258.59,326.62z M193.61,291.75l63.52,31.53l14.19-46.67h-63.11
			L193.61,291.75z"/>
	</g>
	<g>
		<polygon class="st3" points="260,275.45 280.29,324.95 355.82,272.63 337.78,253.5 		"/>
		<path class="st4" d="M279.75,326.76l-21.34-52.08l79.75-22.5l19.45,20.63L279.75,326.76z M261.59,276.21l19.24,46.94l73.19-50.71
			l-16.62-17.62L261.59,276.21z"/>
	</g>
	<g>
		<path class="st2" d="M148.34,310.71c0,0,44.58,16.99,40.49,188.98l162.39-36.67l19.91,80.94c0,0-178.22,75.88-224.47,74.61
			C100.4,617.31,70.47,409.9,80,387.14c9.52-22.76,12.14-55.19,66.56-75.42L148.34,310.71z"/>
	</g>
	<polygon class="st1" points="359.82,467.12 401.66,451.72 391.28,513.87 358.57,515.49 351.41,471.47 359.82,467.12 	"/>
	<polygon class="st1" points="229.36,492.91 195.17,500.66 193.81,492.5 191.55,478.99 193.89,479.85 229.36,492.91 	"/>
	<path class="st2" d="M416.68,319.65l-26.8,187.61l-170.15-22.51l-20.1,82.54c0,0,230.44,55.03,275.98,40.02
		c45.55-15.01,24.12-221.37,12.06-247.64c-12.06-26.26-20.21-46.81-36.27-51.81C435.34,302.87,416.68,319.65,416.68,319.65
		L416.68,319.65z"/>
	<path class="st5" d="M311.6,239.47c-3.58,8.08-9.82,15.58-19.48,19c-21.29,7.53-47.91-8.19-62.11-17.9l-0.15-4.08
		c1.23,0.19,2.62,0.35,4.18,0.48c9.38,0.77,23.38,0.52,40.98-3.81c12.59-3.1,21.59-8.1,27.81-12.92l4.77-0.55L311.6,239.47z"/>
	<path class="st1" d="M321.97,143.12c3.91,48.6-19.43,90.15-55.7,92.97c-36.27,2.82-68.84-34.29-72.74-82.88
		c-3.91-48.6,22.33-90.28,58.6-93.1C288.4,57.29,318.07,94.53,321.97,143.12z"/>
	<path class="st6" d="M272.39,249.71c-34.72,5.08-68.75-30.22-76.05-78.75c-0.69-4.68-1.1-9.3-1.33-13.86
		c8.11,47.16,41.62,81.09,75.7,76.13c31.3-4.56,52.4-40.37,50.89-82.97c0.17,0.8,0.29,1.6,0.41,2.4
		C329.31,201.18,307.11,244.64,272.39,249.71z"/>
	<path class="st6" d="M220.84,35.71c0,0-0.41,36.12,8.73,41.34c9.14,5.23,19.59-4.28,27.89-5.7c8.3-1.43,25.1-2.83,36.87,7.26
		c11.77,10.09,21.87,39.51,21.87,39.51l2.58,9.86c0,0,6.88,1.71,7.61-7.56c0.72-9.27-1.21-48.12,0-51.92
		c1.21-3.8,0.72-7.6-3.62-11.88c-4.35-4.28-9.9-10.93-8.21-13.78c1.69-2.85,8.94-10.22,1.93-16.63c-7-6.42-40.82-10.45-47.1-4.75
		C263.1,27.15,239.68,5.29,220.84,35.71z"/>
	<path class="st6" d="M214.44,38.44c0,0-32.97,3.56-33.69,32.08c0,0-3.98,6.42-11.96,16.75c-7.97,10.34,1.45,27.8,3.62,38.14
		c2.17,10.34,6.64,18.89,6.4,21.98c-0.24,3.09,5.79,9.03,11.23,6.65c5.44-2.38,6.65-8.72,6.65-8.72s0.48-40.23,6.52-47.36
		c6.04-7.13,16.3-14.14,22.22-17.11c5.92-2.97,7.25-8.55,7.25-9.27c0-0.71-7.49-39.68-7.49-39.68L214.44,38.44z"/>
	<path class="st1" d="M207.18,160.6c4.54,9.19,2.87,19.19-3.72,22.35c-6.6,3.16-15.63-1.73-20.17-10.92
		c-4.54-9.19-2.87-19.19,3.72-22.35C193.61,146.52,202.64,151.41,207.18,160.6z"/>
	<path class="st1" d="M335.17,148.03c-1.19,10.15-8.06,17.71-15.34,16.88c-7.29-0.82-12.23-9.72-11.05-19.87
		c1.19-10.15,8.06-17.71,15.34-16.88C331.41,128.99,336.36,137.88,335.17,148.03z"/>
	<path class="st6" d="M235.72,129.66c-4.51,0.28-9.28,0.87-13.76,1.79c-4.47,0.92-8.95,2.24-12.3,4.28l-0.17,0.1
		c-1.77,1.08-4.09,0.54-5.19-1.2c-1.08-1.71-0.57-3.95,1.14-5.05c4.84-3.13,9.82-4.57,14.76-5.79c4.98-1.17,9.83-1.92,14.98-2.4
		c2.31-0.21,4.36,1.46,4.58,3.74c0.22,2.28-1.48,4.29-3.8,4.51c-0.04,0-0.07,0.01-0.11,0.01L235.72,129.66z"/>
	<path class="st6" d="M231.88,147.3c0.53,3.54-1.5,6.77-4.53,7.21c-3.03,0.44-5.93-2.07-6.46-5.61c-0.53-3.54,1.5-6.77,4.53-7.21
		C228.46,141.25,231.35,143.76,231.88,147.3z"/>
	<path class="st6" d="M274.01,125.15c4.46-0.73,9.24-1.22,13.81-1.32c4.56-0.1,9.23,0.18,12.96,1.42l0.19,0.06
		c1.97,0.66,4.11-0.38,4.78-2.32c0.66-1.91-0.36-3.98-2.27-4.67c-5.44-1.97-10.62-2.26-15.71-2.34c-5.12-0.03-10.02,0.32-15.14,1.01
		c-2.3,0.31-3.91,2.39-3.6,4.66c0.31,2.27,2.43,3.85,4.74,3.54c0.04,0,0.07-0.01,0.11-0.02L274.01,125.15z"/>
	<path class="st6" d="M281.81,141.49c0.3,3.57,3.02,6.26,6.08,6.01c3.06-0.25,5.29-3.34,5-6.91c-0.3-3.57-3.02-6.26-6.07-6.01
		C283.75,134.83,281.52,137.92,281.81,141.49z"/>
	<path class="st6" d="M240.15,227.52c1.91,1.28,8.54-0.3,10.68-0.75c3.65-0.76,7.83-2.13,10.12-5.24c2.62-3.56,1.4-8.92,1.08-12.99
		c-0.09-1.16,0.11-4.36-0.87-5.32c0,0,9.57-1.41,9.66-1.43c-0.86,0.13,1.71,13.4,2.11,14.48c1.09,2.89,4.04,4.53,6.95,5.25
		c3.03,0.76,6.34,0.84,9.45,0.62c0.77-0.05,8.25-0.69,8.32-1.46c-0.06,0.65-0.54,1.18-1.01,1.64c-4.88,4.92-10.28,9.33-15.68,13.68
		c0,0-25.6,2.14-26.32,1.43C253.93,236.73,240.18,227.54,240.15,227.52z"/>
	<path class="st7" d="M287.83,192.53c-3.36,5.87-10.49,10.78-19.48,12.49c-11.94,2.28-23.07-1.71-27.36-9.12
		c0-0.11,0.12-0.23,0.23-0.34c1.51-1.25,3.07-2.34,4.75-3.25l35.07-4.11C283.78,188.76,286.21,189.79,287.83,192.53z"/>
	<g>
		<path class="st6" d="M237.89,232.22c-0.75-7.18-2.84-30.18,0.21-37.03v-0.46l1.04-1.16c1.93-1.62,3.64-2.79,5.45-3.77
			c5.68-3.28,12.77-5.17,20.42-5.43c4.21-0.19,8.35-0.04,12.33,0.42l0.98,0.12c1.13,0.13,2.24,0.26,3.35,0.5
			c2.81,0.59,6.35,1.77,8.67,5.68c2.41,4.05,3.44,8.42,4.44,12.65c0.25,1.09,0.52,2.17,0.79,3.25c1.68,6.58,2.2,12.15,1.64,17.53
			l-5.76-0.58c0.48-4.7,0.01-9.65-1.49-15.55c-0.28-1.1-0.55-2.23-0.82-3.36c-0.94-3.99-1.83-7.76-3.8-11.06
			c-0.95-1.62-2.32-2.45-4.88-2.98c-0.94-0.2-1.86-0.3-2.8-0.41l-1.01-0.12c-3.64-0.42-7.48-0.55-11.39-0.38
			c-6.72,0.23-12.87,1.85-17.79,4.69c-1.42,0.77-2.73,1.65-4.04,2.71l-0.05,0.06c-1.69,2.54-1.21,19.69,0.29,34.11L237.89,232.22z"
			/>
	</g>
	<g>
		<path class="st6" d="M254.45,172.2c-0.28,0-0.56-0.15-0.7-0.41c-0.21-0.38-0.06-0.85,0.33-1.05l6.23-3.26
			c1.98-1.04,3.08-2.92,2.81-4.79l-3.16-21.6c-0.06-0.43,0.24-0.82,0.67-0.88c0.43-0.06,0.83,0.23,0.9,0.66l3.16,21.6
			c0.37,2.53-1.06,5.03-3.63,6.38l-6.23,3.26C254.7,172.17,254.57,172.2,254.45,172.2z"/>
	</g>
	<g>
		<path class="st8" d="M290.04,813.48c-0.86,0-1.56-0.67-1.58-1.52c-0.62-25.76-2.22-67.6-3.94-72.07
			c-5.75-3.37-34.13-12.09-48.57-16.29c-0.84-0.24-1.32-1.11-1.07-1.93c0.25-0.82,1.13-1.29,1.97-1.05
			c1.75,0.51,42.96,12.54,49.67,16.83c1.05,0.67,2.35,1.51,3.91,38.47c0.75,17.89,1.19,35.79,1.19,35.97
			c0.02,0.86-0.67,1.57-1.54,1.59C290.06,813.48,290.05,813.48,290.04,813.48z M284.44,739.71L284.44,739.71L284.44,739.71z"/>
	</g>
	<g>
		<path class="st4" d="M193.14,502.21c-0.33,0-0.66-0.1-0.93-0.3c-0.39-0.28-0.63-0.71-0.65-1.18c-0.23-4.63-6.56-78.52-6.63-79.27
			c-0.07-0.86,0.57-1.61,1.44-1.68c0.87-0.07,1.64,0.56,1.71,1.42c0.24,2.83,5.57,65.01,6.5,77.46c8.86-2.33,46.93-12.3,62.16-15.27
			c0.86-0.17,1.69,0.38,1.86,1.22c0.17,0.84-0.39,1.66-1.24,1.83c-17.1,3.33-63.34,15.59-63.81,15.71
			C193.41,502.2,193.27,502.21,193.14,502.21z"/>
	</g>
	<g>
		<path class="st4" d="M151.71,617c-5.02,0-9.59-0.51-13.36-1.72c-22.69-7.31-38.21-67.3-38.86-69.85c-0.21-0.83,0.3-1.68,1.15-1.89
			c0.85-0.21,1.71,0.3,1.92,1.13c0.15,0.61,15.74,60.87,36.77,67.65c21.36,6.88,72.82-11.06,73.34-11.24
			c0.82-0.29,1.73,0.13,2.02,0.94c0.29,0.81-0.13,1.7-0.96,1.99C211.94,604.64,176.47,617,151.71,617z"/>
	</g>
	<g>
		<path class="st4" d="M275.66,581.8c-0.58,0-1.14-0.31-1.41-0.86c-0.39-0.77-0.08-1.7,0.71-2.09l48.13-23.72
			c0.78-0.39,1.73-0.07,2.12,0.69c0.39,0.77,0.08,1.7-0.71,2.09l-48.13,23.72C276.14,581.75,275.9,581.8,275.66,581.8z"/>
	</g>
	<g>
		<path class="st4" d="M388.36,508.05c-0.08,0-0.17-0.01-0.25-0.02c-0.86-0.14-1.45-0.93-1.31-1.78l13.3-81.64
			c0.14-0.85,0.95-1.43,1.81-1.29c0.86,0.14,1.45,0.93,1.31,1.78l-13.3,81.64C389.8,507.51,389.12,508.05,388.36,508.05z"/>
	</g>
	<g>
		<path class="st4" d="M411.73,608.78c-0.08,0-0.16-0.01-0.24-0.02l-79.71-12.17c-0.86-0.13-1.45-0.93-1.32-1.78
			c0.13-0.85,0.94-1.43,1.81-1.3l79.71,12.17c0.86,0.13,1.45,0.93,1.32,1.78C413.17,608.23,412.5,608.78,411.73,608.78z"/>
	</g>
</g>
</svg>
