<?xml version="1.0" encoding="utf-8"?>
<!-- Generator: Adobe Illustrator 27.0.0, SVG Export Plug-In . SVG Version: 6.00 Build 0)  -->
<svg version="1.1" id="Layer_1" xmlns="http://www.w3.org/2000/svg" xmlns:xlink="http://www.w3.org/1999/xlink" x="0px" y="0px"
	 viewBox="0 0 595.28 841.89" style="enable-background:new 0 0 595.28 841.89;" xml:space="preserve">
<style type="text/css">
	.st0{fill:#F4898A;}
	.st1{fill:#FAB7A1;}
	.st2{fill:#3C2415;}
	.st3{fill:#594A42;}
	.st4{fill:#262262;}
	.st5{fill:#402137;}
</style>
<polygon class="st0" points="115.29,357.94 70.94,363.5 13.37,315.72 84.58,271.64 115.29,271.64 "/>
<path class="st1" d="M102.75,149.29L70.94,363.5c0,0-49.4,4.53-64.92-35.67S53.7,154.37,53.7,154.37L102.75,149.29z"/>
<path class="st1" d="M148.97,100.84c-6.98-0.11-19.13,2.3-29.17,4.64l-5.16-28.58l0.02,0c-0.23-1.57-0.82-4.82-1.64-8.98l0-0.01l0,0
	c-2.77-13.95-8.21-38.33-11.72-45.69c-4.55-9.56-10.69-3.38-9.43,2.64c0.97,4.64,3.83,34.92,5.09,48.52l-0.58,0.2
	c-2.39-12.7-8.61-41.52-12.48-49.64c-4.56-9.56-10.69-3.38-9.43,2.64c1.09,5.2,4.55,42.53,5.47,52.6l-0.44,0.15
	c-2.68-13.7-8.34-39.33-11.95-46.91c-4.56-9.56-10.69-3.38-9.43,2.64c0.83,3.97,3.05,26.72,4.46,41.73
	C59,65.04,54.51,51.57,51.7,46.73c-4.86-8.4-10.01-2.3-8.42,3.1c1.09,3.7,5.03,25.77,7.4,39.31l6.46,45.2l-4.28,24.92l46.6,12.11
	l3.28-22.08l19.73-21.74c8.33-5.05,19.78-11.8,25.18-14.11C156.67,109.57,162.38,101.06,148.97,100.84z"/>
<g>
	<path class="st0" d="M62.77,90.67c0.21,0.03,0.43,0.02,0.64-0.06l43.46-14.96c0.7-0.24,1.07-1,0.83-1.7c-0.24-0.7-1-1.08-1.7-0.83
		L62.54,88.08c-0.7,0.24-1.07,1-0.83,1.7C61.88,90.27,62.3,90.6,62.77,90.67z"/>
</g>
<g>
	<path class="st0" d="M96.84,121.54c0.58,0.09,1.18-0.21,1.43-0.78c4.57-10.26,15.96-13.85,16.08-13.88
		c0.71-0.22,1.11-0.97,0.89-1.67c-0.22-0.71-0.96-1.11-1.67-0.89c-0.51,0.16-12.67,3.96-17.75,15.36c-0.3,0.68,0,1.47,0.68,1.77
		C96.61,121.49,96.72,121.53,96.84,121.54z"/>
</g>
<path class="st2" d="M162.89,606.45c0,0-22.54,189.42-27.05,233.34h132.99l27.05-129.65l5.78,3.38l17.89,126.27h120.6V599.85
	L162.89,606.45z"/>
<path class="st3" d="M433.54,277.31c-8.08-3.23-27.9-12.92-47.69-22.82c-2.91-1.45-5.81-2.91-8.68-4.36c-2.69-1.35-5.35-2.7-7.94-4
	c-0.68-0.34-1.35-0.68-2.02-1.02c-5.3-2.69-10.3-5.23-14.7-7.48c-10.59-5.4-17.81-9.11-17.81-9.11c-0.03,0.01-0.06,0.01-0.08,0.02
	c-15.91,3.82-32.3,4.93-48.51,3.34c-2.94-0.29-5.87-0.67-8.79-1.14c-2.95-0.46-5.9-1.03-8.84-1.69l-2.34-0.53
	c0,0-0.07,0.04-0.22,0.12c-1.3,0.69-8.12,4.31-17.66,9.32c-4.33,2.28-9.22,4.83-14.4,7.53c-0.65,0.34-1.32,0.69-1.99,1.03
	c-6.32,3.29-13.02,6.75-19.63,10.14c-17.81,9.12-34.97,17.66-42.46,20.65c-18.53,7.42-21.62,45.71-21.62,45.71l4.2,290.57h286.27
	l16.51-290.57C455.16,323.02,452.07,284.73,433.54,277.31z"/>
<g>
	<g>
		<path class="st2" d="M369.24,246.13c-1.05,3.07-2.26,6.21-3.65,9.34c-5.5,12.37-12.71,22.23-21.44,29.32
			c-10.94,8.88-24.28,13.39-39.64,13.39c-32.1,0-51.92-18.81-62.88-34.59c-4.1-5.9-7.3-11.83-9.74-17.06
			c0.67-0.35,1.33-0.69,1.99-1.03c2.4,5.17,5.57,11.04,9.63,16.88c15.51,22.27,36.04,33.57,61.01,33.57
			c26.97,0,46.84-13.92,59.04-41.37c1.41-3.17,2.63-6.35,3.68-9.45C367.89,245.44,368.56,245.78,369.24,246.13z"/>
	</g>
</g>
<g>
	<path class="st4" d="M352.52,237.63c-3.86,16.64-18.51,41.94-50.85,41.94c-35.5,0-48.84-28.73-53.4-41.62
		c9.54-5.01,16.36-8.63,17.66-9.32c0.15-0.08,0.22-0.12,0.22-0.12l2.34,0.53c2.94,0.66,5.88,1.23,8.84,1.69
		c2.93,0.48,5.86,0.86,8.79,1.14c16.2,1.59,32.6,0.48,48.51-3.34c0.02-0.01,0.05-0.01,0.08-0.02
		C334.71,228.52,341.92,232.23,352.52,237.63z"/>
</g>
<g>
	<g>
		<g>
			<g>
				<g>
					<g>
						<path class="st1" d="M336.27,236.33c0,0-6.02,18.92-33.68,18.92c-32.27,0-39.86-17.2-39.86-17.2
							c2.8-7.43,4.73-14.31,6.03-20.46h0.01c2.39-11.27,2.73-20.12,2.58-25.55l56.69-2.25c0.52,4.8,1.38,10.45,2.34,16.14
							C332.94,221.03,336.27,236.33,336.27,236.33z"/>
					</g>
				</g>
			</g>
		</g>
	</g>
	<g>
		<g>
			<g>
				<g>
					<g>
						<path class="st5" d="M330.37,205.94c-8.78,6.11-27.98,15.2-61.61,11.66c2.39-11.27,2.73-20.12,2.58-25.55l56.69-2.25
							C328.56,194.6,329.41,200.25,330.37,205.94z"/>
					</g>
				</g>
			</g>
		</g>
	</g>
</g>
<g>
	<g>
		<g>
			<g>
				<g>
					<g>
						<g>
							<path class="st1" d="M249.71,118.12c0,0-17.54-23.88-31.19-9.75c-13.64,14.13,12.67,63.35,36.55,52.63L249.71,118.12z"/>
						</g>
					</g>
				</g>
			</g>
		</g>
	</g>
</g>
<g>
	<g>
		<g>
			<g>
				<g>
					<g>
						<path class="st1" d="M356.58,118.12c0,0,17.54-23.88,31.19-9.75c13.65,14.13-12.67,63.35-36.55,52.63L356.58,118.12z"/>
					</g>
				</g>
			</g>
		</g>
	</g>
</g>
<g>
	<g>
		<g>
			<g>
				<g>
					<path class="st1" d="M314.35,44.07c-50-0.02-81.05,25.89-75.47,85.36c3.33,35.5,21.59,79.41,63.71,80.41
						c43.89,1.03,61.51-46.76,67.78-83.02c5.74-33.19-11.14-69.98-43.15-80.47C325,45.62,317.16,44.07,314.35,44.07z"/>
				</g>
				<g>
					<path class="st5" d="M238.3,118.57c0,0-5.82-56.37-5.99-68.87c-0.41-30.38,30.24-47.42,75.23-47.33
						c36.28,0.08,40.75,15.96,43.68,28.82c0,0,26.83,0.69,30.92,19.39c4.09,18.7-12.93,75.19-12.93,75.19s-5.71-13-9.8-31.71
						c-4.09-18.7-9.41-30.15-21.11-30.39c-11.69-0.23-26.3,0.35-42.09,9.7c-15.78,9.35-31.56,10.52-42.67,2.34
						C253.54,75.73,250.58,103.96,238.3,118.57z"/>
				</g>
			</g>
		</g>
	</g>
</g>
<g>
	<g>
		<path d="M306.09,157.02c-2.09,0-4.37-0.55-6.89-1.64c-0.71-0.31-1.13-1.05-1.03-1.81l3.51-26.95c0.12-0.95,1-1.61,1.94-1.49
			c0.95,0.12,1.62,0.99,1.49,1.94l-3.34,25.62c3.44,1.26,6.1,1.15,8.29-0.33c0.79-0.53,1.87-0.32,2.4,0.47
			c0.53,0.79,0.32,1.87-0.47,2.4C310.23,156.42,308.27,157.02,306.09,157.02z"/>
	</g>
</g>
<g>
	<g>
		<path d="M302.88,177.96c-9.91,0-17.42-4.09-17.55-4.16c-0.83-0.47-1.13-1.52-0.67-2.35c0.47-0.83,1.52-1.13,2.35-0.67
			c0.84,0.46,19.98,10.78,36.56-4.55c0.7-0.65,1.79-0.61,2.44,0.09c0.65,0.7,0.61,1.8-0.1,2.44
			C318.24,175.88,309.95,177.96,302.88,177.96z"/>
	</g>
</g>
<g>
	<g>
		<path class="st5" d="M269.17,111c3.72-2,9.16-4.47,14.44-5.24c2.84-0.41,4.62-3.27,3.66-5.97l-0.2-0.55
			c-0.7-1.95-2.64-3.18-4.7-2.96c-4.72,0.5-13.07,2.15-18.52,7.59c-1.18,1.18-1.59,2.93-1.09,4.52l0,0
			C263.61,111.07,266.69,112.34,269.17,111z"/>
	</g>
</g>
<g>
	<g>
		<path class="st5" d="M340.74,111c-3.72-2-9.16-4.47-14.44-5.24c-2.84-0.41-4.62-3.27-3.66-5.97l0.2-0.55
			c0.7-1.95,2.64-3.18,4.7-2.96c4.72,0.5,13.07,2.15,18.52,7.59c1.18,1.18,1.59,2.93,1.09,4.52l0,0
			C346.3,111.07,343.22,112.34,340.74,111z"/>
	</g>
</g>
<g>
	<g>
		<g>
			<g>
				<g>
					<g>
						<g>
							<path class="st5" d="M283.06,124.21c0.08,4.69-1.65,8.51-3.86,8.55c-2.21,0.04-4.07-3.73-4.15-8.41
								c-0.08-4.69,1.65-8.51,3.86-8.55C281.12,115.76,282.98,119.53,283.06,124.21z"/>
						</g>
					</g>
				</g>
			</g>
		</g>
	</g>
	<g>
		<g>
			<g>
				<g>
					<g>
						<g>
							<path class="st5" d="M324.94,124.21c-0.08,4.69,1.65,8.51,3.86,8.55c2.21,0.04,4.07-3.73,4.15-8.41
								c0.08-4.69-1.65-8.51-3.86-8.55C326.88,115.76,325.02,119.53,324.94,124.21z"/>
						</g>
					</g>
				</g>
			</g>
		</g>
	</g>
</g>
<path class="st3" d="M219.26,253.06c0,0-31.6-6.53-60.51,3.41l-60.51,11.11l4.51,105.19c0,0,71.01,3.38,100.31-13.9
	C211.6,353.84,219.26,253.06,219.26,253.06z"/>
<path class="st3" d="M408.84,265.86c0,0,34.28,5.86,61.33,27.27s66.5,89.04,66.5,89.04l-96.52,55.23L408.84,265.86z"/>
<path class="st1" d="M527.45,387.45c0,0,64.24,83.56,67.76,112.57c3.52,29.02-126.56,163.94-126.56,163.94l-25.73-38.02l68.26-125.9
	l-58.54-69.8L527.45,387.45z"/>
<path class="st1" d="M369.85,644.29c5.71-3.55,15.1-7.76,18.43-9.22c0.05-0.11,0.08-0.23,0.14-0.33l0.99-0.16
	c0.03-0.01,0.08-0.04,0.08-0.04l0.01,0.02l53.43-8.62c0,0,36.14,26.02,25.73,38.02c-9.43,10.87-46.99,24.66-53.98,27.16l0,0l0,0
	c-0.73,0.26-1.12,0.4-1.12,0.4s-0.02-0.03-0.02-0.03l-13.44,4.3c0,0-6.54,14.76-12.26,14.17c-5.72-0.59,0-19.9,6.18-23.74
	c3.29-2.04,7.96-4.34,11.62-6.04c-0.15-0.23-0.3-0.45-0.45-0.68l-12.7,4.06c0,0-7.45,16.8-13.95,16.13
	c-6.51-0.67,0-22.65,7.03-27.02c3.3-2.05,7.81-4.31,11.68-6.14c-0.12-0.22-0.25-0.44-0.37-0.66l-12.32,3.94
	c0,0-7.45,16.8-13.95,16.13c-6.51-0.67,0-22.65,7.03-27.02c3.58-2.23,8.61-4.71,12.68-6.62c-0.17-0.43-0.33-0.86-0.49-1.28
	l-13.04,4.17c0,0-7.45,16.8-13.95,16.13C356.31,670.63,362.82,648.65,369.85,644.29z"/>
</svg>
